<?xml version="1.0" encoding="UTF-8" standalone="no"?>
<!-- Created with Inkscape (http://www.inkscape.org/) -->

<svg
   xmlns:dc="http://purl.org/dc/elements/1.1/"
   xmlns:cc="http://creativecommons.org/ns#"
   xmlns:rdf="http://www.w3.org/1999/02/22-rdf-syntax-ns#"
   xmlns:svg="http://www.w3.org/2000/svg"
   xmlns="http://www.w3.org/2000/svg"
   xmlns:sodipodi="http://sodipodi.sourceforge.net/DTD/sodipodi-0.dtd"
   xmlns:inkscape="http://www.inkscape.org/namespaces/inkscape"
   version="1.1"
   width="400"
   height="140"
   id="svg3145"
   inkscape:version="0.48.4 r9939"
   sodipodi:docname="cantera.svg">
  <sodipodi:namedview
     pagecolor="#ffffff"
     bordercolor="#666666"
     borderopacity="1"
     objecttolerance="10"
     gridtolerance="10"
     guidetolerance="10"
     inkscape:pageopacity="0"
     inkscape:pageshadow="2"
     inkscape:window-width="1280"
     inkscape:window-height="776"
     id="namedview143"
     showgrid="false"
     inkscape:zoom="0.815"
     inkscape:cx="200"
     inkscape:cy="70"
     inkscape:window-x="0"
     inkscape:window-y="24"
     inkscape:window-maximized="1"
     inkscape:current-layer="svg3145" />
  <metadata
     id="metadata3151">
    <rdf:RDF>
      <cc:Work
         rdf:about="">
        <dc:format>image/svg+xml</dc:format>
        <dc:type
           rdf:resource="http://purl.org/dc/dcmitype/StillImage" />
        <dc:title></dc:title>
      </cc:Work>
    </rdf:RDF>
  </metadata>
  <defs
     id="defs3149" />
  <path
     d="M 69.664484,124.34436 113.06973,98.441207 c 0,0 7.00086,-3.85046 7.70097,-15.051802 0.70007,-11.201376 0.35004,-42.705169 0.35004,-42.705169 0,0 -1.40018,-6.650777 -7.35092,-3.150358 -5.95073,3.500417 -45.855556,27.653311 -45.855556,27.653311 0,0 -5.25064,3.850459 -5.25064,8.401035 0,4.550575 -0.35004,44.805436 -0.35004,44.805436 0,0 -0.70004,8.75104 7.3509,5.9507 z"
     id="path3461"
     style="fill:#00ccff;fill-opacity:0.80000072;stroke:none"
     inkscape:connector-curvature="0" />
  <path
     d="M 67.274904,97.526317 108.85783,73.022078 c 0,0 7.67303,-4.455297 7.92056,-10.890732 0.24762,-6.435461 -0.24763,-47.275828 -0.24763,-47.275828 0,0 -1.48512,-6.1879302 -7.92059,-4.207789 -6.43544,1.980142 -45.090596,28.31948 -45.090596,28.31948 0,0 -2.94414,2.244704 -3.85277,3.804016 -0.99896,1.714199 -1.35477,3.988292 -1.55017,5.746655 -0.49503,4.455319 0.24762,44.058079 0.24762,44.058079 0,0 2.22765,8.663131 8.91059,4.950358 z"
     id="path3471"
     style="fill:#ff0067;fill-opacity:0.8;stroke:none"
     inkscape:connector-curvature="0" />
  <path
     d="m 49.206134,124.50569 42.07795,-25.246743 c 0,0 6.43544,-4.95037 6.43544,-9.405692 0,-4.455298 -0.24762,-46.780765 -0.24762,-46.780765 0,0 -0.99009,-6.682943 -6.9305,-4.702801 -5.94041,1.98012 -45.79071,27.226905 -45.79071,27.226905 0,0 -2.4292,1.380812 -4.17867,4.116302 -1.20768,1.888341 -1.90818,4.697042 -2.00928,7.021982 -0.24762,5.692851 0,43.810552 0,43.810552 0,0 1.73266,9.6532 10.64327,3.96026 z"
     id="path3465"
     style="fill:#ef9330;fill-opacity:0.8;stroke:none"
     inkscape:connector-curvature="0" />
  <path
     d="m 233.60652,112.50112 a 7.425522,10.767007 0 0 1 -14.85103,0 7.425522,10.767007 0 1 1 14.85103,0 z"
     id="path3475"
     style="opacity:0.42803034;fill:#000000;fill-opacity:0;stroke:none"
     inkscape:connector-curvature="0" />
  <path
     d="m 98.462094,79.581304 a 14.974799,14.974799 0 1 1 -29.94959,0 14.974799,14.974799 0 1 1 29.94959,0 z"
     id="path4271"
     style="fill:#ffffff;fill-opacity:1;stroke:none"
     inkscape:connector-curvature="0" />
  <path
     d="m 86.631514,104.58058 a 6.6094904,6.6094904 0 1 1 -13.21897,0 6.6094904,6.6094904 0 1 1 13.21897,0 z"
     id="path4271-5"
     style="fill:#ffffff;fill-opacity:1;stroke:none"
     inkscape:connector-curvature="0" />
  <path
     d="m 113.73468,81.932715 a 6.6094904,6.6094904 0 1 1 -13.21898,0 6.6094904,6.6094904 0 1 1 13.21898,0 z"
     id="path4271-5-4"
     style="fill:#ffffff;fill-opacity:1;stroke:none"
     inkscape:connector-curvature="0" />
  <path
     d="M 54.899054,71.041936 82.373474,71.536993 107.37274,58.41859 74.452914,56.933483 z"
     id="path4311"
     style="fill:#ffffff;fill-opacity:1;stroke:none"
     inkscape:connector-curvature="0" />
  <path
     d="m 60.591964,71.041936 2.72268,-0.495013 8.41555,27.969484 -7.92056,-3.21774 z"
     id="path4313"
     style="fill:#ffffff;fill-opacity:1;stroke:none"
     inkscape:connector-curvature="0" />
  <text
     x="128.90678"
     y="83.417809"
     id="text4317"
     xml:space="preserve"
     style="font-size:62.30980301px;font-style:normal;font-weight:normal;line-height:125%;letter-spacing:0px;word-spacing:0px;fill:#000000;fill-opacity:1;stroke:none;font-family:Sans"
     sodipodi:linespacing="125%"><tspan
       x="128.90678"
       y="83.417809"
       id="tspan4319">prep@</tspan><tspan
       x="128.90678"
       y="124.04078"
       id="tspan4321"
       style="font-size:24.92392159px">En linea. La Cantera</tspan></text>
</svg>
