<?xml version="1.0" encoding="UTF-8" standalone="no"?>
<!-- Created with Inkscape (http://www.inkscape.org/) -->

<svg
   xmlns:dc="http://purl.org/dc/elements/1.1/"
   xmlns:cc="http://creativecommons.org/ns#"
   xmlns:rdf="http://www.w3.org/1999/02/22-rdf-syntax-ns#"
   xmlns:svg="http://www.w3.org/2000/svg"
   xmlns="http://www.w3.org/2000/svg"
   version="1.1"
   width="400"
   height="140"
   id="svg3145">
  <metadata
     id="metadata3151">
    <rdf:RDF>
      <cc:Work
         rdf:about="">
        <dc:format>image/svg+xml</dc:format>
        <dc:type
           rdf:resource="http://purl.org/dc/dcmitype/StillImage" />
        <dc:title></dc:title>
      </cc:Work>
    </rdf:RDF>
  </metadata>
  <defs
     id="defs3149" />
  <path
     d="m 181.87624,120.14216 4.69937,0 0,7.95273 -1.38574,0.1205 0.18076,3.07264 c 0,0 0.79425,0.26732 1.10624,0.53208 0.28368,0.24076 0.64096,0.91387 0.64096,0.91387 l 3.07264,-2.65091 -0.0603,-1.56645 -1.26521,-0.0602 0.0603,-8.19372 4.45838,0 0.18069,7.83223 -1.92789,0.18075 -0.241,2.53041 -0.84345,0.0602 -2.94915,2.86998 0.41874,5.0225 -1.14474,0.42173 c 0,0 0.84571,2.36374 -0.95439,3.48805 -1.74343,1.08891 -3.62445,-0.11416 -3.62445,-0.11416 0,0 -1.29461,-1.61241 0.10346,-3.48141 1.27844,-1.70901 3.81262,-0.97693 3.81262,-0.97693 l 0.18076,-2.28942 c 0,0 -1.38012,1.02973 -2.69322,0.58542 -1.69416,-0.57324 -2.00608,-2.27237 -2.00608,-2.27237 0,0 -0.35269,-0.67111 0.23092,-1.78521 0.49796,-0.9506 1.45598,-0.98619 1.45598,-0.98619 l -0.0603,-3.07265 -1.5062,-0.18074 z"
     id="path5413-4"
     style="fill:#070000;fill-opacity:0.90196078;stroke:none" />
  <path
     d="m 189.04579,139.4215 c 0,0 2.19363,1.21027 3.79247,-0.0286 1.63277,-1.2651 0.90684,-3.52604 0.90684,-3.52604 l 5.66328,-4.75959 0.12053,-2.7714 1.38567,-0.18074 0.12053,-8.07322 -5.42235,-0.18075 -0.0603,8.7962 2.53774,-0.19538 -0.24832,1.58107 -5.00053,4.75959 c 0,0 -1.89754,-1.21572 -3.58464,0.68361 -1.48586,1.67277 -0.21092,3.89524 -0.21092,3.89524 z"
     id="path5415-5"
     style="fill:#070000;fill-opacity:0.90196078;stroke:none" />
  <path
     d="m 202.72208,128.15514 5.18129,-0.0602 0.0603,-8.01298 -5.30182,0 z"
     id="path5417-4"
     style="fill:#070000;fill-opacity:0.90196078;stroke:none" />
  <path
     d="m 106.3222,62.538109 c 0,0 -12.089192,9.19393 -7.692022,8.82731 2.989052,-0.24923 9.297562,-0.32214 9.297562,-0.32214 l -15.795412,9.451289 c 0,0 -1.7665,-0.51344 -2.82642,0.60566 -1.27481,1.34597 -0.47107,3.56668 -0.47107,3.56668 0,0 1.87651,0.89383 3.15923,0.59141 1.71136,-0.40347 2.08984,-1.93733 2.08984,-1.93733 0,0 24.908752,-13.552069 24.141742,-14.396539 -1.08562,-1.19524 -11.62161,-0.96703 -13.17168,-0.75938 -2.61145,0.34982 3.83504,-4.62907 3.83504,-4.62907 0,0 2.10356,-0.38539 2.95225,-1.81952 0.90386,-1.52737 -1.40939,-2.46769 -1.96871,-2.54894 -0.84062,-0.12212 -2.42538,-0.22328 -3.34766,1.61053 -0.62269,1.23813 -0.20269,1.76004 -0.20269,1.76004 z"
     id="path3157-3"
     style="fill:#070000;fill-opacity:0.9;stroke:#000000;stroke-width:0.68522942;stroke-opacity:0" />
  <path
     d="m 121.62053,58.360989 3.45881,0.67774 4.53553,0.84499 -0.39223,14.5034 3.03392,1.10543 c 0,0 1.44249,-0.91591 2.75745,0.21997 1.20755,1.0431 0.23425,2.344859 0.23425,2.344859 0,0 -0.64759,1.67709 -2.62794,0.82704 -1.14829,-0.4929 -1.29238,-2.020059 -1.29238,-2.020059 l -6.18609,-2.134 0.57102,-13.60942 -4.94888,-1.14205 c 0,0 -1.17107,0.70553 -2.41958,-0.0317 -2.08191,-1.22927 -0.42598,-3.05801 -0.42598,-3.05801 0,0 1.11324,-1.01103 2.64757,-0.39746 1.4912,0.59632 1.05453,1.86922 1.05453,1.86922 z"
     id="path3159-0"
     style="fill:#070000;fill-opacity:0.9;stroke:#000000;stroke-width:0.68522942px;stroke-linecap:butt;stroke-linejoin:miter;stroke-opacity:0" />
  <path
     d="m 151.35073,80.860918 c 0,0 -0.81877,1.26007 -3.28689,0.88599 -2.81061,-0.42599 -2.97641,-2.00663 -2.97641,-2.00663 l -7.02212,-3.656409 -0.46428,-14.17648 3.77263,-2.85908 c 0,0 0.0685,-0.84443 2.12948,-1.90321 1.73563,-0.89162 3.74839,0.0855 3.74839,0.0855 0,0 1.73966,0.77352 1.30324,2.31537 -0.56812,2.00715 -2.7453,2.19093 -2.7453,2.19093 l -2.29048,1.88791 0.0861,10.25133 4.61691,3.0957 c 0,0 2.18453,-0.40183 3.40547,0.873919 1.45817,1.52363 -0.27667,3.01512 -0.27667,3.01512 z"
     id="path3161-9"
     style="fill:#070000;fill-opacity:0.9;stroke:#000000;stroke-width:0.60147238px;stroke-linecap:butt;stroke-linejoin:miter;stroke-opacity:0" />
  <path
     d="m 154.81871,80.881678 c 0,0 -0.35185,-1.3552 0.71302,-2.26429 1.73251,-1.479059 2.8083,-0.11498 2.8083,-0.11498 l 2.85512,-0.57103 3.33098,-17.225899 3.71166,-3.14064 c 0,0 0.42458,-2.11029 1.87037,-2.30222 1.7958,-0.23838 2.69782,0.96983 2.69782,0.96983 0,0 0.92413,0.82893 0.37338,2.47042 -0.45,1.34121 -2.46714,1.33641 -2.46714,1.33641 l -2.66478,1.80825 -2.85512,16.940389 -6.28127,2.09376 c 0,0 -0.49451,1.24939 -2.18892,1.23722 -1.61318,-0.0116 -1.90342,-1.23722 -1.90342,-1.23722 z"
     id="path3931-8"
     style="fill:#070000;fill-opacity:0.9;stroke:#000000;stroke-width:0.68522942px;stroke-linecap:butt;stroke-linejoin:miter;stroke-opacity:0" />
  <path
     d="m 177.54705,84.704918 c 0,0 0.69356,-0.33266 0.76825,-1.09384 0.12633,-1.28723 -0.56619,-1.55764 -0.56619,-1.55764 l -4.38606,-14.870719 -2.28931,-0.96081 c 0,0 -0.23912,-1.40816 -0.80872,-1.66702 -1.59244,-0.72373 -2.24083,0.34085 -2.24083,0.34085 0,0 -0.73131,0.7492 0.2226,2.05378 0.38393,0.52506 1.90407,0.52299 1.90407,0.52299 l 1.5236,0.90551 4.06468,14.036819 c 0,0 -0.37773,0.72472 0.0997,1.55438 0.60277,1.04741 1.70819,0.7357 1.70819,0.7357 z"
     id="path3933-3"
     style="fill:#070000;fill-opacity:0.9;stroke:#000000;stroke-width:0.42764407px;stroke-linecap:butt;stroke-linejoin:miter;stroke-opacity:0" />
  <path
     d="m 88.297138,55.241429 0.12049,4.09686 11.447111,-0.1205 0,-1.32545 8.675701,-0.1205 10.72413,-11.32661 16.62843,0 0,5.42231 3.85586,0.1205 0,-12.652057 -3.85586,0 0,4.940327 -17.23091,0.60248 -11.20612,11.20611 -7.22975,0.1205 -0.361481,-1.20496 z"
     id="path4094-4"
     style="fill:#070000;fill-opacity:0.9;stroke:#000000;stroke-width:0.68522942px;stroke-linecap:butt;stroke-linejoin:miter;stroke-opacity:0" />
  <path
     d="m 88.297138,51.385569 11.326611,0.12049 0.0499,-1.58107 10.433231,0.25561 14.70049,-14.700487 15.78496,0 3.37388,2.65091 -0.1205,1.32546 -1.44595,0 0.1205,12.411067 4.33785,0.12049 -0.24099,-12.652057 -1.20496,0.1205 0,-1.92794 -3.97636,-3.85587 -17.3514,0.1205 -14.4595,14.700497 -10.015781,-0.12781 0.0146,-1.55914 -11.198801,0.11319 z"
     id="path4604-4"
     style="fill:#070000;fill-opacity:0.9;stroke:#000000;stroke-width:0.68522942px;stroke-linecap:butt;stroke-linejoin:miter;stroke-opacity:0" />
  <path
     d="m 82.306308,44.716369 4.00457,0.0852 0.0852,-6.219847 26.668682,-0.1704 7.15708,-7.2423 23.60135,-0.17041 6.7703,6.77092 0.15579,1.51048 -1.24025,0.17647 0,12.170077 4.19776,-0.17912 -0.1704,-12.013687 -1.36326,-0.17041 -0.34081,-2.21528 -7.58311,-7.49791 -24.70899,0.0852 -6.90149,7.1571 -26.157452,0.1704 0.17041,-5.19741 -4.00456,0 z"
     id="path4606-4"
     style="fill:#070000;fill-opacity:0.9;stroke:#000000;stroke-width:0.68522942px;stroke-linecap:butt;stroke-linejoin:miter;stroke-opacity:0" />
  <path
     d="m 75.343828,44.577549 4.15711,0.12049 0.0602,-12.350817 -1.44594,-0.1205 0.0602,-2.10868 2.65091,-2.71115 67.055942,0.0602 9.88065,9.88066 0.3262,1.87196 -1.15504,0.0602 0.0456,12.888787 4.2776,-0.0602 -0.18074,-13.073797 -1.74719,0 0,-2.10868 -10.84463,-11.02537 -68.260892,0.0602 -3.73538,3.91612 0.0602,2.16893 -1.08447,0 z"
     id="path4608-1"
     style="fill:#070000;fill-opacity:0.9;stroke:#000000;stroke-width:0.68522942px;stroke-linecap:butt;stroke-linejoin:miter;stroke-opacity:0" />
  <path
     d="m 167.04696,71.622389 0,1.83997 4.87992,-0.16 -0.08,-1.75997 z"
     id="path4637-4"
     style="fill:#070000;fill-opacity:0.9;stroke:#000000;stroke-width:0.28799516px;stroke-linecap:butt;stroke-linejoin:miter;stroke-opacity:0" />
  <path
     d="m 83.742098,92.005649 11.75262,0.1205 -0.0207,-1.56645 8.696372,0.241 6.86827,-7.591241 6.33031,-0.17041 -0.18502,1.61636 10.84463,0 0.12049,-3.85587 -10.96512,-0.36149 0.1205,1.32546 -6.86826,0 -6.98878,7.229751 -8.137742,0.6171 0.0499,-1.645591 -11.43248,-0.056 z"
     id="path4639-1"
     style="fill:#070000;fill-opacity:0.9;stroke:#000000;stroke-width:0.68522942px;stroke-linecap:butt;stroke-linejoin:miter;stroke-opacity:0" />
  <path
     d="m 100.24252,98.303579 c 0,0 0.10569,2.258571 2.4726,2.198411 2.68625,-0.0683 2.63962,-1.687191 2.63962,-1.687191 l 6.04944,0 0.0852,1.192851 11.50246,-0.255621 -0.0852,-3.91935 -11.41725,0.1704 -0.0852,1.27806 -5.96424,-10e-6 c 0,0 -0.42457,-2.54617 -3.02685,-2.00954 -2.34244,0.48304 -2.17057,3.03199 -2.17057,3.03199 z"
     id="path4641-6"
     style="fill:#070000;fill-opacity:0.9;stroke:#000000;stroke-width:0.68522942px;stroke-linecap:butt;stroke-linejoin:miter;stroke-opacity:0" />
  <path
     d="m 130.88234,94.026789 0,4.08977 11.58767,0 0.0852,-1.70407 6.13464,0.34081 3.06732,-2.98212 34.5926,-0.1704 0.0852,14.654971 -10.56523,10.39482 -1.02244,0 -0.0852,-1.36326 -10.90604,0 0.0852,4.60099 11.16165,-0.25561 -0.0852,-1.10765 1.44846,-0.0852 11.50246,-11.50247 -0.1704,-17.040661 -36.97829,0.25561 -2.55611,2.89692 -5.70863,0 -0.0852,-1.02245 z"
     id="path4673-2"
     style="fill:#070000;fill-opacity:0.9;stroke:#000000;stroke-width:0.68522942px;stroke-linecap:butt;stroke-linejoin:miter;stroke-opacity:0" />
  <path
     d="m 130.79714,102.12111 -0.0852,4.17497 11.50247,-0.0852 0,-0.59643 13.29173,-0.17041 4.68619,-4.77138 19.08557,0 0.0852,7.8387 -2.64131,2.4709 c 0,0 -1.78927,0.68163 -1.70407,0.17041 0.0852,-0.51123 -0.17041,-1.44846 -0.17041,-1.44846 l -11.07645,0.17041 0.0852,3.83415 11.24685,-0.42602 0.17041,-1.02244 2.6413,0.0852 3.15254,-2.89691 0.1704,-10.820821 c 0,0 0.71138,0.0302 1.35596,-0.7852 0.56526,-0.71503 0.47197,-1.2422 0.22244,-2.19781 -0.25053,-0.95945 -0.61483,-1.51632 -2.77125,-1.61798 -1.32011,-0.0622 -2.38569,1.44846 -2.38569,1.44846 l -2.55611,0 0,-1.19285 -11.16165,0 -0.17041,3.83416 11.41726,-0.25561 -0.0852,-0.68163 2.30049,-0.17041 c 0,0 0.21598,0.83193 0.47466,1.16 0.31262,0.39651 1.22941,0.88488 1.22941,0.88488 l -19.9376,0.0852 -3.74895,4.260161 -13.03612,0.17041 0,-1.44846 z"
     id="path4675-8"
     style="fill:#070000;fill-opacity:0.9;stroke:#000000;stroke-width:0.68522942px;stroke-linecap:butt;stroke-linejoin:miter;stroke-opacity:0" />
  <path
     d="m 130.96754,109.78941 c 0,0.34081 -0.0852,4.34537 -0.0852,4.34537 l 11.24685,0.0852 0,-1.44846 13.37694,0.17041 6.98669,-7.41269 1.27804,-0.17041 0.34082,0.93724 10.99124,-0.25561 0.17041,-3.83416 -11.50247,0 0,1.44846 -1.70407,0.34082 -6.98668,7.07187 -12.6953,0.17041 -0.0852,-1.19285 z"
     id="path4677-2"
     style="fill:#070000;fill-opacity:0.9;stroke:#000000;stroke-width:0.68522942px;stroke-linecap:butt;stroke-linejoin:miter;stroke-opacity:0" />
  <path
     d="m 124.49208,129.21579 c 0.42602,0 4.51579,0.0852 4.51579,0.0852 l -0.17041,-4.9418 25.90184,0.0852 2.81172,3.15253 12.6953,0.59643 c 0,0 0.73868,1.68465 3.07278,1.68594 2.32611,0.001 2.20984,-2.79359 2.20984,-2.79359 0,0 0.69141,-2.37967 -2.38861,-2.78851 -1.95289,-0.25923 -2.6384,1.76607 -2.6384,1.76607 l -12.21938,-0.10588 -2.77642,-2.79104 -26.6291,-0.53189 0.0456,-6.28438 -4.34537,-0.17041 z"
     id="path4679-9"
     style="fill:#070000;fill-opacity:0.9;stroke:#000000;stroke-width:0.68522942px;stroke-linecap:butt;stroke-linejoin:miter;stroke-opacity:0" />
  <path
     d="m 117.67581,129.301 4.34537,0.0852 0,-13.20653 -1.31762,-0.0249 0.12477,-3.04236 7.15709,0 -0.17041,-19.937591 16.95549,-0.42601 4.68619,-4.174981 14.14377,0.511231 0.0852,1.19284 11.58767,-0.25561 -0.0852,-4.089761 -11.50246,0.25561 0.17041,1.02244 -15.42183,0 -3.74894,4.089771 -18.48915,0.25561 -0.17041,20.022781 -6.56066,0 -0.0998,4.76712 -1.77466,0.004 z"
     id="path4681-0"
     style="fill:#070000;fill-opacity:0.9;stroke:#000000;stroke-width:0.68522942px;stroke-linecap:butt;stroke-linejoin:miter;stroke-opacity:0" />
  <path
     d="m 13.41093,52.777439 12.234607,-0.4114 -0.120498,-1.08446 42.535049,-0.48199 1.08446,1.32546 c 0,0 -0.37506,3.02003 1.32549,4.12595 2.32233,1.51027 3.85583,-0.39058 3.85583,-0.39058 0,0 1.43016,-2.02305 -0.33029,-4.05032 -0.78349,-0.90223 -3.52558,-0.64902 -3.52558,-0.64902 l -1.56645,-1.56644 -43.619504,-0.241 0,-0.96396 -11.808593,0 z"
     id="path4713-6"
     style="fill:#070000;fill-opacity:0.9;stroke:#000000;stroke-width:0.68522942px;stroke-linecap:butt;stroke-linejoin:miter;stroke-opacity:0" />
  <path
     d="m 13.475451,59.957279 11.808593,-0.241 -0.120491,-1.44595 5.904294,-0.24098 c 0,0 0.509975,1.90293 2.443959,1.8068 2.55301,-0.12691 2.737364,-2.89127 2.737364,-2.89127 0,0 -0.381042,-2.63221 -2.999573,-2.6669 -1.625296,-0.0215 -2.061253,2.30542 -2.061253,2.30542 l -6.024791,0.24098 -0.120497,-0.84347 -11.411811,0.0499 z"
     id="path4715-6"
     style="fill:#070000;fill-opacity:0.9;stroke:#000000;stroke-width:0.68522942px;stroke-linecap:butt;stroke-linejoin:miter;stroke-opacity:0" />
  <path
     d="m 13.957434,63.813149 0,3.73537 11.447108,0 0,-1.20496 4.940333,-4.21736 13.616038,0.72298 2.409918,-3.25339 c 0,0 2.915627,1.00378 3.694837,-1.46617 0.73461,-2.32857 -1.7669,-3.59466 -1.7669,-3.59466 0,0 -2.402541,-0.57434 -3.490836,1.26398 -0.564416,0.95342 -0.244538,3.31487 -0.244538,3.31487 l -1.084464,1.92793 -13.857034,-0.24099 -4.57884,4.09686 0.120497,-1.32546 z"
     id="path4717-3"
     style="fill:#070000;fill-opacity:0.9;stroke:#000000;stroke-width:0.68522942px;stroke-linecap:butt;stroke-linejoin:miter;stroke-opacity:0" />
  <path
     d="m 13.716446,75.742239 11.447107,0.12049 0,-1.44595 1.683397,-0.13467 6.751312,-7.09508 21.809756,-0.12049 c 0,0 0.55045,2.28807 2.67055,1.9275 2.49154,-0.42375 2.19063,-3.09111 2.19063,-3.09111 0,0 0.0491,-2.36533 -2.54464,-2.39799 -1.78779,-0.0226 -2.55753,2.11564 -2.55753,2.11564 l -21.809761,0.1205 -6.873729,7.10352 -1.078996,0.48772 -0.120498,-1.44595 -11.567598,-0.24099 z"
     id="path4719-0"
     style="fill:#070000;fill-opacity:0.9;stroke:#000000;stroke-width:0.68522942px;stroke-linecap:butt;stroke-linejoin:miter;stroke-opacity:0" />
  <path
     d="m 13.836944,78.995628 -0.120498,3.49437 11.447107,0.1205 0.120491,-1.32545 1.700705,-0.22372 5.830289,-6.524049 8.253974,0.24099 c 0,0 1.129498,2.3434 2.933358,1.85349 2.399646,-0.65171 2.247963,-2.57647 2.247963,-2.57647 0,0 0.174049,-2.27529 -2.284534,-2.61996 -1.997889,-0.2801 -2.776289,1.77649 -2.776289,1.77649 l -9.157696,-0.12049 -5.904294,6.988749 -1.084464,0.1205 0,-1.44595 z"
     id="path4721-9"
     style="fill:#070000;fill-opacity:0.9;stroke:#000000;stroke-width:0.68522942px;stroke-linecap:butt;stroke-linejoin:miter;stroke-opacity:0" />
  <path
     d="m 66.074928,60.530519 4.99755,5.57205 19.64082,0.1205 c -0.0432,-0.004 0.66209,1.9525 2.35518,1.97752 2.96483,0.0438 3.06713,-2.58001 3.06713,-2.58001 0,0 -0.15412,-2.53972 -2.99133,-2.65903 -1.7732,-0.0746 -2.55147,1.69507 -2.55147,1.69507 l -18.67686,0 -4.70059,-5.43693 c 0,0 0.67366,-1.99915 -0.96353,-3.28474 -0.82272,-0.64603 -3.13207,-0.19502 -3.13207,-0.19502 0,0 -2.44042,1.95461 -0.49848,4.18153 1.21302,1.39101 3.45365,0.60906 3.45365,0.60906 z"
     id="path4723-0"
     style="fill:#070000;fill-opacity:0.9;stroke:#000000;stroke-width:0.68522942px;stroke-linecap:butt;stroke-linejoin:miter;stroke-opacity:0" />
  <path
     d="m 210.80899,54.127199 c 0,0 -0.11965,2.25577 -2.79945,2.19568 -3.04135,-0.0682 -2.98856,-1.68509 -2.98856,-1.68509 l -6.84912,0 -0.0965,1.19137 -13.02299,-0.2553 0.0965,-3.91448 12.92652,0.17019 0.0965,1.27647 6.75266,-1e-5 c 0,0 0.48069,-2.54301 3.42697,-2.00704 2.6521,0.48244 2.4575,3.02821 2.4575,3.02821 z"
     id="path4641-5-8"
     style="fill:#070000;fill-opacity:0.9;stroke:#000000;stroke-width:0.72866124px;stroke-linecap:butt;stroke-linejoin:miter;stroke-opacity:0" />
  <path
     d="m 210.6576,83.700568 c 0,0 -0.11966,2.25577 -2.79945,2.19568 -3.04135,-0.0682 -2.98856,-1.6851 -2.98856,-1.6851 l -6.84912,0 -0.0965,1.19137 -13.02298,-0.25529 0.0965,-3.91448 12.92651,0.17019 0.0965,1.27647 6.75266,-10e-6 c 0,0 0.4807,-2.54301 3.42698,-2.00704 2.65208,0.48244 2.4575,3.02821 2.4575,3.02821 z"
     id="path4641-5-2-4"
     style="fill:#070000;fill-opacity:0.9;stroke:#000000;stroke-width:0.72866124px;stroke-linecap:butt;stroke-linejoin:miter;stroke-opacity:0" />
  <path
     d="m 210.65761,73.484319 c 0,0 -0.11966,2.25577 -2.79945,2.19568 -3.04135,-0.0682 -2.98856,-1.6851 -2.98856,-1.6851 l -6.84913,0 -0.0965,1.19137 -13.02298,-0.25529 0.0965,-3.91448 12.92652,0.17019 0.0965,1.27647 6.75267,-1e-5 c 0,0 0.48069,-2.54301 3.42697,-2.00705 2.65208,0.48245 2.4575,3.02822 2.4575,3.02822 z"
     id="path4641-5-4-2"
     style="fill:#070000;fill-opacity:0.9;stroke:#000000;stroke-width:0.72866124px;stroke-linecap:butt;stroke-linejoin:miter;stroke-opacity:0" />
  <path
     d="m 210.04807,62.730379 c 0,0 -0.11966,2.25576 -2.79945,2.19568 -3.04135,-0.0682 -2.98856,-1.6851 -2.98856,-1.6851 l -6.84912,0 -0.0965,1.19136 -13.02298,-0.25529 0.0965,-3.91448 12.92652,0.17019 0.0965,1.27647 6.75267,-1e-5 c 0,0 0.48069,-2.54301 3.42697,-2.00704 2.65208,0.48244 2.4575,3.02822 2.4575,3.02822 z"
     id="path4641-5-1-3"
     style="fill:#070000;fill-opacity:0.9;stroke:#000000;stroke-width:0.72866124px;stroke-linecap:butt;stroke-linejoin:miter;stroke-opacity:0" />
  <path
     d="m 71.694318,44.158399 0.17041,-12.439707 -1.02245,0 -0.1704,-1.87448 6.81627,-6.81627 73.615762,0.1704 13.80296,13.97337 0.0852,1.95968 -1.27805,0.0852 0,12.610097 4.9418,-0.17041 -0.34081,-12.439687 -1.61887,-0.17041 0.0852,-2.04488 -15.67743,-15.50703 -74.808612,0.34081 -7.15708,7.15709 0.25561,2.98213 -1.10765,-0.0852 -0.17041,12.098887 z"
     id="path4808-3"
     style="fill:#070000;fill-opacity:0.9;stroke:#000000;stroke-width:0.68522942px;stroke-linecap:butt;stroke-linejoin:miter;stroke-opacity:0" />
  <path
     d="m 61.129088,44.328799 c 0,0 3.74895,0.68163 3.91936,0 0.17041,-0.68163 0,-12.610107 0,-12.610107 l -1.53366,-0.17041 0.17041,-1.87447 10.56522,-10.90604 80.602442,-0.34082 17.89273,17.55191 0.1704,3.32294 -1.36325,-0.0852 -0.51122,12.269287 4.43058,0 -0.17041,-12.610107 -1.36325,0.25561 -0.17041,-3.49334 -18.40394,-18.23353 -81.624892,-0.68163 -11.24685,11.58766 -0.0852,3.23773 -1.27805,0.17041 z"
     id="path4810-7"
     style="fill:#070000;fill-opacity:0.9;stroke:#000000;stroke-width:0.68522942px;stroke-linecap:butt;stroke-linejoin:miter;stroke-opacity:0" />
  <path
     d="m 32.344689,83.388238 0,3.73537 11.44711,0 0,-1.20496 4.940329,-4.21735 13.61603,0.72297 2.40992,-3.25338 c 0,0 2.91563,1.00377 3.69484,-1.466179 0.73461,-2.32857 -1.7669,-3.59465 -1.7669,-3.59465 0,0 -2.40254,-0.57435 -3.49084,1.26398 -0.56441,0.95341 -0.24454,3.314859 -0.24454,3.314859 l -1.08446,1.92794 -13.85703,-0.241 -4.578835,4.09686 0.120497,-1.32545 z"
     id="path4717-5-6"
     style="fill:#070000;fill-opacity:0.9;stroke:#000000;stroke-width:0.68522942px;stroke-linecap:butt;stroke-linejoin:miter;stroke-opacity:0" />
  <path
     d="m 185.79565,28.572842 0.12053,15.182477 13.49553,-0.12049 0.241,-7.109257 5.03068,-0.0904 c 0,0 0.39291,1.80814 2.57194,1.71484 2.4597,-0.10531 2.51904,-2.88968 2.51904,-2.88968 0,0 -0.0644,-2.14858 -2.53076,-2.30865 -1.98463,-0.12879 -2.53007,1.88692 -2.53007,1.88692 l -5.03068,0.36149 -0.0301,-6.38628 z"
     id="path4851-7"
     style="fill:#070000;fill-opacity:0.9;stroke:#000000;stroke-width:0.68522942px;stroke-linecap:butt;stroke-linejoin:miter;stroke-opacity:0" />
  <path
     d="m 93.782168,120.62131 3.37387,-0.12049 0,1.68694 c 0,0 -2.45196,0.5622 -2.21597,3.01924 0.23894,2.48702 2.57743,2.64406 2.57743,2.64406 0,0 2.539522,-0.11897 2.865632,-2.64998 0.28457,-2.20917 -1.540132,-2.77233 -1.540132,-2.77233 l -0.24099,-1.92793 8.193702,-0.1205 -0.12047,-14.94147 -13.013602,0.36149 z"
     id="path4853-2"
     style="fill:#070000;fill-opacity:0.9;stroke:#000000;stroke-width:0.68522942px;stroke-linecap:butt;stroke-linejoin:miter;stroke-opacity:0" />
  <path
     d="m 29.645783,96.305449 0,4.089771 11.587677,0 0.08521,-1.704071 6.13464,0.34081 3.067328,-2.98212 34.59259,-0.1704 0.0852,14.654971 -10.56522,10.39482 -1.02244,0 -0.0852,-1.36325 -10.90603,0 0.0852,4.60098 11.16165,-0.25561 -0.0852,-1.10765 1.44845,-0.0852 11.50246,-11.50246 -0.17041,-17.040671 -36.97828,0.25561 -2.556102,2.89692 -5.708633,0 -0.08521,-1.02245 z"
     id="path4673-8-6"
     style="fill:#070000;fill-opacity:0.9;stroke:#000000;stroke-width:0.68522942px;stroke-linecap:butt;stroke-linejoin:miter;stroke-opacity:0" />
  <path
     d="m 29.560582,104.39977 -0.08521,4.17496 11.502476,-0.0852 0,-0.59642 13.29174,-0.17041 4.68619,-4.77138 19.08556,0 0.0852,7.8387 -2.6413,2.4709 c 0,0 -1.78928,0.68163 -1.70407,0.17041 0.0852,-0.51122 -0.17041,-1.44846 -0.17041,-1.44846 l -11.07645,0.17041 0.0852,3.83415 11.24686,-0.42602 0.17041,-1.02244 2.6413,0.0852 3.15253,-2.89692 0.1704,-10.82082 c 0,0 0.71138,0.0302 1.35597,-0.7852 0.56525,-0.715031 0.47196,-1.242201 0.22244,-2.197811 -0.25053,-0.95944 -0.61484,-1.51632 -2.77125,-1.61798 -1.32012,-0.0622 -2.3857,1.44846 -2.3857,1.44846 l -2.5561,0 0,-1.19285 -11.16165,0 -0.17041,3.834161 11.41726,-0.25561 -0.0852,-0.681631 2.30049,-0.17041 c 0,0 0.21598,0.831931 0.47465,1.160011 0.31262,0.3965 1.22942,0.88487 1.22942,0.88487 l -19.93761,0.0852 -3.74895,4.26016 -13.03612,0.17041 0,-1.44846 z"
     id="path4675-5-8"
     style="fill:#070000;fill-opacity:0.9;stroke:#000000;stroke-width:0.68522942px;stroke-linecap:butt;stroke-linejoin:miter;stroke-opacity:0" />
  <path
     d="m 29.730984,112.06807 c 0,0.34081 -0.0852,4.34538 -0.0852,4.34538 l 11.246865,0.0852 0,-1.44846 13.376939,0.17041 6.98668,-7.4127 1.27805,-0.17041 0.34081,0.93724 10.99125,-0.25561 0.17041,-3.83414 -11.50247,0 0,1.44845 -1.70407,0.34082 -6.98668,7.07188 -12.695308,0.1704 -0.08521,-1.19285 z"
     id="path4677-1-0"
     style="fill:#070000;fill-opacity:0.9;stroke:#000000;stroke-width:0.68522942px;stroke-linecap:butt;stroke-linejoin:miter;stroke-opacity:0" />
  <path
     d="m 23.255525,131.49446 c 0.426021,0 4.515786,0.0852 4.515786,0.0852 l -0.17041,-4.9418 25.901857,0.0852 2.81171,3.15252 12.69531,0.59643 c 0,0 0.73868,1.68465 3.07277,1.68594 2.32612,0.001 2.20985,-2.79359 2.20985,-2.79359 0,0 0.69141,-2.37967 -2.38862,-2.78851 -1.95289,-0.25923 -2.63839,1.76607 -2.63839,1.76607 l -12.21938,-0.10588 -2.77642,-2.79104 -26.629115,-0.53189 0.04564,-6.28438 -4.345376,-0.17041 z"
     id="path4679-3-1"
     style="fill:#070000;fill-opacity:0.9;stroke:#000000;stroke-width:0.68522942px;stroke-linecap:butt;stroke-linejoin:miter;stroke-opacity:0" />
  <path
     d="m 16.439253,131.57966 4.345376,0.0852 0,-13.20654 -1.317628,-0.0249 0.124774,-3.04237 7.157091,0 -0.17041,-19.937591 16.955498,-0.42601 4.686184,-4.17497 14.14378,0.51122 0.0852,1.19285 11.58767,-0.25562 -0.0852,-4.089761 -11.50246,0.25561 0.1704,1.022451 -15.421821,0 -3.748945,4.08976 -18.489157,0.25561 -0.17041,20.022791 -6.560661,0 -0.09982,4.76711 -1.774655,0.004 z"
     id="path4681-7-2"
     style="fill:#070000;fill-opacity:0.9;stroke:#000000;stroke-width:0.68522942px;stroke-linecap:butt;stroke-linejoin:miter;stroke-opacity:0" />
  <path
     d="m 26.697035,39.806352 11.808595,-0.24099 -0.12049,-1.44595 5.904293,-0.24099 c 0,0 0.509975,1.90294 2.44396,1.8068 2.553005,-0.12691 2.737365,-2.89127 2.737365,-2.89127 0,0 -0.38105,-2.6322 -2.999575,-2.66689 -1.625296,-0.0215 -2.061252,2.30541 -2.061252,2.30541 l -6.024791,0.24099 -0.120498,-0.84347 -11.411813,0.0499 z"
     id="path4715-3-4"
     style="fill:#070000;fill-opacity:0.9;stroke:#000000;stroke-width:0.68522942px;stroke-linecap:butt;stroke-linejoin:miter;stroke-opacity:0" />
  <path
     d="m 26.697035,29.039012 11.808595,-0.24099 -0.12049,-1.44596 5.904293,-0.24098 c 0,0 0.509975,1.90293 2.44396,1.8068 2.553005,-0.12691 2.737365,-2.89127 2.737365,-2.89127 0,0 -0.38105,-2.6322 -2.999575,-2.6669 -1.625296,-0.0215 -2.061252,2.30542 -2.061252,2.30542 l -6.024791,0.24098 -0.120498,-0.84347 -11.411813,0.0499 z"
     id="path4715-3-3-6"
     style="fill:#070000;fill-opacity:0.9;stroke:#000000;stroke-width:0.68522942px;stroke-linecap:butt;stroke-linejoin:miter;stroke-opacity:0" />
  <path
     d="m 26.697035,18.810042 11.808595,-0.241 -0.12049,-1.44595 5.904293,-0.24099 c 0,0 0.509975,1.90294 2.44396,1.8068 2.553005,-0.1269 2.737365,-2.89126 2.737365,-2.89126 0,0 -0.38105,-2.63221 -2.999575,-2.6669 -1.625296,-0.0215 -2.061252,2.30541 -2.061252,2.30541 l -6.024791,0.24099 -0.120498,-0.84347 -11.411813,0.0499 z"
     id="path4715-3-3-3-5"
     style="fill:#070000;fill-opacity:0.9;stroke:#000000;stroke-width:0.68522942px;stroke-linecap:butt;stroke-linejoin:miter;stroke-opacity:0" />
  <path
     d="m 106.55535,60.333739 c 0,0 -12.089192,9.19393 -7.692022,8.8273 2.989052,-0.24922 9.297562,-0.32213 9.297562,-0.32213 l -15.795412,9.451279 c 0,0 -1.7665,-0.513439 -2.82643,0.60566 -1.2748,1.34598 -0.47106,3.56669 -0.47106,3.56669 0,0 1.87651,0.89382 3.15923,0.59141 1.71136,-0.40347 2.08984,-1.93733 2.08984,-1.93733 0,0 24.908752,-13.552079 24.141742,-14.396539 -1.08562,-1.19524 -11.62161,-0.96703 -13.17168,-0.75939 -2.61145,0.34982 3.83504,-4.62907 3.83504,-4.62907 0,0 2.10356,-0.38538 2.95225,-1.81952 0.90386,-1.52736 -1.40939,-2.46769 -1.96871,-2.54894 -0.84062,-0.12211 -2.42538,-0.22327 -3.34766,1.61053 -0.62269,1.23813 -0.20269,1.76005 -0.20269,1.76005 z"
     id="path3157"
     style="fill:#00aad4;fill-opacity:1;stroke:#000000;stroke-width:0.68522942;stroke-opacity:0" />
  <path
     d="m 121.85368,56.156609 3.45881,0.67774 4.53553,0.84499 -0.39223,14.5034 3.03392,1.10543 c 0,0 1.44249,-0.91591 2.75745,0.21997 1.20755,1.04311 0.23425,2.34486 0.23425,2.34486 0,0 -0.64759,1.6771 -2.62794,0.82704 -1.14829,-0.4929 -1.29238,-2.02006 -1.29238,-2.02006 l -6.18609,-2.134 0.57102,-13.60941 -4.94888,-1.14205 c 0,0 -1.17107,0.70553 -2.41958,-0.0317 -2.08192,-1.22928 -0.42598,-3.05802 -0.42598,-3.05802 0,0 1.11323,-1.01102 2.64757,-0.39746 1.4912,0.59632 1.05453,1.86923 1.05453,1.86923 z"
     id="path3159"
     style="fill:#00aad4;fill-opacity:1;stroke:#000000;stroke-width:0.68522942px;stroke-linecap:butt;stroke-linejoin:miter;stroke-opacity:0" />
  <path
     d="m 151.58388,78.656548 c 0,0 -0.81877,1.26007 -3.28689,0.88599 -2.81061,-0.42599 -2.97641,-2.006639 -2.97641,-2.006639 l -7.02212,-3.65641 -0.46428,-14.17648 3.77263,-2.85908 c 0,0 0.0685,-0.84443 2.12948,-1.90321 1.73563,-0.89162 3.74839,0.0855 3.74839,0.0855 0,0 1.73966,0.77352 1.30324,2.31537 -0.56813,2.00714 -2.74531,2.19093 -2.74531,2.19093 l -2.29047,1.88791 0.0861,10.25132 4.61691,3.0957 c 0,0 2.18453,-0.40183 3.40547,0.87393 1.45817,1.52363 -0.27667,3.015119 -0.27667,3.015119 z"
     id="path3161"
     style="fill:#00aad4;fill-opacity:1;stroke:#000000;stroke-width:0.60147238px;stroke-linecap:butt;stroke-linejoin:miter;stroke-opacity:0" />
  <path
     d="m 155.05186,78.677298 c 0,0 -0.35185,-1.355199 0.71302,-2.264289 1.73251,-1.47906 2.8083,-0.11497 2.8083,-0.11497 l 2.85512,-0.57103 3.33098,-17.22591 3.71166,-3.14063 c 0,0 0.42458,-2.1103 1.87037,-2.30222 1.79579,-0.23839 2.69782,0.96983 2.69782,0.96983 0,0 0.92412,0.82892 0.37338,2.47042 -0.45,1.34121 -2.46714,1.33641 -2.46714,1.33641 l -2.66478,1.80824 -2.85512,16.94039 -6.28127,2.093759 c 0,0 -0.49451,1.2494 -2.18892,1.23723 -1.61318,-0.0116 -1.90342,-1.23723 -1.90342,-1.23723 z"
     id="path3931"
     style="fill:#00aad4;fill-opacity:1;stroke:#000000;stroke-width:0.68522942px;stroke-linecap:butt;stroke-linejoin:miter;stroke-opacity:0" />
  <path
     d="m 177.7802,82.500538 c 0,0 0.69356,-0.33266 0.76825,-1.09383 0.12633,-1.28723 -0.56619,-1.55764 -0.56619,-1.55764 l -4.38606,-14.870729 -2.28931,-0.96081 c 0,0 -0.23912,-1.40815 -0.80872,-1.66702 -1.59244,-0.72372 -2.24083,0.34085 -2.24083,0.34085 0,0 -0.73132,0.74921 0.2226,2.05378 0.38393,0.52506 1.90407,0.52299 1.90407,0.52299 l 1.5236,0.90551 4.06468,14.036819 c 0,0 -0.37773,0.72473 0.0997,1.55438 0.60277,1.04741 1.70819,0.7357 1.70819,0.7357 z"
     id="path3933"
     style="fill:#00aad4;fill-opacity:1;stroke:#000000;stroke-width:0.42764407px;stroke-linecap:butt;stroke-linejoin:miter;stroke-opacity:0" />
  <path
     d="m 88.530288,53.037059 0.12049,4.09686 11.447112,-0.1205 0,-1.32546 8.6757,-0.12049 10.72413,-11.32661 16.62843,0 0,5.42231 3.85586,0.12049 0,-12.652057 -3.85586,0 0,4.94033 -17.23091,0.602477 -11.20612,11.20612 -7.22975,0.1205 -0.36148,-1.20497 z"
     id="path4094"
     style="fill:#cccccc;fill-opacity:1;stroke:#000000;stroke-width:0.68522942px;stroke-linecap:butt;stroke-linejoin:miter;stroke-opacity:0" />
  <path
     d="m 88.530288,49.181189 11.326611,0.12049 0.0499,-1.58106 10.433231,0.25561 14.70049,-14.700497 15.78496,0 3.37388,2.65092 -0.1205,1.32545 -1.44595,0 0.1205,12.411067 4.33785,0.12049 -0.24099,-12.652057 -1.20496,0.1205 0,-1.92794 -3.97636,-3.85586 -17.3514,0.12049 -14.4595,14.700497 -10.015781,-0.1278 0.0146,-1.55915 -11.198811,0.1132 z"
     id="path4604"
     style="fill:#cccccc;fill-opacity:1;stroke:#000000;stroke-width:0.68522942px;stroke-linecap:butt;stroke-linejoin:miter;stroke-opacity:0" />
  <path
     d="m 82.539458,42.511989 4.00457,0.0852 0.0852,-6.219857 26.668682,-0.1704 7.15708,-7.24229 23.60135,-0.17041 6.7703,6.77091 0.15579,1.51048 -1.24025,0.17647 0,12.170077 4.19776,-0.17912 -0.1704,-12.013677 -1.36326,-0.17041 -0.34081,-2.21529 -7.58311,-7.4979 -24.709,0.0852 -6.90148,7.15709 -26.157452,0.17041 0.17041,-5.19741 -4.00456,0 z"
     id="path4606"
     style="fill:#cccccc;fill-opacity:1;stroke:#000000;stroke-width:0.68522942px;stroke-linecap:butt;stroke-linejoin:miter;stroke-opacity:0" />
  <path
     d="m 75.576978,42.373179 4.15711,0.12049 0.0602,-12.350817 -1.44595,-0.1205 0.0602,-2.10868 2.6509,-2.71116 67.055942,0.0602 9.88066,9.88066 0.3262,1.87197 -1.15504,0.0602 0.0456,12.888777 4.2776,-0.0602 -0.18074,-13.073797 -1.74719,0 0,-2.10868 -10.84463,-11.02537 -68.260902,0.0602 -3.73537,3.91612 0.0602,2.16892 -1.08447,0 z"
     id="path4608"
     style="fill:#cccccc;fill-opacity:1;stroke:#000000;stroke-width:0.68522942px;stroke-linecap:butt;stroke-linejoin:miter;stroke-opacity:0" />
  <path
     d="m 167.28011,69.418009 0,1.83997 4.87992,-0.16 -0.08,-1.75996 z"
     id="path4637"
     style="fill:#00aad4;fill-opacity:1;stroke:#000000;stroke-width:0.28799516px;stroke-linecap:butt;stroke-linejoin:miter;stroke-opacity:0" />
  <path
     d="m 83.975238,89.801279 11.75263,0.12049 -0.0207,-1.566441 8.696382,0.24099 6.86827,-7.59124 6.33031,-0.17041 -0.18502,1.61636 10.84463,0 0.12049,-3.85587 -10.96512,-0.36148 0.12049,1.32545 -6.86826,0 -6.98877,7.22975 -8.137742,0.6171 0.0499,-1.64559 -11.43248,-0.056 z"
     id="path4639"
     style="fill:#cccccc;fill-opacity:1;stroke:#000000;stroke-width:0.68522942px;stroke-linecap:butt;stroke-linejoin:miter;stroke-opacity:0" />
  <path
     d="m 100.47567,96.099199 c 0,0 0.10569,2.25858 2.4726,2.19841 2.68625,-0.0682 2.63962,-1.68719 2.63962,-1.68719 l 6.04944,0 0.0852,1.19285 11.50246,-0.25561 -0.0852,-3.91936 -11.41725,0.17041 -0.0852,1.27805 -5.96424,0 c 0,0 -0.42457,-2.54618 -3.02685,-2.00955 -2.34244,0.48305 -2.17057,3.03199 -2.17057,3.03199 z"
     id="path4641"
     style="fill:#cccccc;fill-opacity:1;stroke:#000000;stroke-width:0.68522942px;stroke-linecap:butt;stroke-linejoin:miter;stroke-opacity:0" />
  <path
     d="m 131.11549,91.822419 0,4.08976 11.58767,0 0.0852,-1.70407 6.13464,0.34081 3.06733,-2.98212 34.5926,-0.1704 0.0852,14.654981 -10.56523,10.39481 -1.02244,0 -0.0852,-1.36325 -10.90604,0 0.0852,4.60098 11.16165,-0.25561 -0.0852,-1.10764 1.44846,-0.0852 11.50246,-11.50247 -0.1704,-17.040671 -36.9783,0.25561 -2.5561,2.89692 -5.70863,0 -0.0852,-1.02244 z"
     id="path4673"
     style="fill:#cccccc;fill-opacity:1;stroke:#000000;stroke-width:0.68522942px;stroke-linecap:butt;stroke-linejoin:miter;stroke-opacity:0" />
  <path
     d="m 131.03029,99.916739 -0.0852,4.174961 11.50247,-0.0852 0,-0.59642 13.29173,-0.17041 4.68619,-4.771391 19.08557,0 0.0852,7.838711 -2.64131,2.47089 c 0,0 -1.78927,0.68163 -1.70407,0.17041 0.0852,-0.51122 -0.17041,-1.44846 -0.17041,-1.44846 l -11.07645,0.17041 0.0852,3.83415 11.24686,-0.42602 0.17041,-1.02243 2.6413,0.0852 3.15253,-2.89692 0.17041,-10.820821 c 0,0 0.71138,0.0302 1.35596,-0.7852 0.56526,-0.71503 0.47197,-1.2422 0.22244,-2.19781 -0.25053,-0.95944 -0.61483,-1.51631 -2.77125,-1.61797 -1.32011,-0.0622 -2.38569,1.44845 -2.38569,1.44845 l -2.55611,0 0,-1.19284 -11.16165,0 -0.17041,3.83415 11.41726,-0.25561 -0.0852,-0.68163 2.30049,-0.17041 c 0,0 0.21598,0.83193 0.47466,1.16001 0.31262,0.3965 1.22941,0.88488 1.22941,0.88488 l -19.9376,0.0852 -3.74896,4.260171 -13.03612,0.1704 0,-1.448451 z"
     id="path4675"
     style="fill:#cccccc;fill-opacity:1;stroke:#000000;stroke-width:0.68522942px;stroke-linecap:butt;stroke-linejoin:miter;stroke-opacity:0" />
  <path
     d="m 131.20069,107.58503 c 0,0.34082 -0.0852,4.34538 -0.0852,4.34538 l 11.24685,0.0852 0,-1.44846 13.37694,0.17041 6.98668,-7.41268 1.27805,-0.17041 0.34082,0.93723 10.99124,-0.25561 0.17041,-3.83415 -11.50247,0 0,1.44846 -1.70407,0.34081 -6.98668,7.07188 -12.69531,0.1704 -0.0852,-1.19285 z"
     id="path4677"
     style="fill:#cccccc;fill-opacity:1;stroke:#000000;stroke-width:0.68522942px;stroke-linecap:butt;stroke-linejoin:miter;stroke-opacity:0" />
  <path
     d="m 124.72523,127.01142 c 0.42602,0 4.51579,0.0852 4.51579,0.0852 l -0.17041,-4.9418 25.90184,0.0852 2.81172,3.15252 12.6953,0.59643 c 0,0 0.73868,1.68465 3.07278,1.68595 2.32611,0.001 2.20984,-2.7936 2.20984,-2.7936 0,0 0.69141,-2.37967 -2.38861,-2.78851 -1.95289,-0.25923 -2.6384,1.76607 -2.6384,1.76607 l -12.21938,-0.10588 -2.77642,-2.79104 -26.6291,-0.53189 0.0456,-6.28438 -4.34537,-0.17041 z"
     id="path4679"
     style="fill:#cccccc;fill-opacity:1;stroke:#000000;stroke-width:0.68522942px;stroke-linecap:butt;stroke-linejoin:miter;stroke-opacity:0" />
  <path
     d="m 117.90896,127.09662 4.34537,0.0852 0,-13.20654 -1.31762,-0.0249 0.12477,-3.04237 7.15709,0 -0.17041,-19.937591 16.95549,-0.42601 4.68619,-4.174971 14.14377,0.51122 0.0852,1.19285 11.58767,-0.25561 -0.0852,-4.08977 -11.50246,0.25561 0.1704,1.02245 -15.42182,0 -3.74894,4.089761 -18.48915,0.25561 -0.17041,20.022791 -6.56066,0 -0.0998,4.76711 -1.77465,0.004 z"
     id="path4681"
     style="fill:#cccccc;fill-opacity:1;stroke:#000000;stroke-width:0.68522942px;stroke-linecap:butt;stroke-linejoin:miter;stroke-opacity:0" />
  <path
     d="m 13.644078,50.573059 12.234608,-0.4114 -0.120498,-1.08446 42.53504,-0.48198 1.08446,1.32545 c 0,0 -0.37506,3.02003 1.3255,4.12595 2.32232,1.51027 3.85582,-0.39057 3.85582,-0.39057 0,0 1.43017,-2.02306 -0.33029,-4.05033 -0.78349,-0.90222 -3.52557,-0.64902 -3.52557,-0.64902 l -1.56645,-1.56644 -43.619505,-0.24099 0,-0.96397 -11.808593,0 z"
     id="path4713"
     style="fill:#cccccc;fill-opacity:1;stroke:#004ddd;stroke-width:0.68522942px;stroke-linecap:butt;stroke-linejoin:miter;stroke-opacity:0" />
  <path
     d="m 13.7086,57.752899 11.808593,-0.24099 -0.120491,-1.44595 5.904293,-0.24099 c 0,0 0.509975,1.90294 2.44396,1.8068 2.553007,-0.12691 2.737362,-2.89127 2.737362,-2.89127 0,0 -0.381043,-2.6322 -2.999572,-2.66689 -1.625296,-0.0215 -2.061252,2.30541 -2.061252,2.30541 l -6.024791,0.24099 -0.120498,-0.84347 -11.411811,0.0499 z"
     id="path4715"
     style="fill:#cccccc;fill-opacity:1;stroke:#004ddd;stroke-width:0.68522942px;stroke-linecap:butt;stroke-linejoin:miter;stroke-opacity:0" />
  <path
     d="m 14.190583,61.608769 0,3.73537 11.447107,0 0,-1.20496 4.940333,-4.21735 13.616033,0.72297 2.409918,-3.25338 c 0,0 2.915634,1.00377 3.694834,-1.46618 0.73461,-2.32857 -1.7669,-3.59465 -1.7669,-3.59465 0,0 -2.402538,-0.57435 -3.490833,1.26398 -0.564417,0.95341 -0.244538,3.31486 -0.244538,3.31486 l -1.084465,1.92794 -13.857027,-0.241 -4.578841,4.09686 0.120498,-1.32545 z"
     id="path4717"
     style="fill:#cccccc;fill-opacity:1;stroke:#004ddd;stroke-width:0.68522942px;stroke-linecap:butt;stroke-linejoin:miter;stroke-opacity:0" />
  <path
     d="m 13.949595,73.537859 11.447107,0.12049 0,-1.44595 1.683396,-0.13467 6.751312,-7.09507 21.809758,-0.1205 c 0,0 0.55045,2.28808 2.67054,1.9275 2.49154,-0.42375 2.19064,-3.09111 2.19064,-3.09111 0,0 0.0491,-2.36532 -2.54465,-2.39799 -1.78779,-0.0225 -2.55753,2.11565 -2.55753,2.11565 l -21.809753,0.1205 -6.873728,7.10352 -1.078997,0.48772 -0.120497,-1.44596 -11.567598,-0.24099 z"
     id="path4719"
     style="fill:#cccccc;fill-opacity:1;stroke:#004ddd;stroke-width:0.68522942px;stroke-linecap:butt;stroke-linejoin:miter;stroke-opacity:0" />
  <path
     d="m 14.070092,76.791249 -0.120497,3.494379 11.447107,0.12049 0.120491,-1.32545 1.700705,-0.22372 5.830288,-6.524049 8.253969,0.241 c 0,0 1.129498,2.34339 2.933357,1.85349 2.399646,-0.65171 2.247964,-2.57647 2.247964,-2.57647 0,0 0.174048,-2.27529 -2.284534,-2.61997 -1.99789,-0.2801 -2.77629,1.7765 -2.77629,1.7765 l -9.15769,-0.1205 -5.904293,6.988759 -1.084465,0.1205 0,-1.445959 z"
     id="path4721"
     style="fill:#cccccc;fill-opacity:1;stroke:#004ddd;stroke-width:0.68522942px;stroke-linecap:butt;stroke-linejoin:miter;stroke-opacity:0" />
  <path
     d="m 66.308078,58.326149 4.99755,5.57204 19.64082,0.1205 c -0.0432,-0.004 0.66209,1.95251 2.35518,1.97752 2.96483,0.0438 3.06713,-2.58 3.06713,-2.58 0,0 -0.15413,-2.53972 -2.99133,-2.65903 -1.7732,-0.0746 -2.55147,1.69506 -2.55147,1.69506 l -18.67686,0 -4.7006,-5.43693 c 0,0 0.67366,-1.99914 -0.96353,-3.28474 -0.82271,-0.64602 -3.13207,-0.19502 -3.13207,-0.19502 0,0 -2.44042,1.95462 -0.49848,4.18153 1.21302,1.39102 3.45366,0.60907 3.45366,0.60907 z"
     id="path4723"
     style="fill:#cccccc;fill-opacity:1;stroke:#000000;stroke-width:0.68522942px;stroke-linecap:butt;stroke-linejoin:miter;stroke-opacity:0" />
  <path
     d="m 211.04214,51.922829 c 0,0 -0.11965,2.25577 -2.79945,2.19568 -3.04135,-0.0682 -2.98856,-1.6851 -2.98856,-1.6851 l -6.84912,0 -0.0965,1.19137 -13.02299,-0.2553 0.0965,-3.91447 12.92652,0.17019 0.0965,1.27646 6.75266,0 c 0,0 0.48069,-2.54301 3.42697,-2.00705 2.65209,0.48245 2.4575,3.02822 2.4575,3.02822 z"
     id="path4641-5"
     style="fill:#cccccc;fill-opacity:1;stroke:#000000;stroke-width:0.72866124px;stroke-linecap:butt;stroke-linejoin:miter;stroke-opacity:0" />
  <path
     d="m 210.89075,81.496188 c 0,0 -0.11966,2.25577 -2.79945,2.19568 -3.04135,-0.0682 -2.98856,-1.68509 -2.98856,-1.68509 l -6.84912,0 -0.0965,1.19137 -13.02298,-0.2553 0.0965,-3.91448 12.92651,0.17019 0.0965,1.27647 6.75266,-10e-6 c 0,0 0.4807,-2.54301 3.42698,-2.00704 2.65208,0.48244 2.4575,3.02821 2.4575,3.02821 z"
     id="path4641-5-2"
     style="fill:#cccccc;fill-opacity:1;stroke:#000000;stroke-width:0.72866124px;stroke-linecap:butt;stroke-linejoin:miter;stroke-opacity:0" />
  <path
     d="m 210.89076,71.279939 c 0,0 -0.11966,2.25577 -2.79945,2.19568 -3.04135,-0.0682 -2.98856,-1.68509 -2.98856,-1.68509 l -6.84913,0 -0.0965,1.19136 -13.02298,-0.25529 0.0965,-3.91448 12.92652,0.17019 0.0965,1.27647 6.75267,-1e-5 c 0,0 0.48068,-2.54301 3.42697,-2.00705 2.65208,0.48245 2.4575,3.02822 2.4575,3.02822 z"
     id="path4641-5-4"
     style="fill:#cccccc;fill-opacity:1;stroke:#000000;stroke-width:0.72866124px;stroke-linecap:butt;stroke-linejoin:miter;stroke-opacity:0" />
  <path
     d="m 210.28122,60.525999 c 0,0 -0.11966,2.25577 -2.79945,2.19568 -3.04135,-0.0682 -2.98856,-1.6851 -2.98856,-1.6851 l -6.84912,0 -0.0965,1.19137 -13.02298,-0.25529 0.0965,-3.91449 12.92652,0.17019 0.0965,1.27647 6.75267,-1e-5 c 0,0 0.48069,-2.54301 3.42697,-2.00704 2.65208,0.48244 2.4575,3.02822 2.4575,3.02822 z"
     id="path4641-5-1"
     style="fill:#cccccc;fill-opacity:1;stroke:#000000;stroke-width:0.72866124px;stroke-linecap:butt;stroke-linejoin:miter;stroke-opacity:0" />
  <path
     d="m 71.927458,41.954022 0.17041,-12.4397 -1.02245,0 -0.1704,-1.87448 6.81627,-6.81627 73.615772,0.1704 13.80296,13.97337 0.0852,1.95967 -1.27805,0.0852 0,12.610107 4.9418,-0.17041 -0.34081,-12.439697 -1.61887,-0.17041 0.0852,-2.04488 -15.67743,-15.50702 -74.808612,0.34081 -7.15709,7.15709 0.25561,2.98212 -1.10764,-0.0852 -0.17041,12.09889 z"
     id="path4808"
     style="fill:#cccccc;fill-opacity:1;stroke:#000000;stroke-width:0.68522942px;stroke-linecap:butt;stroke-linejoin:miter;stroke-opacity:0" />
  <path
     d="m 61.362228,42.124422 c 0,0 3.74896,0.681637 3.91937,0 0.1704,-0.68162 0,-12.6101 0,-12.6101 l -1.53367,-0.17041 0.17041,-1.87447 10.56522,-10.90605 80.602452,-0.34081 17.89273,17.5519 0.1704,3.32294 -1.36325,-0.0852 -0.51122,12.269287 4.43058,0 -0.17041,-12.610107 -1.36325,0.25561 -0.17041,-3.49334 -18.40394,-18.23353 -81.624902,-0.68163 -11.24685,11.58767 -0.0852,3.23773 -1.27805,0.17041 z"
     id="path4810"
     style="fill:#cccccc;fill-opacity:1;stroke:#000000;stroke-width:0.68522942px;stroke-linecap:butt;stroke-linejoin:miter;stroke-opacity:0" />
  <path
     d="m 32.577837,81.183868 0,3.73537 11.447104,0 0,-1.20497 4.940337,-4.21735 13.61603,0.72298 2.40991,-3.253389 c 0,0 2.91563,1.003769 3.69484,-1.46618 0.73461,-2.32856 -1.7669,-3.59465 -1.7669,-3.59465 0,0 -2.40254,-0.57435 -3.49084,1.26398 -0.56441,0.95342 -0.24453,3.31487 -0.24453,3.31487 l -1.08447,1.927929 -13.85702,-0.24099 -4.578843,4.09685 0.120498,-1.32545 z"
     id="path4717-5"
     style="fill:#cccccc;fill-opacity:1;stroke:#004ddd;stroke-width:0.68522942px;stroke-linecap:butt;stroke-linejoin:miter;stroke-opacity:0" />
  <path
     d="m 186.0288,26.368472 0.12053,15.18248 13.49553,-0.1205 0.24099,-7.10926 5.03068,-0.0904 c 0,0 0.39292,1.80815 2.57195,1.71485 2.45969,-0.10532 2.51904,-2.88969 2.51904,-2.88969 0,0 -0.0644,-2.14858 -2.53076,-2.30864 -1.98463,-0.12879 -2.53007,1.88691 -2.53007,1.88691 l -5.03069,0.36149 -0.0301,-6.38628 z"
     id="path4851"
     style="fill:#cccccc;fill-opacity:1;stroke:#000000;stroke-width:0.68522942px;stroke-linecap:butt;stroke-linejoin:miter;stroke-opacity:0" />
  <path
     d="m 94.015318,118.41693 3.37387,-0.12049 0,1.68694 c 0,0 -2.45196,0.56221 -2.21597,3.01925 0.23894,2.48702 2.57743,2.64406 2.57743,2.64406 0,0 2.539522,-0.11898 2.865622,-2.64998 0.28458,-2.20918 -1.540121,-2.77233 -1.540121,-2.77233 l -0.240991,-1.92794 8.193702,-0.12049 -0.12047,-14.94148 -13.013602,0.36149 z"
     id="path4853"
     style="fill:#cccccc;fill-opacity:1;stroke:#000000;stroke-width:0.68522942px;stroke-linecap:butt;stroke-linejoin:miter;stroke-opacity:0" />
  <path
     d="m 29.878932,94.101079 0,4.08976 11.587671,0 0.08521,-1.70407 6.13464,0.34081 3.067325,-2.98211 34.5926,-0.17041 0.0852,14.654971 -10.56523,10.39483 -1.02244,0 -0.0852,-1.36326 -10.90604,0 0.0852,4.60099 11.16165,-0.25562 -0.0852,-1.10764 1.44846,-0.0852 11.50246,-11.50247 -0.17041,-17.040671 -36.97829,0.25561 -2.556099,2.89692 -5.708633,0 -0.08521,-1.02244 z"
     id="path4673-8"
     style="fill:#cccccc;fill-opacity:1;stroke:#000000;stroke-width:0.68522942px;stroke-linecap:butt;stroke-linejoin:miter;stroke-opacity:0" />
  <path
     d="m 29.793731,102.1954 -0.08521,4.17496 11.502469,-0.0852 0,-0.59642 13.291738,-0.17041 4.68619,-4.77138 19.08557,0 0.0852,7.8387 -2.6413,2.47089 c 0,0 -1.78927,0.68163 -1.70407,0.17041 0.0852,-0.51122 -0.17041,-1.44846 -0.17041,-1.44846 l -11.07645,0.17041 0.0852,3.83416 11.24686,-0.42602 0.17041,-1.02244 2.6413,0.0852 3.15253,-2.89692 0.17041,-10.820821 c 0,0 0.71137,0.0302 1.35596,-0.78519 0.56526,-0.71503 0.47197,-1.24221 0.22244,-2.19782 -0.25053,-0.95944 -0.61483,-1.51631 -2.77125,-1.61797 -1.32012,-0.0622 -2.3857,1.44846 -2.3857,1.44846 l -2.5561,0 0,-1.19285 -11.16165,0 -0.17041,3.83415 11.41726,-0.25561 -0.0852,-0.68162 2.30049,-0.17041 c 0,0 0.21598,0.83193 0.47465,1.16 0.31263,0.3965 1.22942,0.88488 1.22942,0.88488 l -19.9376,0.0852 -3.74896,4.260161 -13.036119,0.17041 0,-1.44846 z"
     id="path4675-5"
     style="fill:#cccccc;fill-opacity:1;stroke:#000000;stroke-width:0.68522942px;stroke-linecap:butt;stroke-linejoin:miter;stroke-opacity:0" />
  <path
     d="m 29.964134,109.86369 c 0,0.34082 -0.0852,4.34538 -0.0852,4.34538 l 11.246858,0.0852 0,-1.44846 13.376936,0.17041 6.98668,-7.41268 1.27805,-0.17041 0.34081,0.93723 10.99125,-0.25561 0.17041,-3.83415 -11.50247,0 0,1.44846 -1.70407,0.34081 -6.98668,7.07188 -12.695305,0.1704 -0.08521,-1.19284 z"
     id="path4677-1"
     style="fill:#cccccc;fill-opacity:1;stroke:#000000;stroke-width:0.68522942px;stroke-linecap:butt;stroke-linejoin:miter;stroke-opacity:0" />
  <path
     d="m 23.488674,129.29008 c 0.426021,0 4.515786,0.0852 4.515786,0.0852 l -0.17041,-4.9418 25.901848,0.0852 2.81171,3.15252 12.69531,0.59643 c 0,0 0.73868,1.68465 3.07278,1.68595 2.32611,0.001 2.20984,-2.79359 2.20984,-2.79359 0,0 0.69141,-2.37968 -2.38861,-2.78852 -1.95289,-0.25923 -2.6384,1.76607 -2.6384,1.76607 l -12.21938,-0.10587 -2.77642,-2.79105 -26.629106,-0.53188 0.04564,-6.28439 -4.345375,-0.17041 z"
     id="path4679-3"
     style="fill:#cccccc;fill-opacity:1;stroke:#000000;stroke-width:0.68522942px;stroke-linecap:butt;stroke-linejoin:miter;stroke-opacity:0" />
  <path
     d="m 16.672403,129.37528 4.345375,0.0852 0,-13.20654 -1.317627,-0.0249 0.124773,-3.04236 7.157091,0 -0.170409,-19.937591 16.95549,-0.42602 4.686192,-4.174971 14.14377,0.511221 0.0852,1.19285 11.58767,-0.25561 -0.0852,-4.089771 -11.50246,0.25561 0.1704,1.02245 -15.421818,0 -3.748945,4.089761 -18.489151,0.25561 -0.17041,20.022791 -6.56066,0 -0.09983,4.76711 -1.774655,0.004 z"
     id="path4681-7"
     style="fill:#cccccc;fill-opacity:1;stroke:#000000;stroke-width:0.68522942px;stroke-linecap:butt;stroke-linejoin:miter;stroke-opacity:0" />
  <path
     d="m 26.93018,37.601982 11.808593,-0.241 -0.120491,-1.44595 5.904293,-0.24099 c 0,0 0.509976,1.90294 2.44396,1.8068 2.553003,-0.1269 2.737363,-2.89126 2.737363,-2.89126 0,0 -0.38104,-2.63221 -2.999573,-2.6669 -1.625295,-0.0215 -2.061252,2.30541 -2.061252,2.30541 l -6.024791,0.24099 -0.120497,-0.84347 -11.411811,0.0499 z"
     id="path4715-3"
     style="fill:#cccccc;fill-opacity:1;stroke:#000000;stroke-width:0.68522942px;stroke-linecap:butt;stroke-linejoin:miter;stroke-opacity:0" />
  <path
     d="m 26.93018,26.834642 11.808593,-0.241 -0.120491,-1.44595 5.904293,-0.24099 c 0,0 0.509976,1.90294 2.44396,1.8068 2.553003,-0.1269 2.737363,-2.89126 2.737363,-2.89126 0,0 -0.38104,-2.63221 -2.999573,-2.6669 -1.625295,-0.0215 -2.061252,2.30541 -2.061252,2.30541 l -6.024791,0.24099 -0.120497,-0.84347 -11.411811,0.0499 z"
     id="path4715-3-3"
     style="fill:#cccccc;fill-opacity:1;stroke:#000000;stroke-width:0.68522942px;stroke-linecap:butt;stroke-linejoin:miter;stroke-opacity:0" />
  <path
     d="m 26.93018,16.605662 11.808593,-0.24099 -0.120491,-1.44595 5.904293,-0.24099 c 0,0 0.509976,1.90293 2.44396,1.8068 2.553003,-0.12691 2.737363,-2.89127 2.737363,-2.89127 0,0 -0.38104,-2.6322 -2.999573,-2.6669 -1.625295,-0.0215 -2.061252,2.30542 -2.061252,2.30542 l -6.024791,0.24098 -0.120497,-0.84346 -11.411811,0.0499 z"
     id="path4715-3-3-3"
     style="fill:#cccccc;fill-opacity:1;stroke:#000000;stroke-width:0.68522942px;stroke-linecap:butt;stroke-linejoin:miter;stroke-opacity:0" />
  <path
     d="m 19.645913,77.542983 a 2.9462783,2.9462783 0 1 1 0.0021,0.036"
     transform="matrix(0.47131534,0,0,0.47131534,36.309272,-22.779078)"
     id="path5106"
     style="fill:#070000;fill-opacity:0.9;stroke:#000000;stroke-width:2.70000005;stroke-linecap:round;stroke-miterlimit:4;stroke-opacity:0;stroke-dasharray:none" />
  <path
     d="m 19.645913,77.542983 a 2.9462783,2.9462783 0 1 1 0.0021,0.036"
     transform="matrix(0.47131534,0,0,0.47131534,36.294224,-12.538468)"
     id="path5106-0"
     style="fill:#070000;fill-opacity:0.9;stroke:#000000;stroke-width:2.70000005;stroke-linecap:round;stroke-miterlimit:4;stroke-opacity:0;stroke-dasharray:none" />
  <path
     d="m 19.645913,77.542983 a 2.9462783,2.9462783 0 1 1 0.0021,0.036"
     transform="matrix(0.47131534,0,0,0.47131534,36.341812,-1.6414081)"
     id="path5106-0-7"
     style="fill:#070000;fill-opacity:0.9;stroke:#000000;stroke-width:2.70000005;stroke-linecap:round;stroke-miterlimit:4;stroke-opacity:0;stroke-dasharray:none" />
  <path
     d="m 19.645913,77.542983 a 2.9462783,2.9462783 0 1 1 0.0021,0.036"
     transform="matrix(0.47131534,0,0,0.47131534,23.055365,18.468522)"
     id="path5106-0-7-4"
     style="fill:#070000;fill-opacity:0.9;stroke:#000000;stroke-width:2.70000005;stroke-linecap:round;stroke-miterlimit:4;stroke-opacity:0;stroke-dasharray:none" />
  <path
     d="m 19.645913,77.542983 a 2.9462783,2.9462783 0 1 1 0.0021,0.036"
     transform="matrix(0.47131534,0,0,0.47131534,36.770082,18.487202)"
     id="path5106-0-7-4-3"
     style="fill:#070000;fill-opacity:0.9;stroke:#000000;stroke-width:2.70000005;stroke-linecap:round;stroke-miterlimit:4;stroke-opacity:0;stroke-dasharray:none" />
  <path
     d="m 19.645913,77.542983 a 2.9462783,2.9462783 0 1 1 0.0021,0.036"
     transform="matrix(0.47131534,0,0,0.47131534,33.153595,35.237262)"
     id="path5106-0-7-4-7"
     style="fill:#070000;fill-opacity:0.9;stroke:#000000;stroke-width:2.70000005;stroke-linecap:round;stroke-miterlimit:4;stroke-opacity:0;stroke-dasharray:none" />
  <path
     d="m 19.645913,77.542983 a 2.9462783,2.9462783 0 1 1 0.0021,0.036"
     transform="matrix(0.47131534,0,0,0.47131534,47.429209,27.623592)"
     id="path5106-0-7-4-6"
     style="fill:#070000;fill-opacity:0.9;stroke:#000000;stroke-width:2.70000005;stroke-linecap:round;stroke-miterlimit:4;stroke-opacity:0;stroke-dasharray:none" />
  <path
     d="m 19.645913,77.542983 a 2.9462783,2.9462783 0 1 1 0.0021,0.036"
     transform="matrix(0.47131534,0,0,0.47131534,54.186328,19.391332)"
     id="path5106-0-7-4-6-4"
     style="fill:#070000;fill-opacity:0.9;stroke:#000000;stroke-width:2.70000005;stroke-linecap:round;stroke-miterlimit:4;stroke-opacity:0;stroke-dasharray:none" />
  <path
     d="m 19.645913,77.542983 a 2.9462783,2.9462783 0 1 1 0.0021,0.036"
     transform="matrix(0.47131534,0,0,0.47131534,61.609648,15.203812)"
     id="path5106-0-7-4-6-4-8"
     style="fill:#070000;fill-opacity:0.9;stroke:#000000;stroke-width:2.70000005;stroke-linecap:round;stroke-miterlimit:4;stroke-opacity:0;stroke-dasharray:none" />
  <path
     d="m 19.645913,77.542983 a 2.9462783,2.9462783 0 1 1 0.0021,0.036"
     transform="matrix(0.47131534,0,0,0.47131534,82.927898,26.909812)"
     id="path5106-0-7-4-6-4-2"
     style="fill:#070000;fill-opacity:0.9;stroke:#000000;stroke-width:2.70000005;stroke-linecap:round;stroke-miterlimit:4;stroke-opacity:0;stroke-dasharray:none" />
  <path
     d="m 19.645913,77.542983 a 2.9462783,2.9462783 0 1 1 0.0021,0.036"
     transform="matrix(0.47131534,0,0,0.47131534,55.328378,38.139962)"
     id="path5106-0-7-4-6-4-1"
     style="fill:#070000;fill-opacity:0.9;stroke:#000000;stroke-width:2.70000005;stroke-linecap:round;stroke-miterlimit:4;stroke-opacity:0;stroke-dasharray:none" />
  <path
     d="m 19.645913,77.542983 a 2.9462783,2.9462783 0 1 1 0.0021,0.036"
     transform="matrix(0.47131534,0,0,0.47131534,61.375098,90.634799)"
     id="path5106-0-7-4-6-4-14"
     style="fill:#070000;fill-opacity:0.9;stroke:#000000;stroke-width:2.70000005;stroke-linecap:round;stroke-miterlimit:4;stroke-opacity:0;stroke-dasharray:none" />
  <path
     d="m 19.645913,77.542983 a 2.9462783,2.9462783 0 1 1 0.0021,0.036"
     transform="matrix(0.47131534,0,0,0.47131534,87.295058,86.310938)"
     id="path5106-0-7-4-6-4-0"
     style="fill:#070000;fill-opacity:0.9;stroke:#000000;stroke-width:2.70000005;stroke-linecap:round;stroke-miterlimit:4;stroke-opacity:0;stroke-dasharray:none" />
  <path
     d="m 19.645913,77.542983 a 2.9462783,2.9462783 0 1 1 0.0021,0.036"
     transform="matrix(0.47131534,0,0,0.47131534,68.654098,59.998239)"
     id="path5106-0-7-4-6-4-3"
     style="fill:#070000;fill-opacity:0.9;stroke:#000000;stroke-width:2.70000005;stroke-linecap:round;stroke-miterlimit:4;stroke-opacity:0;stroke-dasharray:none" />
  <path
     d="m 19.645913,77.542983 a 2.9462783,2.9462783 0 1 1 0.0021,0.036"
     transform="matrix(0.47131534,0,0,0.47131534,80.632768,44.217359)"
     id="path5106-0-7-4-6-4-4"
     style="fill:#070000;fill-opacity:0.9;stroke:#000000;stroke-width:2.70000005;stroke-linecap:round;stroke-miterlimit:4;stroke-opacity:0;stroke-dasharray:none" />
  <path
     d="m 19.645913,77.542983 a 2.9462783,2.9462783 0 1 1 0.0021,0.036"
     transform="matrix(0.47131534,0,0,0.47131534,92.544138,59.190689)"
     id="path5106-0-7-4-6-4-7"
     style="fill:#070000;fill-opacity:0.9;stroke:#000000;stroke-width:2.70000005;stroke-linecap:round;stroke-miterlimit:4;stroke-opacity:0;stroke-dasharray:none" />
  <path
     d="m 19.645913,77.542983 a 2.9462783,2.9462783 0 1 1 0.0021,0.036"
     transform="matrix(0.47131534,0,0,0.47131534,123.16377,38.396262)"
     id="path5106-0-7-4-6-4-7-5"
     style="fill:#070000;fill-opacity:0.9;stroke:#000000;stroke-width:2.70000005;stroke-linecap:round;stroke-miterlimit:4;stroke-opacity:0;stroke-dasharray:none" />
  <path
     d="m 19.645913,77.542983 a 2.9462783,2.9462783 0 1 1 0.0021,0.036"
     transform="matrix(0.47131534,0,0,0.47131534,138.37264,40.684322)"
     id="path5106-0-7-4-6-4-7-7"
     style="fill:#070000;fill-opacity:0.9;stroke:#000000;stroke-width:2.70000005;stroke-linecap:round;stroke-miterlimit:4;stroke-opacity:0;stroke-dasharray:none" />
  <path
     d="m 19.645913,77.542983 a 2.9462783,2.9462783 0 1 1 0.0021,0.036"
     transform="matrix(0.47131534,0,0,0.47131534,135.00784,20.024492)"
     id="path5106-0-7-4-6-4-7-0"
     style="fill:#070000;fill-opacity:0.9;stroke:#000000;stroke-width:2.70000005;stroke-linecap:round;stroke-miterlimit:4;stroke-opacity:0;stroke-dasharray:none" />
  <path
     d="m 19.645913,77.542983 a 2.9462783,2.9462783 0 1 1 0.0021,0.036"
     transform="matrix(0.47131534,0,0,0.47131534,109.16623,19.418832)"
     id="path5106-0-7-4-6-4-7-4"
     style="fill:#070000;fill-opacity:0.9;stroke:#000000;stroke-width:2.70000005;stroke-linecap:round;stroke-miterlimit:4;stroke-opacity:0;stroke-dasharray:none" />
  <path
     d="m 19.645913,77.542983 a 2.9462783,2.9462783 0 1 1 0.0021,0.036"
     transform="matrix(0.47131534,0,0,0.47131534,98.802658,22.379842)"
     id="path5106-0-7-4-6-4-7-3"
     style="fill:#070000;fill-opacity:0.9;stroke:#000000;stroke-width:2.70000005;stroke-linecap:round;stroke-miterlimit:4;stroke-opacity:0;stroke-dasharray:none" />
  <path
     d="m 19.645913,77.542983 a 2.9462783,2.9462783 0 1 1 0.0021,0.036"
     transform="matrix(0.47131534,0,0,0.47131534,162.58582,88.390118)"
     id="path5106-0-7-4-6-4-7-77"
     style="fill:#070000;fill-opacity:0.9;stroke:#000000;stroke-width:2.70000005;stroke-linecap:round;stroke-miterlimit:4;stroke-opacity:0;stroke-dasharray:none" />
  <path
     d="m 19.645913,77.542983 a 2.9462783,2.9462783 0 1 1 0.0021,0.036"
     transform="matrix(0.47131534,0,0,0.47131534,169.8188,57.745139)"
     id="path5106-0-7-4-6-4-7-1"
     style="fill:#070000;fill-opacity:0.9;stroke:#000000;stroke-width:2.70000005;stroke-linecap:round;stroke-miterlimit:4;stroke-opacity:0;stroke-dasharray:none" />
  <path
     d="m 19.645913,77.542983 a 2.9462783,2.9462783 0 1 1 0.0021,0.036"
     transform="matrix(0.47131534,0,0,0.47131534,197.32315,44.516409)"
     id="path5106-0-7-4-6-4-7-6"
     style="fill:#070000;fill-opacity:0.9;stroke:#000000;stroke-width:2.70000005;stroke-linecap:round;stroke-miterlimit:4;stroke-opacity:0;stroke-dasharray:none" />
  <path
     d="m 19.645913,77.542983 a 2.9462783,2.9462783 0 1 1 0.0021,0.036"
     transform="matrix(0.47131534,0,0,0.47131534,197.13281,34.333132)"
     id="path5106-0-7-4-6-4-7-72"
     style="fill:#070000;fill-opacity:0.9;stroke:#000000;stroke-width:2.70000005;stroke-linecap:round;stroke-miterlimit:4;stroke-opacity:0;stroke-dasharray:none" />
  <path
     d="m 19.645913,77.542983 a 2.9462783,2.9462783 0 1 1 0.0021,0.036"
     transform="matrix(0.47131534,0,0,0.47131534,196.65695,23.578842)"
     id="path5106-0-7-4-6-4-7-04"
     style="fill:#070000;fill-opacity:0.9;stroke:#000000;stroke-width:2.70000005;stroke-linecap:round;stroke-miterlimit:4;stroke-opacity:0;stroke-dasharray:none" />
  <path
     d="m 19.645913,77.542983 a 2.9462783,2.9462783 0 1 1 0.0021,0.036"
     transform="matrix(0.47131534,0,0,0.47131534,197.41832,14.727962)"
     id="path5106-0-7-4-6-4-7-08"
     style="fill:#070000;fill-opacity:0.9;stroke:#000000;stroke-width:2.70000005;stroke-linecap:round;stroke-miterlimit:4;stroke-opacity:0;stroke-dasharray:none" />
  <path
     d="m 19.645913,77.542983 a 2.9462783,2.9462783 0 1 1 0.0021,0.036"
     transform="matrix(0.47131534,0,0,0.47131534,146.31162,41.470942)"
     id="path5106-0-7-4-6-4-7-49"
     style="fill:#070000;fill-opacity:0.9;stroke:#000000;stroke-width:2.70000005;stroke-linecap:round;stroke-miterlimit:4;stroke-opacity:0;stroke-dasharray:none" />
  <path
     d="m 19.645913,77.542983 a 2.9462783,2.9462783 0 1 1 0.0021,0.036"
     transform="matrix(0.47131534,0,0,0.47131534,160.30173,18.629962)"
     id="path5106-0-7-4-6-4-7-49-4"
     style="fill:#070000;fill-opacity:0.9;stroke:#000000;stroke-width:2.70000005;stroke-linecap:round;stroke-miterlimit:4;stroke-opacity:0;stroke-dasharray:none" />
  <path
     d="m 19.645913,77.542983 a 2.9462783,2.9462783 0 1 1 0.0021,0.036"
     transform="matrix(0.32251213,0,0,0.32251213,170.02961,56.066509)"
     id="path5106-0-7-4-6-4-7-49-9"
     style="fill:#070000;fill-opacity:0.9;stroke:#000000;stroke-width:2.70000005;stroke-linecap:round;stroke-miterlimit:4;stroke-opacity:0;stroke-dasharray:none" />
  <path
     d="m 19.645913,77.542983 a 2.9462783,2.9462783 0 1 1 0.0021,0.036"
     transform="matrix(0.35383909,0,0,0.35383909,161.6524,36.215502)"
     id="path5106-0-7-4-6-4-7-49-7"
     style="fill:#070000;fill-opacity:0.9;stroke:#000000;stroke-width:2.70000005;stroke-linecap:round;stroke-miterlimit:4;stroke-opacity:0;stroke-dasharray:none" />
  <path
     d="m 19.645913,77.542983 a 2.9462783,2.9462783 0 1 1 0.0021,0.036"
     transform="matrix(0.47131534,0,0,0.47131534,196.82997,-3.2035681)"
     id="path5106-0-7-4-6-4-7-49-0"
     style="fill:#070000;fill-opacity:0.9;stroke:#000000;stroke-width:2.70000005;stroke-linecap:round;stroke-miterlimit:4;stroke-opacity:0;stroke-dasharray:none" />
  <path
     d="m 182.61967,118.14413 4.69937,0 0,7.95273 -1.38574,0.12049 0.18077,3.07265 c 0,0 0.79424,0.26731 1.10623,0.53208 0.28368,0.24076 0.64096,0.91387 0.64096,0.91387 l 3.07264,-2.65091 -0.0603,-1.56645 -1.26521,-0.0602 0.0603,-8.19372 4.45838,0 0.18069,7.83223 -1.92789,0.18074 -0.24099,2.53042 -0.84345,0.0602 -2.94916,2.86997 0.41874,5.02251 -1.14474,0.42173 c 0,0 0.84571,2.36373 -0.95439,3.48805 -1.74343,1.08891 -3.62445,-0.11416 -3.62445,-0.11416 0,0 -1.29461,-1.61241 0.10347,-3.48141 1.27843,-1.70901 3.81261,-0.97694 3.81261,-0.97694 l 0.18077,-2.28942 c 0,0 -1.38012,1.02974 -2.69323,0.58543 -1.69416,-0.57324 -2.00608,-2.27237 -2.00608,-2.27237 0,0 -0.35268,-0.67112 0.23093,-1.78522 0.49795,-0.9506 1.45597,-0.98619 1.45597,-0.98619 l -0.0603,-3.07264 -1.5062,-0.18074 z"
     id="path5413"
     style="fill:#cccccc;fill-opacity:1;stroke:none" />
  <path
     d="m 189.78922,137.42347 c 0,0 2.19363,1.21027 3.79248,-0.0286 1.63276,-1.2651 0.90683,-3.52604 0.90683,-3.52604 l 5.66328,-4.75959 0.12053,-2.7714 1.38568,-0.18075 0.12053,-8.07322 -5.42236,-0.18074 -0.0603,8.7962 2.53775,-0.19538 -0.24833,1.58107 -5.00053,4.75959 c 0,0 -1.89754,-1.21573 -3.58464,0.68361 -1.48585,1.67277 -0.21092,3.89524 -0.21092,3.89524 z"
     id="path5415"
     style="fill:#cccccc;fill-opacity:1;stroke:none" />
  <path
     d="m 203.46551,126.15711 5.1813,-0.0602 0.0603,-8.01298 -5.30183,0 z"
     id="path5417"
     style="fill:#cccccc;fill-opacity:1;stroke:none" />
  <path
     d="m 269.24392,58.638226 13.81258,-8.242995 c 0,0 2.22784,-1.225307 2.45063,-4.789841 0.22278,-3.564543 0.11139,-13.589796 0.11139,-13.589796 0,0 -0.44557,-2.116435 -2.33924,-1.002519 -1.89366,1.113916 -14.59232,8.799939 -14.59232,8.799939 0,0 -1.67088,1.225307 -1.67088,2.673408 0,1.448101 -0.11139,14.25815 -0.11139,14.25815 0,0 -0.22277,2.78479 2.33923,1.893654 z"
     id="path3461"
     style="fill:#00ccff;fill-opacity:0.80000072;stroke:none" />
  <path
     d="m 268.4835,50.104089 13.23267,-7.797828 c 0,0 2.44174,-1.417781 2.52051,-3.465689 0.0788,-2.047916 -0.0788,-15.044288 -0.0788,-15.044288 0,0 -0.4726,-1.969146 -2.52052,-1.339018 -2.04791,0.630128 -14.3489,9.011929 -14.3489,9.011929 0,0 -0.93689,0.714318 -1.22604,1.210528 -0.31789,0.545499 -0.43112,1.269169 -0.4933,1.828722 -0.15753,1.417788 0.0788,14.020324 0.0788,14.020324 0,0 0.70889,2.756814 2.83556,1.57532 z"
     id="path3471"
     style="fill:#ff0067;fill-opacity:0.8;stroke:none" />
  <path
     d="m 262.73359,58.689565 13.3902,-8.03411 c 0,0 2.04791,-1.575327 2.04791,-2.993115 0,-1.417781 -0.0788,-14.886747 -0.0788,-14.886747 0,0 -0.31507,-2.126671 -2.20545,-1.496543 -1.89038,0.630121 -14.57169,8.664246 -14.57169,8.664246 0,0 -0.77303,0.439407 -1.32975,1.309905 -0.38431,0.600915 -0.60723,1.49471 -0.6394,2.234561 -0.0788,1.8116 0,13.941554 0,13.941554 0,0 0.55137,3.071878 3.38694,1.260249 z"
     id="path3465"
     style="fill:#ef9330;fill-opacity:0.8;stroke:none" />
  <path
     d="m 321.41416,54.869427 a 2.362977,3.4263167 0 0 1 -4.72595,0 2.362977,3.4263167 0 1 1 4.72595,0 z"
     id="path3475"
     style="opacity:0.42803034;fill:#000000;fill-opacity:0;stroke:none" />
  <path
     d="m 278.408,44.393562 a 4.7653358,4.7653358 0 1 1 -9.53067,0 4.7653358,4.7653358 0 1 1 9.53067,0 z"
     id="path4271"
     style="fill:#ffffff;fill-opacity:1;stroke:none" />
  <path
     d="m 274.64323,52.348922 a 2.1032964,2.1032964 0 1 1 -4.20659,0 2.1032964,2.1032964 0 1 1 4.20659,0 z"
     id="path4271-5"
     style="fill:#ffffff;fill-opacity:1;stroke:none" />
  <path
     d="m 283.2681,45.141837 a 2.1032964,2.1032964 0 1 1 -4.20659,0 2.1032964,2.1032964 0 1 1 4.20659,0 z"
     id="path4271-5-4"
     style="fill:#ffffff;fill-opacity:1;stroke:none" />
  <path
     d="m 264.54521,41.676133 8.74301,0.157539 7.95536,-4.174587 -10.47587,-0.472596 z"
     id="path4311"
     style="fill:#ffffff;fill-opacity:1;stroke:none" />
  <path
     d="m 266.35683,41.676133 0.86642,-0.157525 2.67803,8.900552 -2.52051,-1.023961 z"
     id="path4313"
     style="fill:#ffffff;fill-opacity:1;stroke:none" />
  <text
     x="288.09622"
     y="45.614429"
     id="text4317"
     xml:space="preserve"
     style="font-size:19.82845497px;font-style:normal;font-weight:normal;line-height:125%;letter-spacing:0px;word-spacing:0px;fill:#000000;fill-opacity:1;stroke:none;font-family:Sans"><tspan
       x="288.09622"
       y="45.614429"
       id="tspan4319">prep@</tspan><tspan
       x="288.09622"
       y="58.541622"
       id="tspan4321"
       style="font-size:7.9313817px">En linea. La Cantera</tspan></text>
  <path
     d="m 283.61906,88.618356 a 12.585752,12.585752 0 1 1 -25.1715,0 12.585752,12.585752 0 1 1 25.1715,0 z"
     id="path4271-52"
     style="fill:#00ffff;fill-opacity:1;stroke:none" />
  <path
     d="m 281.28672,109.21329 a 5.5550274,5.5550274 0 0 1 -11.11005,0 5.5550274,5.5550274 0 1 1 11.11005,0 z"
     id="path4271-5-7"
     style="fill:#00ffff;fill-opacity:1;stroke:none" />
  <path
     d="m 297.69893,90.062775 a 5.5550263,5.5550263 0 1 1 -11.11004,0 5.5550263,5.5550263 0 1 1 11.11004,0 z"
     id="path4271-5-7-6"
     style="fill:#00ffff;fill-opacity:1;stroke:none" />
  <text
     x="285.04602"
     y="102.63107"
     id="text5091"
     xml:space="preserve"
     style="font-size:4.61564207px;font-style:normal;font-weight:normal;line-height:125%;letter-spacing:0px;word-spacing:0px;fill:#000000;fill-opacity:1;stroke:none;font-family:Sans"><tspan
       x="285.04602"
       y="102.63107"
       id="tspan5093"
       style="font-size:5.76955271px">Centro de Capacitacin</tspan><tspan
       x="285.04602"
       y="109.84297"
       id="tspan5095"
       style="font-size:11.53910542px" /></text>
  <text
     x="284.81409"
     y="113.66979"
     id="text5097"
     xml:space="preserve"
     style="font-size:4.61564207px;font-style:normal;font-weight:normal;line-height:125%;letter-spacing:0px;word-spacing:0px;fill:#000000;fill-opacity:1;stroke:none;font-family:Sans"><tspan
       x="284.81409"
       y="113.66979"
       id="tspan5099"
       style="font-size:12.69301605px">La Cantera</tspan></text>
</svg>
