<?xml version="1.0" encoding="UTF-8" standalone="no"?>
<!-- Created with Inkscape (http://www.inkscape.org/) -->

<svg
   xmlns:dc="http://purl.org/dc/elements/1.1/"
   xmlns:cc="http://creativecommons.org/ns#"
   xmlns:rdf="http://www.w3.org/1999/02/22-rdf-syntax-ns#"
   xmlns:svg="http://www.w3.org/2000/svg"
   xmlns="http://www.w3.org/2000/svg"
   version="1.1"
   width="300"
   height="99"
   id="svg4377">
  <metadata
     id="metadata4383">
    <rdf:RDF>
      <cc:Work
         rdf:about="">
        <dc:format>image/svg+xml</dc:format>
        <dc:type
           rdf:resource="http://purl.org/dc/dcmitype/StillImage" />
        <dc:title></dc:title>
      </cc:Work>
    </rdf:RDF>
  </metadata>
  <defs
     id="defs4381" />
  <path
     d="m 51.721398,64.836866 8.580509,-8.58051 -0.317797,-3.97246 -16.445975,0.3178 -0.158898,3.33686 z"
     id="path5122"
     style="fill:#ffffff;stroke:none" />
  <path
     d="M 23.825639,19.901486 51.630483,4.6679856 79.139529,20.049386 l -13.458731,6.65541 -0.295796,7.09911 c 0,0 -0.759421,-0.80058 -1.879043,-1.25665 -1.372472,-0.55906 -3.249034,-0.7863 -4.473946,-0.67407 -1.347369,0.12344 -3.676533,0.3147 -5.147428,1.35912 -1.461176,1.03752 -2.142529,2.33705 -2.142529,2.33705 0,0 -1.60273,-1.88933 -3.462686,-2.9623 -1.233998,-0.71187 -2.581222,-0.73321 -3.648737,-0.80257 -0.953151,-0.0619 -3.46807,0.19562 -4.90194,0.75261 -0.384156,0.14922 -0.07294,0.5945 -0.372223,0.73249 -1.499149,0.69118 -1.732679,1.1294 -1.732679,1.1294 l 0.209158,-7.52975 z"
     id="path4895"
     style="fill:#353535;fill-opacity:1;stroke:#000000;stroke-width:0.3290776px;stroke-linecap:butt;stroke-linejoin:miter;stroke-opacity:1" />
  <path
     d="m 25.896212,19.753586 c 0.147899,0.2958 -0.739489,1.33109 1.700828,0.1479 C 30.03736,18.718306 51.408634,6.4427557 51.408634,6.4427557 L 75.737873,20.197286 c 0,0 0.813442,0.29579 1.405035,-0.0739 0.30656,-0.1916 -6.746325,-4.3149 -13.380936,-8.16138 C 57.593232,8.3856156 51.836183,5.0485356 51.408634,5.3335756 50.521244,5.9251656 25.896212,19.753636 25.896212,19.753636 z"
     id="path4960"
     style="opacity:0.10606061;fill:#e3dedb;stroke:none" />
  <path
     d="m 37.832949,33.791506 0.209159,-11.19004 c 0,0 0.941217,-3.03281 3.764871,-3.45113 2.823654,-0.41832 11.712931,-2.30075 18.824353,-0.41832 7.111423,1.88244 5.019833,8.05264 5.019833,8.05264 l 0,0 -0.313742,6.69311"
     id="path4897"
     style="fill:#343434;fill-opacity:0.58039287;stroke:#000000;stroke-width:0.3290776px;stroke-linecap:butt;stroke-linejoin:miter;stroke-opacity:1" />
  <path
     d="m 39.401646,57.844846 9.725915,11.19003 1.882436,-3.97403 1.464118,-0.10458 1.882435,3.55571 8.57554,-9.83049 1.673274,0.41832 -6.588519,9.93507 -5.961047,2.92823 -5.856469,-2.61449 -8.05264,-10.56255 z"
     id="path4941"
     style="fill:#000000;stroke:#000000;stroke-width:0.3290776px;stroke-linecap:butt;stroke-linejoin:miter;stroke-opacity:1" />
  <path
     d="m 62.907709,32.398876 1.442009,0.55462 0.07395,6.17474 c 0,0 2.144523,-2.36637 2.736116,-3.10585 0.591593,-0.7395 1.109238,0.22184 1.109238,0.22184 0,0 0.123906,3.41303 -0.07395,5.10249 -0.0793,0.67714 -0.165385,1.37423 -0.443691,1.99662 -0.100525,0.22481 -0.213927,0.4693 -0.337415,0.72074 -0.57628,1.1734 -1.372111,2.49822 -2.102905,2.68091 -0.887389,0.22185 -1.257133,-1.10924 -1.257133,-1.10924 0,0 -2.136936,4.60642 -3.7714,6.50753 -2.389222,2.77898 -4.40894,4.58062 -8.578091,6.87726 -4.90121,-2.51404 -5.712959,-3.88071 -7.986497,-6.43357 -1.782929,-2.00198 -4.289043,-6.80331 -4.289043,-6.80331 0,0 -0.221848,0.96133 -0.739493,0.96133 -0.517642,0 -1.700828,-0.59158 -2.21847,-1.99662 -0.517643,-1.40503 -2.070574,-7.17306 -1.109236,-8.43019 0.961339,-1.25714 3.845351,2.51427 3.845351,2.51427 l 0.221848,-5.02854 0.147897,-1.25713 4.584841,-0.66554 -4.584841,0.66554 4.399968,-0.77646 c 0,0 1.996623,-0.11093 3.364681,0.48066 1.368058,0.59159 4.436942,3.25376 4.436942,3.25376 0,0 2.24897,-2.31289 3.105859,-2.77309 0.534389,-0.28699 1.256982,-0.54199 2.028394,-0.69229 1.033361,-0.29589 2.725548,-0.34919 3.743583,-0.22514 1.090406,0.14327 2.251495,0.58466 2.251495,0.58466 z"
     id="path4901"
     style="fill:#fdc26f;fill-opacity:1;stroke:#000000;stroke-width:0.3290776px;stroke-linecap:butt;stroke-linejoin:miter;stroke-opacity:1" />
  <path
     d="m 24.713028,63.901166 c 0,0 -4.215096,2.29242 -4.510892,5.10249 -0.295796,2.81006 -0.961337,17.89567 -0.961337,17.89567 0,0 3.314757,2.45079 5.250382,3.03191 1.584599,0.47573 4.954586,0.29579 4.954586,0.29579 l 0.295796,-6.43356 0.221847,8.35624 c 0,0 5.498354,2.89451 8.467861,3.72648 3.722951,1.04306 11.498384,1.5239 11.498384,1.5239 0,0 8.808941,-0.18924 13.080376,-1.14364 3.591467,-0.80247 10.36147,-3.81095 10.36147,-3.81095 l 0.07395,-9.24363 0.443692,6.87726 c 0,0 3.925053,0.26086 5.768021,-0.29579 1.618752,-0.48893 4.362999,-2.58822 4.362999,-2.58822 0,0 0.34597,-11.1143 -0.87,-18.38817 -0.01462,-0.0876 -0.06258,-0.16513 -0.09134,-0.24699 -0.886092,-2.52484 -3.845354,-4.73274 -3.845354,-4.73274 l -2.372281,1.02447 c 0,0 -6.58852,5.43815 -10.457971,8.15722 -3.020876,2.12277 -6.64852,3.19259 -10.67973,3.66147 -1.132392,0.13171 -2.500971,0.0116 -3.647696,0.1034 -2.489919,0.19919 -5.640982,-0.15667 -8.336447,-0.9715 -2.96519,-0.89637 -5.363504,-2.27047 -5.363504,-2.27047 z"
     id="path4915"
     style="fill:#2d2d2d;fill-opacity:1;stroke:#000000;stroke-width:0.3290776px;stroke-linecap:butt;stroke-linejoin:miter;stroke-opacity:1" />
  <path
     d="m 49.707807,46.153406 4.141146,0 -2.070575,-9.90918 z"
     id="path4899"
     style="fill:#fdd299;fill-opacity:0.58039216;stroke:#000000;stroke-width:0.3290776px;stroke-linecap:butt;stroke-linejoin:miter;stroke-opacity:1" />
  <path
     d="m 43.584834,52.720436 -0.104577,3.34655 8.157218,8.88928 8.575541,-8.88928 -0.104581,-3.86945 0,0"
     id="path4903"
     style="fill:#ffffff;fill-opacity:0;stroke:#000000;stroke-width:0.3290776px;stroke-linecap:butt;stroke-linejoin:miter;stroke-opacity:1" />
  <path
     d="m 51.639658,64.871416 c 0,0 -0.441489,-0.34851 -1.489979,-1.44569 -1.229164,-1.28625 -6.653594,-7.43711 -6.653594,-7.43711 0,0 -1.133564,1.04557 -1.83775,1.5348 -0.557875,0.38758 -2.25636,0.34303 -2.25636,0.34303 0,0 2.46277,4.97806 3.934468,6.74179 1.66454,1.99484 5.927669,5.06096 5.927669,5.06096 0,0 1.05032,-1.2295 1.440672,-1.93145 0.410319,-0.73786 0.925699,-2.3576 0.925699,-2.3576 0,0 0.679341,1.85218 1.265973,2.6274 0.414653,0.54796 1.54409,1.36585 1.54409,1.36585 0,0 3.19512,-2.68196 4.69203,-4.42441 1.656991,-1.92879 4.551601,-6.52005 4.551601,-6.52005 0,0 -1.336282,-0.23872 -1.901216,-0.58605 -0.643988,-0.39595 -1.574387,-1.63242 -1.574387,-1.63242 l -8.4493,8.7847"
     id="path4905"
     style="fill:#ffffff;fill-opacity:0.99583333;stroke:#000000;stroke-width:0.3290776px;stroke-linecap:butt;stroke-linejoin:miter;stroke-opacity:1" />
  <path
     d="m 28.150043,62.513556 c -1.208577,0.45018 -3.732812,1.01787 -3.732812,1.01787 0.295797,0.59159 5.781397,3.83017 10.069167,6.96757 4.287769,3.13739 6.483944,5.85646 17.046502,6.37936 10.562551,0.5229 17.464812,-5.96105 17.464812,-5.96105 0,0 8.470967,-7.32058 10.03966,-7.00683 1.568692,0.31373 -7.42516,-2.82366 -8.784704,-3.45114 -1.359537,-0.62748 -3.137391,-3.66029 -5.124401,-3.34655 -1.987021,0.31374 -1.359543,1.67328 -1.359543,1.67328 l 0,0 c 0,0 -1.114491,3.94122 -6.797681,9.62133 -5.460202,5.45724 -10.730572,-0.2039 -10.730572,-0.2039 0,0 -5.982068,-5.70113 -6.734244,-9.83575 -0.674889,-3.70979 -5.542728,1.35953 -5.542728,1.35953 0,0 -3.799733,2.03617 -5.813456,2.78628 z"
     id="path4907"
     style="fill:#ffffff;fill-opacity:1;stroke:#000000;stroke-width:0.3290776px;stroke-linecap:butt;stroke-linejoin:miter;stroke-opacity:1" />
  <path
     d="m 19.165465,89.009606 c 0,0 3.57954,2.90843 5.751886,3.39884 1.519287,0.34299 4.653799,-0.41832 4.653799,-0.41832 l -0.10458,-1.72556 c 0,0 -3.157392,0.25535 -4.653799,-0.15687 -2.053256,-0.56562 -5.595017,-3.08511 -5.595017,-3.08511 z"
     id="path4911"
     style="fill:#ffffff;stroke:#000000;stroke-width:0.3290776px;stroke-linecap:butt;stroke-linejoin:miter;stroke-opacity:1" />
  <path
     d="m 73.860671,90.159986 0,2.0393 c 0,0 4.223388,0.50857 6.170209,-0.15687 1.616404,-0.5525 4.130899,-3.03281 4.130899,-3.03281 l 0,-1.93472 c 0,0 -2.797066,2.14652 -4.444642,2.66678 -1.866292,0.58932 -5.856466,0.41832 -5.856466,0.41832 z"
     id="path4913"
     style="fill:#ffffff;stroke:#000000;stroke-width:0.3290776px;stroke-linecap:butt;stroke-linejoin:miter;stroke-opacity:1" />
  <path
     d="m 41.795258,10.214166 0,3.4756 1.035287,-0.0739 -0.369744,-3.8453504 z"
     id="path4917"
     style="fill:#ffff00;fill-opacity:1;stroke:#000000;stroke-width:0.3290776px;stroke-linecap:butt;stroke-linejoin:miter;stroke-opacity:1" />
  <path
     d="m 41.129718,13.837666 2.29242,0 0.07395,3.32771 -2.29242,-0.0739 z"
     id="path4919"
     style="fill:none;stroke:#000000;stroke-width:0.3290776px;stroke-linecap:butt;stroke-linejoin:miter;stroke-opacity:1" />
  <path
     d="m 39.798635,21.084676 c 0,0 -1.190616,2.828 1.175751,2.53221 2.366371,-0.2958 9.916609,-3.7154 11.099788,-3.5675 1.183186,0.1479 11.240259,3.99325 11.979747,4.73274 0.739488,0.73949 1.120787,-2.67707 -0.748461,-3.67208 -0.82213,-0.43762 -2.031374,-1.32956 -4.073505,-1.89971 -3.101095,-0.86581 -7.009879,-0.78783 -7.009879,-0.78783 0,0 -4.892309,0.23614 -7.264946,0.78737 -1.782076,0.41402 -5.158495,1.8748 -5.158495,1.8748 z"
     id="path4947"
     style="opacity:0.22348483;fill:#e3dedb;stroke:none" />
  <path
     d="m 41.203665,17.165376 -0.961338,32.01993 1.109235,-0.14789 0.221848,-31.79809 z"
     id="path4921"
     style="fill:#ffff00;stroke:#000000;stroke-width:0.3290776px;stroke-linecap:butt;stroke-linejoin:miter;stroke-opacity:1" />
  <path
     d="m 42.238953,17.091426 -0.147898,32.31573 -0.665543,-0.0739 0.221848,-32.24178 z"
     id="path4923"
     style="fill:#ffff00;fill-opacity:1;stroke:#000000;stroke-width:0.3290776px;stroke-linecap:butt;stroke-linejoin:miter;stroke-opacity:1" />
  <path
     d="m 42.238953,17.017476 0.509244,0.0936 -0.104578,31.94911 -0.575191,-0.0523 z"
     id="path4925"
     style="fill:#ffff00;fill-opacity:1;stroke:#000000;stroke-width:0.3290776px;stroke-linecap:butt;stroke-linejoin:miter;stroke-opacity:1" />
  <path
     d="m 42.852778,17.163326 0.261449,-0.0523 0.209158,32.36743 -0.470607,-0.0523 z"
     id="path4927"
     style="fill:#ffff00;fill-opacity:1;stroke:#000000;stroke-width:0.3290776px;stroke-linecap:butt;stroke-linejoin:miter;stroke-opacity:1" />
  <path
     d="m 43.480257,49.060146 0.836637,0.0523 -0.73206,-32.10597 -0.261449,0.10458 z"
     id="path4929"
     style="fill:#ffff00;fill-opacity:1;stroke:#000000;stroke-width:0.3290776px;stroke-linecap:butt;stroke-linejoin:miter;stroke-opacity:1" />
  <path
     d="m 41.12721,14.810276 2.353047,-0.0523 0,-0.36603 -2.405334,0.0523 z"
     id="path4931"
     style="fill:#ffff00;fill-opacity:1;stroke:none" />
  <path
     d="m 41.179501,15.280886 2.143884,0 -0.104577,0.41832 -2.039307,-0.0523 z"
     id="path4933"
     style="fill:#ffff00;fill-opacity:1;stroke:none" />
  <path
     d="m 41.179501,16.012946 2.248465,-0.0523 -0.104581,0.36603 -2.196175,0.10458 z"
     id="path4935"
     style="fill:#ffff00;fill-opacity:1;stroke:none" />
  <path
     d="m 37.51921,34.314406 c 0,0 -0.358385,0.18136 -0.668459,1.07242 -0.223966,0.64361 -0.220468,0.96688 -0.220468,0.96688 l 2.509914,2.30076 0.261449,-5.28128 z"
     id="path4937"
     style="fill:#483e37;fill-opacity:1;stroke:none" />
  <path
     d="m 64.605364,38.759046 2.405338,-2.77137 c 0,0 0.121957,-0.35677 -0.326429,-1.63104 -0.341414,-0.97027 -1.033108,-1.50635 -1.033108,-1.50635 l -0.313742,0.78435 -1.098083,-0.47061 z"
     id="path4939"
     style="fill:#483e37;stroke:none" />
  <path
     d="m 69.24186,94.157216 c 0,0 0.32836,-4.29758 1.124166,-7.5286 0.891673,-3.62023 2.151515,-6.83126 2.151515,-6.83126 0,0 0.644463,0.43042 0.872526,3.35579 0.235739,3.02384 -0.104581,9.09843 -0.104581,9.09843 z"
     id="path4943"
     style="opacity:0.1098485;fill:#e3dedb;stroke:none" />
  <path
     d="m 29.889461,92.075756 -0.07395,-13.53268 c 0,0 2.462255,5.11878 3.260815,8.00597 0.678881,2.4545 1.324026,7.74518 1.324026,7.74518 z"
     id="path4945"
     style="opacity:0.094697;fill:#e3dedb;fill-opacity:1;stroke:none" />
  <path
     d="m 43.643986,50.220596 7.6907,7.6907 9.021783,-8.43019 c 0,0 -1.183186,-2.07058 -2.514267,-0.59159 -1.331087,1.47898 -6.211719,6.35962 -6.211719,6.35962 l -6.063825,-6.21172 c 0,0 -1.774775,-0.4437 -1.922672,1.18318 z"
     id="path4964"
     style="opacity:0.15151517;fill:#fff6d5;stroke:none" />
  <path
     d="m 106.37256,85.727626 12.5513,-7.4903 c 0,0 2.02441,-1.11342 2.22685,-4.35247 0.20244,-3.23905 0.10122,-12.34886 0.10122,-12.34886 0,0 -0.40488,-1.92318 -2.12563,-0.91098 -1.72074,1.0122 -13.25984,7.99639 -13.25984,7.99639 0,0 -1.51831,1.11342 -1.51831,2.42929 0,1.31587 -0.10122,12.95619 -0.10122,12.95619 0,0 -0.20243,2.5305 2.12563,1.72074 z"
     id="path3461"
     style="fill:#00ccff;fill-opacity:0.80000072;stroke:none" />
  <path
     d="m 105.68157,77.972766 12.02435,-7.08578 c 0,0 2.21878,-1.28832 2.29035,-3.14923 0.0716,-1.86091 -0.0716,-13.67054 -0.0716,-13.67054 0,0 -0.42944,-1.78934 -2.29036,-1.21675 -1.86091,0.57259 -13.03865,8.18902 -13.03865,8.18902 0,0 -0.85134,0.64909 -1.11409,1.09999 -0.28886,0.49569 -0.39175,1.15328 -0.44825,1.66174 -0.14315,1.28832 0.0716,12.74008 0.0716,12.74008 0,0 0.64416,2.50508 2.57664,1.43147 z"
     id="path3471"
     style="fill:#ff0067;fill-opacity:0.8;stroke:none" />
  <path
     d="m 100.45671,85.774276 12.16749,-7.30049 c 0,0 1.86091,-1.43148 1.86091,-2.7198 0,-1.28832 -0.0716,-13.52739 -0.0716,-13.52739 0,0 -0.2863,-1.93248 -2.00406,-1.35989 -1.71776,0.57258 -13.241099,7.87308 -13.241099,7.87308 0,0 -0.702444,0.39929 -1.208333,1.1903 -0.34921,0.54604 -0.551778,1.35822 -0.581006,2.03051 -0.07158,1.64618 0,12.66851 0,12.66851 0,0 0.501016,2.79137 3.077668,1.14517 z"
     id="path3465"
     style="fill:#ef9330;fill-opacity:0.8;stroke:none" />
  <path
     d="m 381.18826,65.76857 a 4.7668395,6.9119172 0 1 1 -9.53368,0 4.7668395,6.9119172 0 1 1 9.53368,0 z"
     transform="matrix(0.45044628,0,0,0.45044628,-17.925873,52.677756)"
     id="path3475"
     style="opacity:0.42803034;fill:#000000;fill-opacity:0;stroke:none" />
  <path
     d="m 356.87738,42.728844 a 9.6131258,9.6131258 0 1 1 -19.22625,0 9.6131258,9.6131258 0 1 1 19.22625,0 z"
     transform="matrix(0.45044628,0,0,0.45044628,-46.054259,53.536636)"
     id="path4271"
     style="fill:#ffffff;fill-opacity:1;stroke:none" />
  <path
     d="m 356.87738,42.728844 a 9.6131258,9.6131258 0 1 1 -19.22625,0 9.6131258,9.6131258 0 1 1 19.22625,0 z"
     transform="matrix(0.19881537,0,0,0.19881537,40.326135,71.517466)"
     id="path4271-5"
     style="fill:#ffffff;fill-opacity:1;stroke:none" />
  <path
     d="m 356.87738,42.728844 a 9.6131258,9.6131258 0 1 1 -19.22625,0 9.6131258,9.6131258 0 1 1 19.22625,0 z"
     transform="matrix(0.19881537,0,0,0.19881537,48.163437,64.968486)"
     id="path4271-5-4"
     style="fill:#ffffff;fill-opacity:1;stroke:none" />
  <path
     d="m 102.1029,70.314396 7.94466,0.14315 7.22892,-3.79339 -9.51928,-0.42944 z"
     id="path4311"
     style="fill:#ffffff;fill-opacity:1;stroke:none" />
  <path
     d="m 103.74909,70.314396 0.78731,-0.14314 2.43349,8.08781 -2.29035,-0.93046 z"
     id="path4313"
     style="fill:#ffffff;fill-opacity:1;stroke:none" />
  <text
     x="123.50337"
     y="73.893089"
     id="text4317"
     xml:space="preserve"
     style="font-size:18.01785088px;font-style:normal;font-weight:normal;line-height:125%;letter-spacing:0px;word-spacing:0px;fill:#000000;fill-opacity:1;stroke:none;font-family:Sans"><tspan
       x="123.50337"
       y="73.893089"
       id="tspan4319">prep@</tspan><tspan
       x="123.50337"
       y="85.639839"
       id="tspan4321"
       style="font-size:7.20714045px">En linea. La Cantera</tspan></text>
  <path
     d="m 356.87738,42.728844 a 9.6131258,9.6131258 0 1 1 -19.22625,0 9.6131258,9.6131258 0 1 1 19.22625,0 z"
     transform="matrix(1.0917887,0,0,1.0917887,-159.93832,17.503426)"
     id="path4271-52"
     style="fill:#00ffff;fill-opacity:1;stroke:none" />
  <path
     d="m 356.87738,42.728844 a 9.6131258,9.6131258 0 1 1 -19.22625,0 9.6131258,9.6131258 0 1 1 19.22625,0 z"
     transform="matrix(0.48188739,0,0,0.48188739,55.77668,60.738326)"
     id="path4271-5-7"
     style="fill:#00ffff;fill-opacity:1;stroke:none" />
  <path
     d="m 356.87738,42.728844 a 9.6131258,9.6131258 0 1 1 -19.22625,0 9.6131258,9.6131258 0 1 1 19.22625,0 z"
     transform="matrix(0.48188739,0,0,0.48188739,69.463143,44.768336)"
     id="path4271-5-7-6"
     style="fill:#00ffff;fill-opacity:1;stroke:none" />
  <text
     x="230.88634"
     y="75.839752"
     id="text5091"
     xml:space="preserve"
     style="font-size:3.84907341px;font-style:normal;font-weight:normal;line-height:125%;letter-spacing:0px;word-spacing:0px;fill:#000000;fill-opacity:1;stroke:none;font-family:Sans"><tspan
       x="230.88634"
       y="75.839752"
       id="tspan5093"
       style="font-size:4.81134176px">Centro de Capacitación</tspan><tspan
       x="230.88634"
       y="81.853928"
       id="tspan5095"
       style="font-size:9.62268353px" /></text>
  <text
     x="230.6929"
     y="85.045181"
     id="text5097"
     xml:space="preserve"
     style="font-size:3.84907341px;font-style:normal;font-weight:normal;line-height:125%;letter-spacing:0px;word-spacing:0px;fill:#000000;fill-opacity:1;stroke:none;font-family:Sans"><tspan
       x="230.6929"
       y="85.045181"
       id="tspan5099"
       style="font-size:10.5849514px">La Cantera</tspan></text>
  <path
     d="m 51.362422,64.327716 c -0.437688,-0.44574 -5.363877,-5.83892 -6.549414,-7.17029 l -1.131948,-1.27118 0.05314,-1.43009 c 0.02923,-0.78654 0.05739,-1.43606 0.06258,-1.44338 0.0052,-0.007 0.241803,0.25887 0.525806,0.59151 2.056262,2.40841 3.599971,3.6292 6.691985,5.29213 l 0.693626,0.37304 0.855633,-0.49153 c 1.174624,-0.67478 2.935399,-1.83961 3.795252,-2.51072 0.830559,-0.64825 2.061357,-1.78176 2.903812,-2.67429 0.717416,-0.76006 0.69202,-0.79927 0.703204,1.0857 l 0.0079,1.33475 -4.139593,4.28628 c -2.276777,2.35745 -4.157338,4.28628 -4.179026,4.28628 -0.02169,0 -0.153528,-0.1162 -0.292979,-0.25821 z"
     id="path5120"
     style="fill:#800080;fill-opacity:0;stroke:#ffffff;stroke-width:0.03177966;stroke-miterlimit:4;stroke-opacity:1;stroke-dasharray:none" />
</svg>
