<?xml version="1.0" encoding="UTF-8" standalone="no"?>
<!-- Created with Inkscape (http://www.inkscape.org/) -->

<svg
   xmlns:dc="http://purl.org/dc/elements/1.1/"
   xmlns:cc="http://creativecommons.org/ns#"
   xmlns:rdf="http://www.w3.org/1999/02/22-rdf-syntax-ns#"
   xmlns:svg="http://www.w3.org/2000/svg"
   xmlns="http://www.w3.org/2000/svg"
   version="1.1"
   width="800.31"
   height="100"
   id="svg4158">
  <defs
     id="defs4160" />
  <metadata
     id="metadata4163">
    <rdf:RDF>
      <cc:Work
         rdf:about="">
        <dc:format>image/svg+xml</dc:format>
        <dc:type
           rdf:resource="http://purl.org/dc/dcmitype/StillImage" />
        <dc:title></dc:title>
      </cc:Work>
    </rdf:RDF>
  </metadata>
  <g
     transform="translate(0,-952.36223)"
     id="layer1">
    <path
       d="m 411.7445,985.40243 53.87915,0.35697 c 0,0 6.37402,1.37024 6.37402,4.61183 0,3.24159 -1.13144,7.36111 2.89895,8.36998 4.0304,1.00887 41.16709,2.18959 41.16709,2.18959 0,0 4.8493,0.097 8.21562,-5.89008 1.2399,-2.2052 4.22582,-2.79766 6.84021,-3.31678 6.04785,-1.20088 13.84864,0.32068 20.1949,-0.1637 10.62691,-0.81112 26.52862,0.6989 40.40931,0.70589 19.4519,0.01 35.95115,-0.85481 36.39714,-0.43817 0.76424,0.71394 2.77037,0.89243 1.05082,6.87175 -2.29961,7.99629 12.03684,7.40719 12.99214,7.40719 0.95531,0 106.22983,0.8924 106.22983,0.8924 0,0 5.25417,-0.2677 6.68713,4.2838 1.57173,4.9922 45.2814,2.3203 45.2814,2.3203 0,0 -14.96947,1.6792 -38.11663,2.4095 -2.86428,0.09 -10.12787,-0.2739 -11.17705,-5.0868 -1.01544,-4.6579 -110.14657,-2.9451 -110.14657,-2.9451 0,0 -7.92902,0.4462 -12.41896,-4.0159 -2.92617,-2.908 -1.61504,-4.70276 -1.24189,-6.78254 0.65585,-3.65544 0.95531,-4.28368 -11.27258,-3.56974 -12.2279,0.71396 -80.43662,-0.35697 -80.43662,-0.35697 0,0 -8.48203,-0.50273 -10.03069,3.83747 -1.05083,2.94498 -5.75715,5.31588 -9.45752,5.44388 -4.55492,0.1575 -41.26913,-1.9635 -41.26913,-1.9635 0,0 -5.15864,-1.16006 -4.20333,-7.22861 0.9553,-6.06855 -7.26032,-6.24704 -15.28487,-6.06855 -8.02456,0.17849 -43.56187,1.51714 -43.56187,1.51714 z"
       id="path6180"
       style="fill:#ffffff;stroke:#000000;stroke-width:1.03413451px;stroke-linecap:butt;stroke-linejoin:miter;stroke-opacity:1" />
    <path
       d="m 404.6901,976.48323 c 0,0 7.62376,1.48068 8.24113,11.61126 0.57242,9.39326 -7.83583,12.99951 -7.83583,12.99951 z"
       id="path6176"
       style="fill:#ffffff;stroke:#000000;stroke-width:1.03413451px;stroke-linecap:butt;stroke-linejoin:miter;stroke-opacity:1" />
    <path
       d="m 375.04648,970.78681 27.18741,-0.30974 c 0,0 5.13908,0.4646 5.63641,5.26548 0.49733,4.80086 0.66311,24.93355 0.66311,24.93355 0,0 -0.33155,5.5753 -4.3102,5.2655 -3.97865,-0.3097 -27.68474,0.4646 -27.68474,0.4646 0,0 -4.64175,-1.0841 -5.96797,-4.3363 -1.32621,-3.25219 -0.6631,-25.86275 -0.6631,-25.86275 0,0 0.99466,-5.42034 5.13908,-5.42034 z"
       id="path5992"
       style="fill:#4d4d4d;stroke:#000000;stroke-width:0.44864136px;stroke-linecap:butt;stroke-linejoin:miter;stroke-opacity:1" />
    <path
       d="m 325.14764,985.80889 -2.98398,0.15487 0.16578,6.34954 2.32087,-0.15487 c 0,0 0.21318,5.17224 6.51018,9.45127 5.48024,3.724 11.72528,1.854 11.72528,1.854 l 0.6631,0 0.33156,2.4779 6.79685,0 0,-33.60613 -6.29952,-0.30973 0,2.63273 -2.32087,-0.15486 c 0,0 -6.14048,-0.71247 -10.90206,2.83881 -6.44974,4.81034 -6.00719,8.46647 -6.00719,8.46647 z"
       id="path5994"
       style="fill:#4d4d4d;stroke:#000000;stroke-width:0.44864136px;stroke-linecap:butt;stroke-linejoin:miter;stroke-opacity:1" />
    <path
       d="m 350.67728,982.78899 12.9306,0 c 0,0 1.70883,-0.21903 1.65776,-2.09071 -0.0398,-1.45865 -1.98932,-1.70353 -1.98932,-1.70353 l -12.43326,0.0775 z"
       id="path5996"
       style="fill:#4d4d4d;stroke:#000000;stroke-width:0.44864136px;stroke-linecap:butt;stroke-linejoin:miter;stroke-opacity:1" />
    <path
       d="m 350.67671,999.16616 12.9306,0 c 0,0 1.70883,-0.21904 1.65777,-2.09071 -0.0398,-1.45864 -1.98932,-1.70353 -1.98932,-1.70353 l -12.43327,0.0775 z"
       id="path5996-0"
       style="fill:#4d4d4d;fill-opacity:1;stroke:#000000;stroke-width:0.44864136px;stroke-linecap:butt;stroke-linejoin:miter;stroke-opacity:1" />
    <path
       d="m 323.40699,988.8288 4.31019,-0.0775 c 0,0 1.31073,-5.20421 2.88917,-7.36242 0.7516,-1.02767 1.75588,-2.0165 2.99592,-2.47163 2.0322,-0.74589 6.54817,-0.15487 6.54817,-0.15487 l 1.57489,8.82742 0.33156,-8.51769 c 0,0 4.64174,-0.30973 4.72463,0 0.0829,0.30974 0.41444,25.24339 0.41444,25.24339 l -2.40376,0.077 -0.24867,-2.323 c 0,0 -7.69097,0.7043 -11.18994,-0.542 -2.10032,-0.7481 -3.92254,-1.812 -5.74084,-4.22633 -1.39914,-1.85777 -1.88489,-5.76264 -1.88489,-5.76264 l -2.48665,-0.2323 z"
       id="path6016"
       style="fill:#ffffff;stroke:none" />
    <rect
       width="6.4652982"
       height="0.92920136"
       x="332.6076"
       y="984.8797"
       id="rect6018"
       style="opacity:0.26893939;fill:#000000;fill-opacity:0.03921569;stroke:none" />
    <path
       d="m 332.40038,992.5456 -0.0414,0.81305 6.50673,0 -0.0414,-0.81305 z"
       id="path6020"
       style="fill:#4d4d4d;stroke:none" />
    <path
       d="m 332.131,986.44772 -0.0414,0.81304 6.50674,0 -0.0414,-0.81304 z"
       id="path6020-6"
       style="fill:#333333;stroke:none" />
    <path
       d="m 332.131,984.89905 -0.0414,0.81305 6.50674,0 -0.0414,-0.81305 z"
       id="path6020-5"
       style="fill:#333333;stroke:none" />
    <path
       d="m 332.13099,987.95767 -0.0414,0.81305 6.50674,0 -0.0414,-0.81305 z"
       id="path6020-6-2"
       style="fill:#333333;stroke:none" />
    <path
       d="m 332.21389,989.62248 -0.0414,0.81306 6.50674,0 -0.0414,-0.81306 z"
       id="path6020-6-2-7"
       style="fill:#333333;stroke:none" />
    <path
       d="m 332.29677,991.01629 -0.0414,0.81305 6.50675,0 -0.0414,-0.81305 z"
       id="path6020-6-2-7-6"
       style="fill:#4d4d4d;stroke:none" />
    <path
       d="m 350.67728,980.34984 0,1.8584 9.11772,-0.0387 -0.0829,-1.89712 z"
       id="path6101"
       style="fill:#ffffff;stroke:none" />
    <path
       d="m 350.80162,996.49471 0,1.8584 9.11772,-0.0387 -0.0829,-1.89711 z"
       id="path6101-8"
       style="fill:#ffffff;stroke:none" />
    <path
       d="m 375.70959,1005.3221 c 0.49733,-0.1548 28.01629,-0.077 28.01629,-0.077 0,0 2.23798,-1.1614 2.56954,-3.3296 0.33156,-2.16812 -0.91178,-25.63045 -0.91178,-25.63045 0,0 -2.23798,-3.63937 -5.96797,-3.25221 -3.72997,0.38717 -25.6954,0.2323 -25.6954,0.2323 0,0 -2.40377,0 -2.9011,2.24557 -0.49733,2.24558 0.24866,26.32729 0.24866,26.32729 0,0 1.65777,3.4846 4.64176,3.4846 z"
       id="path6121"
       style="fill:#ffffff;stroke:none" />
    <path
       d="m 385.57331,978.06555 c 0,0 -5.48475,2.01251 -6.93524,6.50616 -1.56383,4.84475 0.55283,8.67079 0.55283,8.67079 0,0 2.29092,5.38303 9.53045,5.88188 7.28651,0.50209 11.19166,-6.26905 11.19166,-6.26905 0,0 -3.71906,4.58357 -10.63598,3.44791 -5.94295,-0.97574 -7.97248,-5.53861 -7.97248,-5.53861 0,0 -1.4471,-2.33551 5e-5,-6.61016 0.78314,-2.31325 4.26871,-6.08892 4.26871,-6.08892 z"
       id="path6123"
       style="fill:#333333;stroke:none" />
    <path
       d="m 386.07144,171.46933 a 4.1071429,4.1071429 0 1 1 -8.21429,0 4.1071429,4.1071429 0 1 1 8.21429,0 z"
       transform="matrix(0.46417524,0,0,0.43362732,211.42471,908.28033)"
       id="path6131"
       style="fill:#4d4d4d;fill-opacity:1;stroke:none" />
    <path
       d="m 386.07144,171.46933 a 4.1071429,4.1071429 0 1 1 -8.21429,0 4.1071429,4.1071429 0 1 1 8.21429,0 z"
       transform="matrix(0.46417524,0,0,0.43362732,211.83915,915.63651)"
       id="path6131-6"
       style="fill:#4d4d4d;fill-opacity:1;stroke:none" />
    <path
       d="m -2.5025221,991.75455 c 0,0 91.2882631,-4.125 96.1914881,-0.89243 2.308589,1.522 0.124368,3.572 -1.998207,5.29915 -2.737735,2.22771 -5.304295,3.66582 -6.604852,4.54343 -4.883559,3.2951 -9.860784,7.9615 -7.87919,12.0006 2.420208,4.9331 8.111857,5.8083 14.875396,5.3662 9.807537,-0.6413 21.752317,-5.5021 30.057077,-8.5304 10.01215,-3.6509 15.03181,-14.65392 25.04954,-18.29139 16.47534,-5.98223 42.52238,-4.15025 45.12586,-1.45326 2.92607,3.03118 -2.282,7.647 0.13675,10.17812 11.37729,11.90593 34.11742,9.24003 50.84741,6.00723 11.5052,-2.2232 16.83419,-13.75896 30.34395,-16.75143 15.98459,-3.54065 49.17655,-3.02902 49.17655,-3.02902 l 0.27302,5.44812 c 0,0 -33.13091,-2.00056 -48.7205,2.32033 -10.09519,2.79803 -17.97437,12.636 -27.3217,14.8145 -10.09736,2.3531 -20.22045,2.9941 -29.6277,2.7246 -9.62566,-0.2758 -18.49286,-1.5469 -25.0157,-6.6515 -3.32554,-2.6023 -7.05053,-5.90164 -4.96758,-8.2103 8.12192,-9.00203 -28.59471,-7.97739 -40.39694,-3.82215 -6.64888,2.34089 -8.77131,6.85289 -13.30176,11.35215 -1.33747,1.3283 -7.66194,5.5839 -8.32853,5.8529 -9.33966,3.769 -44.31195,16.9479 -49.843679,2.6555 -1.204954,-3.1132 0.582075,-6.5104 3.935392,-9.4499 5.223732,-4.57902 12.196417,-7.80615 13.405123,-10.59996 0.537494,-1.24236 -1.493915,-1.00038 -3.164083,-1.24128 -5.084019,-0.73334 -92.2199785,1.6397 -92.2199785,1.6397 z"
       id="path6174"
       style="fill:#ffffff;stroke:#000000;stroke-width:1.03413451px;stroke-linecap:butt;stroke-linejoin:miter;stroke-opacity:1" />
  </g>
</svg>
