<?xml version="1.0" encoding="UTF-8" standalone="no"?>
<!-- Created with Inkscape (http://www.inkscape.org/) -->

<svg
   xmlns:dc="http://purl.org/dc/elements/1.1/"
   xmlns:cc="http://creativecommons.org/ns#"
   xmlns:rdf="http://www.w3.org/1999/02/22-rdf-syntax-ns#"
   xmlns:svg="http://www.w3.org/2000/svg"
   xmlns="http://www.w3.org/2000/svg"
   version="1.1"
   width="219"
   height="230"
   id="svg3039">
  <metadata
     id="metadata3045">
    <rdf:RDF>
      <cc:Work
         rdf:about="">
        <dc:format>image/svg+xml</dc:format>
        <dc:type
           rdf:resource="http://purl.org/dc/dcmitype/StillImage" />
        <dc:title></dc:title>
      </cc:Work>
    </rdf:RDF>
  </metadata>
  <defs
     id="defs3043" />
  <path
     d="m 120.64721,140.4447 a 39.595669,39.595669 0 1 1 -79.191342,0 39.595669,39.595669 0 1 1 79.191342,0 z"
     transform="matrix(0.95465147,0,0,0.95465147,1.9561865,-9.0874913)"
     id="path3873"
     style="fill:#00aad4;fill-opacity:1;stroke:#000000;stroke-opacity:1" />
  <path
     d="m 99.790931,142.21181 2.621019,1.6089 2.8655,-4.54434 4.53858,2.83993 1.7169,-2.61863 -4.49667,-3.01062 2.80282,-4.58389 -2.70106,-1.72508 -2.76909,4.49567 -4.581489,-2.91083 -1.73906,2.75796 4.587269,2.93637 z"
     id="path3963-5"
     style="fill:#f9f9f9;stroke:#000000;stroke-width:0.05447523px;stroke-linecap:butt;stroke-linejoin:miter;stroke-opacity:1" />
  <path
     d="m 41.66938,119.20424 c 0,0 12.899773,16.52398 35.433568,15.13039 22.533773,-1.3936 38.046162,-12.54231 37.719592,-22.89467 -0.32657,-10.35237 -2.93919,-15.528547 -2.93919,-15.528547 l 10.12388,-5.773436 0.32657,-6.569774 -45.557432,-5.375269 -50.2928,13.736802 0,5.972521 16.492116,3.981673 c 0,0 -1.95946,14.73221 -1.306304,17.32031 z"
     id="path3049"
     style="fill:#241f1c;stroke:#000000;stroke-width:0.47975484px;stroke-linecap:butt;stroke-linejoin:miter;stroke-opacity:1" />
  <path
     d="m 42.812402,101.88393 37.556306,7.5652 31.841222,-13.7368 -0.16328,-0.398169"
     id="path3819"
     style="fill:#241f1c;stroke:#000000;stroke-width:0.47975484px;stroke-linecap:butt;stroke-linejoin:miter;stroke-opacity:1" />
  <path
     d="m 26.646856,92.12882 c 0,0 52.415542,10.94962 53.395272,11.1487 0.97974,0.19908 42.128372,-19.510233 42.128372,-19.510233 l 0,0"
     id="path3823"
     style="fill:none;stroke:#000000;stroke-width:0.47975484px;stroke-linecap:butt;stroke-linejoin:miter;stroke-opacity:1" />
  <path
     d="m 102.57591,140.50623 4.24551,0.19909 2.61259,48.37742 -2.77589,0.39816 0,1.99083 -2.44932,0 0,-1.59267 -1.95945,0 0,-1.19449 -1.30631,-0.39818 z"
     id="path3841"
     style="fill:#ffff00;stroke:#000000;stroke-width:0.47975484px;stroke-linecap:butt;stroke-linejoin:miter;stroke-opacity:1" />
  <path
     d="m 102.25387,188.52067 1.62836,-48.01444 0.16327,-0.19909 0,0 0,0"
     id="path3843"
     style="fill:none;stroke:#000000;stroke-width:0.47975484px;stroke-linecap:butt;stroke-linejoin:miter;stroke-opacity:1" />
  <path
     d="m 104.19974,189.91426 0.54676,-49.21895"
     id="path3845"
     style="fill:#ffff00;fill-opacity:1;stroke:#000000;stroke-width:0.47975484px;stroke-linecap:butt;stroke-linejoin:miter;stroke-opacity:1" />
  <path
     d="m 106.68162,189.24111 -0.78221,-48.36086"
     id="path3847"
     style="fill:#ffff00;stroke:#000000;stroke-width:0.47975484px;stroke-linecap:butt;stroke-linejoin:miter;stroke-opacity:1" />
  <path
     d="m 70.359235,89.102709 c 0,0 1.309872,2.573963 7.044313,2.150333 5.59114,-0.41305 5.9761,-1.649087 5.9761,-1.649087 0,0 1.86744,-1.772846 -1.49265,-4.483108 -2.71588,-2.190647 -4.9126,-1.927095 -4.9126,-1.927095 0,0 -2.264044,-0.126222 -4.528785,1.768815 -2.180582,1.824611 -2.185157,4.230461 -2.086378,4.140142 z"
     id="path3851"
     style="fill:#4d4d4d;stroke:#000000;stroke-width:0.47975484px;stroke-linecap:butt;stroke-linejoin:miter;stroke-opacity:1" />
  <path
     d="m 70.590161,87.906135 c 0,0 1.373547,1.064883 3.012896,1.491748 1.059298,0.275823 3.164321,0.267919 3.164321,0.267919 0,0 2.55783,-0.05267 3.78202,-0.449007 2.539,-0.822097 3.08799,-1.732983 3.08799,-1.732983"
     id="path3853"
     style="fill:none;stroke:#000000;stroke-width:0.47975484px;stroke-linecap:butt;stroke-linejoin:miter;stroke-opacity:1" />
  <path
     d="m 48.998711,125.98541 c 0,0 0.230926,-16.18897 1.731935,-17.03362 1.501008,-0.84464 19.353829,6.9332 29.096492,5.49018 11.0123,-1.63108 30.712942,-15.625873 30.712942,-15.625873 0,0 4.73623,9.635583 3.1175,14.077353 -4.8574,13.3287 -20.157212,17.64912 -31.983052,19.8491 -10.921097,2.03166 -32.675817,-6.75714 -32.675817,-6.75714 z"
     id="path3859"
     style="opacity:0.07575755;fill:#f4eed7;stroke:none" />
  <path
     d="m 84.614198,131.54745 c 0,0 13.018373,-1.98166 18.614882,-5.77343 4.18926,-2.83834 8.73747,-6.64977 10.36879,-12.14413 0.86113,-2.90024 -0.22964,-6.20301 -0.83939,-9.1965 -0.44154,-2.16771 -2.0998,-5.53572 -2.0998,-5.53572 l -6.8581,4.47939 c 0,0 1.17209,10.3293 -0.97973,14.83176 -3.564609,7.45857 -18.206652,13.33863 -18.206652,13.33863 z"
     id="path3857"
     style="opacity:0.41287878;fill:#4d4d4d;stroke:none" />
  <path
     d="m 80.899398,89.092784 c 0,0 -0.65093,-1.862759 -1.46625,-2.445741 -0.99446,-0.711064 -4.085553,-1.834565 -4.085553,-1.834565 0,0 3.186333,-0.075 4.657033,0.484752 1.10108,0.419077 3.26245,2.601048 3.26245,2.601048 l -1.26548,0.796338 z"
     id="path3861"
     style="opacity:0.39393939;fill:#918a6f;stroke:none" />
  <path
     d="m 170.99672,114.81209 a 9.583333,9.583333 0 1 1 -19.16666,0 9.583333,9.583333 0 1 1 19.16666,0 z"
     transform="matrix(0.43448887,0,0,0.52973665,34.811275,75.405757)"
     id="path3829"
     style="fill:#000000;fill-opacity:0.99166667;stroke:none" />
  <path
     d="m 162.36882,116.19567 a 6.7764401,6.5771327 0 1 1 -13.55288,0 6.7764401,6.5771327 0 1 1 13.55288,0 z"
     transform="matrix(0.43448887,0,0,0.52973665,37.452486,74.95514)"
     id="path3863"
     style="opacity:0.67000002;fill:#241c1c;fill-opacity:0.99166667;stroke:none" />
  <path
     d="m 52.000727,96.986034 3.348411,-0.703867 24.59346,5.208613 27.133632,-12.106526 1.96285,0.140774 -28.865562,13.514272 z"
     id="path3867"
     style="opacity:0.47348483;fill:#e2e3db;stroke:none" />
  <path
     d="m 83.307898,89.540724 c 0,0 9.57929,-1.031948 14.206083,0.199085 2.09497,0.557396 4.515959,1.166547 5.878369,3.18534 1.63175,2.417877 1.78003,6.027745 1.71454,9.157861 -0.0695,3.32311 -0.18117,6.24585 -0.40823,9.35695 -0.19446,2.66458 -0.38249,5.53838 -0.49892,8.20971 -0.15888,3.64534 -0.15424,10.70328 -0.15424,10.70328 0,0 -0.86308,1.92259 -0.42221,2.86568 0.43085,0.92163 1.37805,0.9537 1.79513,0.85624 0.91315,-0.21339 1.09288,-1.08275 0.96096,-2.04782 0,0 -0.28606,-1.05709 -0.78263,-1.57456 -0.57169,-0.5959 -0.18872,-10.11754 -0.014,-15.22389 0.0989,-2.89075 0.37764,-5.86545 0.57074,-8.7726 0.0807,-1.21544 0.17395,-1.97387 0.23495,-3.57665 0.12586,-3.306795 0.12105,-7.076926 -1.52647,-9.755116 -1.69733,-2.759056 -3.12014,-3.047992 -3.91298,-3.522093 -1.005539,-0.601304 -3.045589,-1.299839 -5.937572,-1.559171 -1.71742,-0.154008 -3.76214,-0.241044 -5.54249,-0.198868 -3.04873,0.07221 -5.50292,0.05771 -5.50292,0.05771"
     id="path3855"
     style="fill:#ffff00;stroke:#000000;stroke-width:0.47975484px;stroke-linecap:butt;stroke-linejoin:miter;stroke-opacity:1" />
  <path
     d="m 104.70264,127.95479 a 18.070507,18.070507 0 1 1 -36.141014,0 18.070507,18.070507 0 1 1 36.141014,0 z"
     transform="matrix(0.92969332,0,0,0.92969332,-3.7581835,62.723198)"
     id="path3875"
     style="fill:#00aad4;fill-opacity:1;stroke:#000000;stroke-opacity:1" />
  <path
     d="m 104.70264,127.95479 a 18.070507,18.070507 0 1 1 -36.141014,0 18.070507,18.070507 0 1 1 36.141014,0 z"
     transform="matrix(0.92969332,0,0,0.92969332,55.224556,16.627321)"
     id="path3875-5"
     style="fill:#00aad4;fill-opacity:1;stroke:#000000;stroke-opacity:1" />
  <path
     d="m 76.731448,150.31053 2.82177,1.52306 2.71977,-4.89682 4.88932,2.69349 1.63562,-2.82553 -4.85557,-2.87361 2.65223,-4.93435 -2.91184,-1.63935 -2.62222,4.84054 -4.9381,-2.7648 -1.650613,2.97187 4.945613,2.79105 z"
     id="path3963"
     style="fill:#f9f9f9;stroke:#000000;stroke-width:0.05679788px;stroke-linecap:butt;stroke-linejoin:miter;stroke-opacity:1" />
  <path
     d="m 199.183,63.137257 a 38.333332,38.333332 0 1 1 -76.66666,0 38.333332,38.333332 0 1 1 76.66666,0 z"
     transform="matrix(0.93537094,0,0,0.93537094,20.090141,-5.8377426)"
     id="path4131"
     style="fill:#ffffff;fill-opacity:1;stroke:none" />
  <path
     d="m 143.12505,70.09237 -4.21834,18.98253 16.87336,-7.733625 z"
     id="path4133"
     style="fill:#ffffff;stroke:none" />
  <text
     x="161.4045"
     y="67.744766"
     id="text4135"
     xml:space="preserve"
     style="font-size:37.41483688px;font-style:normal;font-weight:normal;line-height:125%;letter-spacing:0px;word-spacing:0px;fill:#000000;fill-opacity:1;stroke:none;font-family:Sans"><tspan
       x="161.4045"
       y="67.744766"
       id="tspan4137"
       style="fill:#000000">?</tspan></text>
</svg>
