<?xml version="1.0" encoding="UTF-8" standalone="no"?>
<!-- Created with Inkscape (http://www.inkscape.org/) -->

<svg
   xmlns:dc="http://purl.org/dc/elements/1.1/"
   xmlns:cc="http://creativecommons.org/ns#"
   xmlns:rdf="http://www.w3.org/1999/02/22-rdf-syntax-ns#"
   xmlns:svg="http://www.w3.org/2000/svg"
   xmlns="http://www.w3.org/2000/svg"
   version="1.1"
   width="219"
   height="230"
   id="svg3039">
  <metadata
     id="metadata3045">
    <rdf:RDF>
      <cc:Work
         rdf:about="">
        <dc:format>image/svg+xml</dc:format>
        <dc:type
           rdf:resource="http://purl.org/dc/dcmitype/StillImage" />
        <dc:title></dc:title>
      </cc:Work>
    </rdf:RDF>
  </metadata>
  <defs
     id="defs3043">
    <clipPath
       id="clipPath3787">
      <path
         d="m 79.436518,166.82641 c 0,0 10.682337,-11.72277 35.317892,-12.05976 30.48798,-0.41704 38.76353,10.6815 38.76353,10.6815 l -9.8201,16.36683 c 0,0 -68.051534,-5.16847 -63.744475,-5.16847 4.307059,0 -0.516847,-9.8201 -0.516847,-9.8201 z"
         id="path3789"
         style="fill:none;stroke:#000000;stroke-width:1px;stroke-linecap:butt;stroke-linejoin:miter;stroke-opacity:1" />
    </clipPath>
    <clipPath
       id="clipPath3842">
      <path
         d="m 163.85488,158.38458 -7.06357,3.96249 9.30324,-11.54292 -13.6103,9.8201 6.71901,-16.19455 -12.7489,13.26575 4.82391,-17.22824 -10.68151,15.84998 2.06739,-18.08965 -8.7864,16.19454 0,-17.74508 -3.27337,6.89129 -1.37825,-7.92499 -8.26956,16.19455 -4.30706,-16.88368 -3.10108,17.40052 -6.20217,-16.71139 -1.8951,16.19455 -7.752711,-16.19455 -1.722823,19.29563 -12.059766,-16.36683 3.101082,13.09346 -10.853789,-11.02607 2.411953,10.50923 -9.820095,-6.8913 12.059766,13.61031 -17.40052,-9.47553 13.438025,13.61031 -15.505413,-8.61412 11.026072,8.09727 -2.067389,1.55054 6.719013,1.55054 -0.516847,1.72283 0,0 -11.198355,-1.0337 -8.097271,-20.15704 24.980944,-10.16466 37.212994,-2.9288 c 0,0 49.78961,8.44184 50.65102,9.8201 0.86141,1.37826 0,18.77878 0,18.77878 z"
         id="path3844"
         style="fill:#000000;stroke:#000000;stroke-width:1px;stroke-linecap:butt;stroke-linejoin:miter;stroke-opacity:1" />
    </clipPath>
  </defs>
  <path
     d="m 166.65255,153.25212 a 52.383476,18.273306 0 1 1 -104.766953,0 52.383476,18.273306 0 1 1 104.766953,0 z"
     transform="matrix(1.2379063,0,0,1.2379063,-50.734718,1.0522102)"
     id="path3007"
     style="fill:#dbe3de;fill-opacity:1;stroke:#000000;stroke-width:0.40000001;stroke-miterlimit:4;stroke-opacity:1;stroke-dasharray:none" />
  <path
     d="m 117.60497,119.53203 a 38.186467,38.186467 0 0 1 -76.372927,0 38.186467,38.186467 0 1 1 76.372927,0 z"
     id="path3873"
     style="fill:#00aad4;fill-opacity:1;stroke:none" />
  <path
     d="m 41.370734,113.6889 c 0,0 13.031637,16.6929 35.795782,15.28507 22.76411,-1.40785 38.435084,-12.67053 38.105164,-23.12871 -0.3299,-10.458196 -2.96923,-15.687286 -2.96923,-15.687286 l 10.22736,-5.832458 0.32992,-6.636929 -46.023134,-5.430217 -50.806907,13.877225 0,6.033568 16.660702,4.022379 c 0,0 -1.979489,14.882808 -1.319657,17.497358 z"
     id="path3049"
     style="fill:#241f1c;stroke:#000000;stroke-width:0.48465899px;stroke-linecap:butt;stroke-linejoin:miter;stroke-opacity:1" />
  <path
     d="m 42.52544,96.191542 37.940216,7.642538 32.166714,-13.877229 -0.16495,-0.402233"
     id="path3819"
     style="fill:#241f1c;stroke:#000000;stroke-width:0.48465899px;stroke-linecap:butt;stroke-linejoin:miter;stroke-opacity:1" />
  <path
     d="m 26.194646,86.336718 c 0,0 52.95135,11.061547 53.94109,11.262658 0.98976,0.20111 42.559014,-19.709671 42.559014,-19.709671 l 0,0"
     id="path3823"
     style="fill:none;stroke:#000000;stroke-width:0.48465899px;stroke-linecap:butt;stroke-linejoin:miter;stroke-opacity:1" />
  <path
     d="m 102.89987,135.20864 4.2889,0.20114 2.63931,48.87193 -2.80427,0.40223 0,2.01118 -2.47436,0 0,-1.60894 -1.97948,0 0,-1.2067 -1.31966,-0.40226 z"
     id="path3841"
     style="fill:#ffff00;stroke:#000000;stroke-width:0.48465899px;stroke-linecap:butt;stroke-linejoin:miter;stroke-opacity:1" />
  <path
     d="m 102.57454,183.7139 1.645,-48.50526 0.16494,-0.20112 0,0 0,0"
     id="path3843"
     style="fill:none;stroke:#000000;stroke-width:0.48465899px;stroke-linecap:butt;stroke-linejoin:miter;stroke-opacity:1" />
  <path
     d="m 104.5403,185.12173 0.55235,-49.72207"
     id="path3845"
     style="fill:#ffff00;fill-opacity:1;stroke:#000000;stroke-width:0.48465899px;stroke-linecap:butt;stroke-linejoin:miter;stroke-opacity:1" />
  <path
     d="m 107.04755,184.4417 -0.7902,-48.85521"
     id="path3847"
     style="fill:#ffff00;stroke:#000000;stroke-width:0.48465899px;stroke-linecap:butt;stroke-linejoin:miter;stroke-opacity:1" />
  <path
     d="m 70.353863,83.279671 c 0,0 1.323262,2.600272 7.116323,2.172315 5.64829,-0.417273 6.03719,-1.665949 6.03719,-1.665949 0,0 1.88653,-1.790966 -1.50791,-4.52893 -2.74364,-2.213045 -4.96282,-1.946799 -4.96282,-1.946799 0,0 -2.28719,-0.127513 -4.57508,1.786898 -2.20287,1.843255 -2.207492,4.273699 -2.107703,4.182465 z"
     id="path3851"
     style="fill:#4d4d4d;stroke:#000000;stroke-width:0.48465899px;stroke-linecap:butt;stroke-linejoin:miter;stroke-opacity:1" />
  <path
     d="m 70.58715,82.070868 c 0,0 1.387588,1.075765 3.043696,1.50699 1.07012,0.27864 3.19667,0.270656 3.19667,0.270656 0,0 2.58397,-0.05323 3.82068,-0.453594 2.56495,-0.830499 3.11956,-1.750697 3.11956,-1.750697"
     id="path3853"
     style="fill:none;stroke:#000000;stroke-width:0.48465899px;stroke-linecap:butt;stroke-linejoin:miter;stroke-opacity:1" />
  <path
     d="m 48.774988,120.53939 c 0,0 0.233285,-16.35445 1.749638,-17.20774 1.516352,-0.85328 19.551668,7.00407 29.39392,5.5463 11.12488,-1.64775 31.026904,-15.785606 31.026904,-15.785606 0,0 4.78464,9.734076 3.14937,14.221256 -4.90705,13.46495 -20.363274,17.82954 -32.309994,20.052 -11.032737,2.05243 -33.009838,-6.82621 -33.009838,-6.82621 z"
     id="path3859"
     style="opacity:0.07575755;fill:#f4eed7;stroke:none" />
  <path
     d="m 84.754536,126.15828 c 0,0 13.15146,-2.00191 18.805174,-5.83244 4.23208,-2.86735 8.8268,-6.71775 10.47478,-12.26827 0.86994,-2.92989 -0.23198,-6.26642 -0.84796,-9.290502 -0.44606,-2.189869 -2.12127,-5.592316 -2.12127,-5.592316 l -6.9282,4.525179 c 0,0 1.18407,10.434899 -0.98974,14.983369 -3.601064,7.53482 -18.392784,13.47498 -18.392784,13.47498 z"
     id="path3857"
     style="opacity:0.41287878;fill:#4d4d4d;stroke:none" />
  <path
     d="m 81.001766,83.269644 c 0,0 -0.65758,-1.881803 -1.48123,-2.47075 -1.00463,-0.718332 -4.12732,-1.853313 -4.12732,-1.853313 0,0 3.2189,-0.07577 4.70464,0.48971 1.11233,0.423364 3.2958,2.627629 3.2958,2.627629 l -1.27842,0.804479 z"
     id="path3861"
     style="opacity:0.39393939;fill:#918a6f;stroke:none" />
  <path
     d="m 109.49817,130.88459 a 4.2064153,5.1285373 0 0 1 -8.41282,0 4.2064153,5.1285373 0 1 1 8.41282,0 z"
     id="path3829"
     style="fill:#000000;fill-opacity:0.99166667;stroke:none" />
  <path
     d="m 108.37933,131.1698 a 2.9743849,3.519764 0 1 1 -5.94876,0 2.9743849,3.519764 0 1 1 5.94876,0 z"
     id="path3863"
     style="opacity:0.67000002;fill:#241c1c;fill-opacity:0.99166667;stroke:none" />
  <path
     d="m 51.80769,91.243581 3.38264,-0.711066 24.844856,5.261857 27.411014,-12.23028 1.98291,0.142211 -29.160644,13.652424 z"
     id="path3867"
     style="opacity:0.47348483;fill:#e2e3db;stroke:none" />
  <path
     d="m 83.434896,83.722161 c 0,0 9.67721,-1.042503 14.35129,0.201122 2.11639,0.563087 4.562134,1.178475 5.938464,3.217901 1.64844,2.442587 1.79824,6.08936 1.73207,9.251468 -0.0702,3.357078 -0.18303,6.309698 -0.4124,9.452608 -0.19645,2.69181 -0.3864,5.59499 -0.50402,8.29362 -0.16051,3.68261 -0.15582,10.81269 -0.15582,10.81269 0,0 -0.87191,1.94225 -0.42653,2.89498 0.43526,0.93106 1.39214,0.96345 1.81348,0.86499 0.92249,-0.21557 1.10405,-1.09381 0.97079,-2.06875 0,0 -0.28899,-1.06789 -0.79064,-1.59066 -0.57753,-0.60198 -0.19065,-10.22096 -0.0141,-15.3795 0.0999,-2.92031 0.3815,-5.92541 0.57658,-8.86229 0.0816,-1.227851 0.17572,-1.994041 0.23735,-3.613197 0.12715,-3.340602 0.1223,-7.149269 -1.54208,-9.854837 -1.71467,-2.78727 -3.15203,-3.079156 -3.95297,-3.558101 -1.01582,-0.607454 -3.076734,-1.313122 -5.998274,-1.575113 -1.73498,-0.15558 -3.8006,-0.243508 -5.59915,-0.200899 -3.07989,0.07291 -5.55917,0.0583 -5.55917,0.0583"
     id="path3855"
     style="fill:#ffff00;stroke:#000000;stroke-width:0.48465899px;stroke-linecap:butt;stroke-linejoin:miter;stroke-opacity:1" />
  <path
     d="m 153.40086,130.23816 a 16.971764,16.971764 0 0 1 -33.94352,0 16.971764,16.971764 0 1 1 33.94352,0 z"
     id="path3875-5"
     style="fill:#00aad4;fill-opacity:1;stroke:none" />
  <path
     d="m 207.7854,47.029161 a 36.222412,36.222412 0 1 1 -72.44482,0 36.222412,36.222412 0 1 1 72.44482,0 z"
     id="path4131"
     style="fill:#ffffff;fill-opacity:1;stroke:none" />
  <path
     d="m 143.86351,64.075001 -4.26147,19.17657 17.04584,-7.812676 z"
     id="path4133"
     style="fill:#ffffff;stroke:none" />
  <text
     x="162.32982"
     y="61.703396"
     id="text4135"
     xml:space="preserve"
     style="font-size:37.79729843px;font-style:normal;font-weight:normal;line-height:125%;letter-spacing:0px;word-spacing:0px;fill:#000000;fill-opacity:1;stroke:none;font-family:Sans"><tspan
       x="162.32982"
       y="61.703396"
       id="tspan4137"
       style="fill:#000000">?</tspan></text>
  <path
     d="m 166.65255,153.25212 a 52.383476,18.273306 0 1 1 -104.766953,0 52.383476,18.273306 0 1 1 104.766953,0 z"
     transform="matrix(1.2379063,0,0,1.2379063,-51.587796,0.61386523)"
     clip-path="url(#clipPath3787)"
     id="path3007-7"
     style="fill:#000000;fill-opacity:1;stroke:#000000;stroke-opacity:1" />
  <path
     d="m 166.65255,153.25212 a 52.383476,18.273306 0 1 1 -104.766953,0 52.383476,18.273306 0 1 1 104.766953,0 z"
     transform="matrix(1.2379063,0,0,1.2379063,-50.131508,1.2644932)"
     clip-path="url(#clipPath3842)"
     id="path3007-0"
     style="opacity:0.05681817;fill:#1a1a1a;fill-opacity:1;stroke:none" />
  <path
     d="m 93.815196,176.80523 a 16.971767,16.971767 0 0 1 -33.943533,0 16.971767,16.971767 0 1 1 33.943533,0 z"
     id="path3875"
     style="fill:#00aad4;fill-opacity:1;stroke:none" />
</svg>
