<?xml version="1.0" encoding="UTF-8" standalone="no"?>
<!-- Generator: Adobe Illustrator 16.0.0, SVG Export Plug-In . SVG Version: 6.00 Build 0)  -->

<svg
   xmlns:dc="http://purl.org/dc/elements/1.1/"
   xmlns:cc="http://creativecommons.org/ns#"
   xmlns:rdf="http://www.w3.org/1999/02/22-rdf-syntax-ns#"
   xmlns:svg="http://www.w3.org/2000/svg"
   xmlns="http://www.w3.org/2000/svg"
   xmlns:sodipodi="http://sodipodi.sourceforge.net/DTD/sodipodi-0.dtd"
   xmlns:inkscape="http://www.inkscape.org/namespaces/inkscape"
   version="1.1"
   id="Capa_1"
   x="0px"
   y="0px"
   width="24px"
   height="24px"
   viewBox="0 0 24 24"
   enable-background="new 0 0 24 24"
   xml:space="preserve"
   inkscape:version="0.48.4 r9939"
   sodipodi:docname="calendario.svg"><metadata
     id="metadata19"><rdf:RDF><cc:Work
         rdf:about=""><dc:format>image/svg+xml</dc:format><dc:type
           rdf:resource="http://purl.org/dc/dcmitype/StillImage" /><dc:title></dc:title></cc:Work></rdf:RDF></metadata><defs
     id="defs17" /><sodipodi:namedview
     pagecolor="#ffffff"
     bordercolor="#666666"
     borderopacity="1"
     objecttolerance="10"
     gridtolerance="10"
     guidetolerance="10"
     inkscape:pageopacity="0"
     inkscape:pageshadow="2"
     inkscape:window-width="1280"
     inkscape:window-height="776"
     id="namedview15"
     showgrid="false"
     inkscape:zoom="9.8333333"
     inkscape:cx="12"
     inkscape:cy="12"
     inkscape:window-x="0"
     inkscape:window-y="24"
     inkscape:window-maximized="1"
     inkscape:current-layer="Capa_1" /><g
     id="g3"
     transform="matrix(0.88813559,0,0,0.88813559,1.4542373,-0.09152542)"><path
       d="M 3.008,8 3,19 c 0,1.1 0.89,2 2,2 h 14 c 1.1,0 2,-0.9 2,-2 V 8 H 3.008 z"
       id="path5"
       inkscape:connector-curvature="0"
       style="opacity:0.8;fill:#d7ccc8" /><rect
       x="6.9390001"
       y="9.9759998"
       width="5"
       height="5"
       id="rect7"
       style="opacity:0.8;fill:#42a5f5" /><path
       d="M 21,5 C 21,3.9 20.1,3 19,3 H 5 C 3.89,3 3.01,3.9 3.01,5 L 3.008,8 H 21 V 5 z"
       id="path9"
       inkscape:connector-curvature="0"
       style="opacity:0.8;fill:#c2185b" /><path
       d="M 8,5 H 6 V 1 H 8 V 5 z M 18,1 h -2 v 4 h 2 V 1 z"
       id="path11"
       inkscape:connector-curvature="0"
       style="opacity:0.8;fill:#a1887f" /></g><path
     d="M0,0h24v24H0V0z"
     id="path13"
     fill="none" /><text
     xml:space="preserve"
     style="font-size:5.04504538px;font-style:normal;font-variant:normal;font-weight:normal;font-stretch:normal;line-height:125%;letter-spacing:0px;word-spacing:0px;fill:#cccccc;fill-opacity:1;stroke:none;font-family:Courier 10 Pitch;-inkscape-font-specification:Courier 10 Pitch"
     x="4.809432"
     y="19.716724"
     id="text3006"
     sodipodi:linespacing="125%"
     transform="scale(0.85544368,1.168984)"><tspan
       sodipodi:role="line"
       id="tspan3008"
       x="4.809432"
       y="19.716724"
       style="font-size:2.56633091px">CALENDARIO</tspan></text>
</svg>