<?xml version="1.0" encoding="UTF-8" standalone="no"?>
<!-- Generator: Adobe Illustrator 16.0.0, SVG Export Plug-In . SVG Version: 6.00 Build 0)  -->

<svg
   xmlns:dc="http://purl.org/dc/elements/1.1/"
   xmlns:cc="http://creativecommons.org/ns#"
   xmlns:rdf="http://www.w3.org/1999/02/22-rdf-syntax-ns#"
   xmlns:svg="http://www.w3.org/2000/svg"
   xmlns="http://www.w3.org/2000/svg"
   xmlns:sodipodi="http://sodipodi.sourceforge.net/DTD/sodipodi-0.dtd"
   xmlns:inkscape="http://www.inkscape.org/namespaces/inkscape"
   version="1.1"
   id="Capa_1"
   x="0px"
   y="0px"
   width="24px"
   height="24px"
   viewBox="0 0 24 24"
   enable-background="new 0 0 24 24"
   xml:space="preserve"
   inkscape:version="0.48.4 r9939"
   sodipodi:docname="noticias.svg"><metadata
     id="metadata19"><rdf:RDF><cc:Work
         rdf:about=""><dc:format>image/svg+xml</dc:format><dc:type
           rdf:resource="http://purl.org/dc/dcmitype/StillImage" /><dc:title></dc:title></cc:Work></rdf:RDF></metadata><defs
     id="defs17" /><sodipodi:namedview
     pagecolor="#ffffff"
     bordercolor="#666666"
     borderopacity="1"
     objecttolerance="10"
     gridtolerance="10"
     guidetolerance="10"
     inkscape:pageopacity="0"
     inkscape:pageshadow="2"
     inkscape:window-width="1280"
     inkscape:window-height="776"
     id="namedview15"
     showgrid="false"
     inkscape:zoom="13.906433"
     inkscape:cx="4.5085065"
     inkscape:cy="8.3320278"
     inkscape:window-x="0"
     inkscape:window-y="24"
     inkscape:window-maximized="1"
     inkscape:current-layer="Capa_1" /><path
     d="M0,0h24v24H0V0z"
     id="path13"
     fill="none" /><text
     xml:space="preserve"
     style="font-size:5.56867552px;font-style:normal;font-variant:normal;font-weight:normal;font-stretch:normal;line-height:125%;letter-spacing:0px;word-spacing:0px;fill:#cccccc;fill-opacity:1;stroke:none;font-family:Courier 10 Pitch;-inkscape-font-specification:Courier 10 Pitch"
     x="3.4410703"
     y="22.195248"
     id="text3006"
     sodipodi:linespacing="125%"
     transform="scale(0.94423099,1.0590629)"><tspan
       sodipodi:role="line"
       id="tspan3008"
       x="3.4410703"
       y="22.195248"
       style="font-size:2.83269286px">CONDICIONES</tspan></text>
<path
     style="fill:none"
     inkscape:connector-curvature="0"
     d="M 0.35593226,-2.3389831 H 24.355933 V 21.661017 H 0.35593226 V -2.3389831 z"
     id="path3" /><path
     style="fill:none"
     inkscape:connector-curvature="0"
     d="M -0.20338982,-1.8813559 H 23.79661 V 22.118644 H -0.20338982 V -1.8813559 z"
     id="path7" /><path
     style="fill:none"
     inkscape:connector-curvature="0"
     d="M 0.71186441,-1.881356 H 24.711865 v 24 H 0.71186441 v -24 z"
     id="path7-7" /><path
     style="fill:none"
     inkscape:connector-curvature="0"
     d="M 0.2033898,-1.9830509 H 24.20339 V 22.01695 H 0.2033898 V -1.9830509 z"
     id="path3-8" /><path
     style="fill:none"
     inkscape:connector-curvature="0"
     d="m 11.949153,1.1277966 v 0.94 c 3.641,0 6.67,2.59 7.359,6.0400004 2.591,0.18 4.641,2.32 4.641,4.96 0,2.76 -2.24,5 -5,5 h -7 v 3.061 h 12 v 0.939 H -0.05084726 V -1.9322034 H 23.949153 v 3.06 h -12 z"
     id="path3-7" /><g
     transform="matrix(0.83657008,0,0,0.83657008,2.3687585,0.29841778)"
     id="Capa_1-8"><path
       style="fill:#1976d2"
       inkscape:connector-curvature="0"
       d="m 21,5 v 6 C 21,16.55 17.16,21.74 12,23 6.84,21.74 3,16.55 3,11 V 5 l 9,-4 9,4 z"
       id="path5-8" /><path
       style="fill:#1e88e5"
       inkscape:connector-curvature="0"
       d="M 12,1 V 23 C 6.84,21.74 3,16.55 3,11 V 5 l 9,-4 z"
       id="path7-63" /><path
       style="fill:#42a5f5"
       inkscape:connector-curvature="0"
       d="m 11.984,3.172 -7,3.125 L 5,12 c 0,0 0.219,7.5 7,8.906 0,0 4.766,-0.516 7,-8.938 L 19.063,6.374 11.984,3.172 z"
       id="path9" /><path
       style="fill:#ffe082"
       inkscape:connector-curvature="0"
       d="m 12,11.99 h 7 c -0.529,4.119 -3.094,7.869 -7,8.939 V 12 H 5 V 6.3 l 7,-3.11 v 8.8 z"
       id="path11-5" /></g></svg>