<?xml version="1.0" encoding="UTF-8" standalone="no"?>
<!-- Generator: Adobe Illustrator 16.0.0, SVG Export Plug-In . SVG Version: 6.00 Build 0)  -->

<svg
   xmlns:dc="http://purl.org/dc/elements/1.1/"
   xmlns:cc="http://creativecommons.org/ns#"
   xmlns:rdf="http://www.w3.org/1999/02/22-rdf-syntax-ns#"
   xmlns:svg="http://www.w3.org/2000/svg"
   xmlns="http://www.w3.org/2000/svg"
   xmlns:sodipodi="http://sodipodi.sourceforge.net/DTD/sodipodi-0.dtd"
   xmlns:inkscape="http://www.inkscape.org/namespaces/inkscape"
   version="1.1"
   id="Capa_1"
   x="0px"
   y="0px"
   width="24px"
   height="24px"
   viewBox="0 0 24 24"
   enable-background="new 0 0 24 24"
   xml:space="preserve"
   inkscape:version="0.48.4 r9939"
   sodipodi:docname="confi.svg"><metadata
     id="metadata19"><rdf:RDF><cc:Work
         rdf:about=""><dc:format>image/svg+xml</dc:format><dc:type
           rdf:resource="http://purl.org/dc/dcmitype/StillImage" /><dc:title></dc:title></cc:Work></rdf:RDF></metadata><defs
     id="defs17" /><sodipodi:namedview
     pagecolor="#ffffff"
     bordercolor="#666666"
     borderopacity="1"
     objecttolerance="10"
     gridtolerance="10"
     guidetolerance="10"
     inkscape:pageopacity="0"
     inkscape:pageshadow="2"
     inkscape:window-width="1280"
     inkscape:window-height="776"
     id="namedview15"
     showgrid="false"
     inkscape:zoom="19.666667"
     inkscape:cx="14.694165"
     inkscape:cy="12.864407"
     inkscape:window-x="0"
     inkscape:window-y="24"
     inkscape:window-maximized="1"
     inkscape:current-layer="Capa_1" /><path
     d="M0,0h24v24H0V0z"
     id="path13"
     fill="none" /><text
     xml:space="preserve"
     style="font-size:5.56867552px;font-style:normal;font-variant:normal;font-weight:normal;font-stretch:normal;line-height:125%;letter-spacing:0px;word-spacing:0px;fill:#cccccc;fill-opacity:1;stroke:none;font-family:Courier 10 Pitch;-inkscape-font-specification:Courier 10 Pitch"
     x="-0.50916266"
     y="22.195248"
     id="text3006"
     sodipodi:linespacing="125%"
     transform="scale(0.94423099,1.0590629)"><tspan
       sodipodi:role="line"
       id="tspan3008"
       x="-0.50916266"
       y="22.195248"
       style="font-size:2.83269285999999987px;fill:#333333">CONFI<tspan
   style="font-size:2.69999998999999979px;fill:#333333"
   id="tspan3654">GURACIÓN</tspan></tspan></text>
<path
     style="fill:none"
     inkscape:connector-curvature="0"
     d="M 0.35593226,-2.3389831 H 24.355933 V 21.661017 H 0.35593226 V -2.3389831 z"
     id="path3" /><path
     style="fill:none"
     inkscape:connector-curvature="0"
     d="M -0.20338982,-1.8813559 H 23.79661 V 22.118644 H -0.20338982 V -1.8813559 z"
     id="path7" /><path
     style="fill:none"
     inkscape:connector-curvature="0"
     d="M 0.71186441,-1.881356 H 24.711865 v 24 H 0.71186441 v -24 z"
     id="path7-7" /><path
     style="fill:none"
     inkscape:connector-curvature="0"
     d="M 0.2033898,-1.9830509 H 24.20339 V 22.01695 H 0.2033898 V -1.9830509 z"
     id="path3-8" /><path
     style="fill:none"
     inkscape:connector-curvature="0"
     d="m 11.949153,1.1277966 v 0.94 c 3.641,0 6.67,2.59 7.359,6.0400004 2.591,0.18 4.641,2.32 4.641,4.96 0,2.76 -2.24,5 -5,5 h -7 v 3.061 h 12 v 0.939 H -0.05084726 V -1.9322034 H 23.949153 v 3.06 h -12 z"
     id="path3-7" /><g
     transform="translate(-0.09948655,-1.9322034)"
     id="Capa_1-1"><path
       style="fill:#78909c"
       inkscape:connector-curvature="0"
       d="m 21.54,14.63 c 0.19,0.15 0.24,0.42 0.12,0.64 l -2,3.461 c -0.12,0.22 -0.38,0.31 -0.61,0.22 l -2.49,-1 c -0.52,0.39 -1.079,0.729 -1.689,0.979 l -0.38,2.65 C 14.46,21.82 14.25,22 14,22 H 10 C 9.75,22 9.54,21.82 9.51,21.58 L 9.13,18.93 C 8.52,18.68 7.96,18.35 7.44,17.951 l -2.49,1 c -0.22,0.08 -0.49,0 -0.61,-0.22 l -2,-3.461 C 2.22,15.05 2.27,14.781 2.46,14.63 L 4.57,12.981 C 4.53,12.66 4.5,12.33 4.5,12 4.5,11.67 4.53,11.34 4.57,11.02 L 2.46,9.37 C 2.27,9.22 2.21,8.95 2.34,8.73 l 2,-3.46 C 4.46,5.05 4.72,4.96 4.95,5.05 l 2.49,1 C 7.96,5.66 8.52,5.32 9.13,5.07 L 9.51,2.42 C 9.54,2.18 9.75,2 10,2 h 4 c 0.25,0 0.46,0.18 0.49,0.42 l 0.38,2.65 c 0.61,0.25 1.17,0.58 1.689,0.98 l 2.49,-1 c 0.22,-0.08 0.49,0 0.61,0.22 l 2,3.46 c 0.12,0.22 0.07,0.49 -0.12,0.64 l -2.11,1.65 c 0.04,0.32 0.07,0.64 0.07,0.98 0,0.34 -0.03,0.66 -0.07,0.98 l 2.111,1.65 z"
       id="path5-5" /><path
       style="fill:#90a4ae"
       inkscape:connector-curvature="0"
       d="M 12,2 V 22 H 10 C 9.75,22 9.54,21.82 9.51,21.58 L 9.13,18.93 C 8.52,18.68 7.96,18.35 7.44,17.951 l -2.49,1 c -0.22,0.08 -0.49,0 -0.61,-0.22 l -2,-3.461 C 2.22,15.05 2.27,14.781 2.46,14.63 L 4.57,12.981 C 4.53,12.66 4.5,12.33 4.5,12 4.5,11.67 4.53,11.34 4.57,11.02 L 2.46,9.37 C 2.27,9.22 2.21,8.95 2.34,8.73 l 2,-3.46 C 4.46,5.05 4.72,4.96 4.95,5.05 l 2.49,1 C 7.96,5.66 8.52,5.32 9.13,5.07 L 9.51,2.42 C 9.54,2.18 9.75,2 10,2 h 2 z"
       id="path7-0" /><circle
       d="m 16.437,11.984 c 0,2.459324 -1.993676,4.453 -4.453,4.453 -2.4593238,0 -4.4529999,-1.993676 -4.4529999,-4.453 0,-2.4593238 1.9936761,-4.4529999 4.4529999,-4.4529999 2.459324,0 4.453,1.9936761 4.453,4.4529999 z"
       style="fill:#546e7a"
       sodipodi:ry="4.4530001"
       sodipodi:rx="4.4530001"
       sodipodi:cy="11.984"
       sodipodi:cx="11.984"
       cx="11.984"
       cy="11.984"
       r="4.4530001"
       id="circle9" /><path
       style="fill:#ffffff"
       inkscape:connector-curvature="0"
       d="m 12,15.5 c -1.93,0 -3.5,-1.57 -3.5,-3.5 0,-1.93 1.57,-3.5 3.5,-3.5 1.93,0 3.5,1.57 3.5,3.5 0,1.93 -1.57,3.5 -3.5,3.5 z"
       id="path11" /></g></svg>