<?xml version="1.0" encoding="UTF-8" standalone="no"?>
<!-- Generator: Adobe Illustrator 16.0.0, SVG Export Plug-In . SVG Version: 6.00 Build 0)  -->

<svg
   xmlns:dc="http://purl.org/dc/elements/1.1/"
   xmlns:cc="http://creativecommons.org/ns#"
   xmlns:rdf="http://www.w3.org/1999/02/22-rdf-syntax-ns#"
   xmlns:svg="http://www.w3.org/2000/svg"
   xmlns="http://www.w3.org/2000/svg"
   xmlns:sodipodi="http://sodipodi.sourceforge.net/DTD/sodipodi-0.dtd"
   xmlns:inkscape="http://www.inkscape.org/namespaces/inkscape"
   version="1.1"
   id="Capa_1"
   x="0px"
   y="0px"
   width="24px"
   height="24px"
   viewBox="0 0 24 24"
   enable-background="new 0 0 24 24"
   xml:space="preserve"
   inkscape:version="0.48.4 r9939"
   sodipodi:docname="home.svg"><metadata
     id="metadata19"><rdf:RDF><cc:Work
         rdf:about=""><dc:format>image/svg+xml</dc:format><dc:type
           rdf:resource="http://purl.org/dc/dcmitype/StillImage" /><dc:title></dc:title></cc:Work></rdf:RDF></metadata><defs
     id="defs17" /><sodipodi:namedview
     pagecolor="#ffffff"
     bordercolor="#666666"
     borderopacity="1"
     objecttolerance="10"
     gridtolerance="10"
     guidetolerance="10"
     inkscape:pageopacity="0"
     inkscape:pageshadow="2"
     inkscape:window-width="1280"
     inkscape:window-height="776"
     id="namedview15"
     showgrid="false"
     inkscape:zoom="19.666667"
     inkscape:cx="21.305085"
     inkscape:cy="10.418799"
     inkscape:window-x="0"
     inkscape:window-y="24"
     inkscape:window-maximized="1"
     inkscape:current-layer="Capa_1" /><path
     d="M0,0h24v24H0V0z"
     id="path13"
     fill="none" /><text
     xml:space="preserve"
     style="font-size:5.56867552px;font-style:normal;font-variant:normal;font-weight:normal;font-stretch:normal;line-height:125%;letter-spacing:0px;word-spacing:0px;fill:#cccccc;fill-opacity:1;stroke:none;font-family:Courier 10 Pitch;-inkscape-font-specification:Courier 10 Pitch"
     x="4.7682014"
     y="21.763142"
     id="text3006"
     sodipodi:linespacing="125%"
     transform="scale(0.94423099,1.0590629)"><tspan
       sodipodi:role="line"
       id="tspan3008"
       x="4.7682014"
       y="21.763142"
       style="font-size:2.83269286px">HISTORIAL</tspan></text>
<path
     style="fill:none"
     inkscape:connector-curvature="0"
     d="M 0.35593226,-2.3389831 H 24.355933 V 21.661017 H 0.35593226 V -2.3389831 z"
     id="path3" /><g
     id="Capa_1-8"
     transform="translate(0.0508474,-1.5762712)"><polygon
       style="fill:none"
       points="24,24 0,24 0,0 24,0 24,12.12 23,9.07 23,17 21,17 21,10.09 20.94,10.12 20.05,13.17 20.8,17.42 24,17.28 "
       id="polygon5" /><polygon
       style="fill:#0277bd"
       points="19,13.18 19,17.18 12,21 5,17.18 5,13.18 12,17 "
       id="polygon7-6" /><polygon
       style="fill:#0288d1"
       points="1,9 12,3 22.97,8.98 23,9 23,17 21,17 21,10.09 20.94,10.12 12,15 "
       id="polygon9-9" /></g><g
     id="Capa_2"
     transform="translate(0.0508474,-1.5762712)"><polygon
       style="fill:#0277bd"
       points="22.97,8.98 23,9.07 23,17 21,17 21,10.09 20.94,10.12 20.95,10.08 "
       id="polygon12" /><polygon
       style="opacity:0.4;fill:#0277bd"
       points="12,3 12,15 1,9 "
       id="polygon14" /><polygon
       style="opacity:0.4;fill:#01579b"
       points="12,21 5,17.18 5,13.18 12,17 "
       id="polygon16" /></g></svg>