<?xml version="1.0" encoding="UTF-8" standalone="no"?>
<!-- Generator: Adobe Illustrator 16.0.0, SVG Export Plug-In . SVG Version: 6.00 Build 0)  -->

<svg
   xmlns:dc="http://purl.org/dc/elements/1.1/"
   xmlns:cc="http://creativecommons.org/ns#"
   xmlns:rdf="http://www.w3.org/1999/02/22-rdf-syntax-ns#"
   xmlns:svg="http://www.w3.org/2000/svg"
   xmlns="http://www.w3.org/2000/svg"
   xmlns:sodipodi="http://sodipodi.sourceforge.net/DTD/sodipodi-0.dtd"
   xmlns:inkscape="http://www.inkscape.org/namespaces/inkscape"
   version="1.1"
   id="Capa_1"
   x="0px"
   y="0px"
   width="24px"
   height="24px"
   viewBox="0 0 24 24"
   enable-background="new 0 0 24 24"
   xml:space="preserve"
   inkscape:version="0.48.4 r9939"
   sodipodi:docname="informacion.svg"><metadata
     id="metadata19"><rdf:RDF><cc:Work
         rdf:about=""><dc:format>image/svg+xml</dc:format><dc:type
           rdf:resource="http://purl.org/dc/dcmitype/StillImage" /><dc:title /></cc:Work></rdf:RDF></metadata><defs
     id="defs17" /><sodipodi:namedview
     pagecolor="#ffffff"
     bordercolor="#666666"
     borderopacity="1"
     objecttolerance="10"
     gridtolerance="10"
     guidetolerance="10"
     inkscape:pageopacity="0"
     inkscape:pageshadow="2"
     inkscape:window-width="1280"
     inkscape:window-height="776"
     id="namedview15"
     showgrid="false"
     inkscape:zoom="19.666667"
     inkscape:cx="3.5522521"
     inkscape:cy="10.33494"
     inkscape:window-x="0"
     inkscape:window-y="24"
     inkscape:window-maximized="1"
     inkscape:current-layer="Capa_1" /><path
     d="M0,0h24v24H0V0z"
     id="path13"
     fill="none" /><text
     xml:space="preserve"
     style="font-size:5.56867552px;font-style:normal;font-variant:normal;font-weight:normal;font-stretch:normal;line-height:125%;letter-spacing:0px;word-spacing:0px;fill:#cccccc;fill-opacity:1;stroke:none;font-family:Courier 10 Pitch;-inkscape-font-specification:Courier 10 Pitch"
     x="1.5371623"
     y="22.195248"
     id="text3006"
     sodipodi:linespacing="125%"
     transform="scale(0.94423099,1.0590629)"><tspan
       sodipodi:role="line"
       id="tspan3008"
       x="1.5371623"
       y="22.195248"
       style="font-size:2.83269285999999987px;fill:#333333">INFORMACIÓN</tspan></text>
<path
     style="fill:none"
     inkscape:connector-curvature="0"
     d="M 0.35593226,-2.3389831 H 24.355933 V 21.661017 H 0.35593226 V -2.3389831 z"
     id="path3" /><path
     style="fill:none"
     inkscape:connector-curvature="0"
     d="M -0.20338982,-1.8813559 H 23.79661 V 22.118644 H -0.20338982 V -1.8813559 z"
     id="path7" /><path
     style="fill:none"
     inkscape:connector-curvature="0"
     d="M 0.71186441,-1.881356 H 24.711865 v 24 H 0.71186441 v -24 z"
     id="path7-7" /><path
     style="fill:none"
     inkscape:connector-curvature="0"
     d="M 0.2033898,-1.9830509 H 24.20339 V 22.01695 H 0.2033898 V -1.9830509 z"
     id="path3-8" /><path
     style="fill:none"
     inkscape:connector-curvature="0"
     d="m 11.949153,1.1277966 v 0.94 c 3.641,0 6.67,2.59 7.359,6.0400004 2.591,0.18 4.641,2.32 4.641,4.96 0,2.76 -2.24,5 -5,5 h -7 v 3.061 h 12 v 0.939 H -0.05084726 V -1.9322034 H 23.949153 v 3.06 h -12 z"
     id="path3-7" /><path
     style="fill:#4fc3f7"
     inkscape:connector-curvature="0"
     d="m 11.949153,20.067797 c 5.52,0 10,-4.48 10,-10 0,-5.5200001 -4.48,-10.00000014 -10,-10.00000014 -5.52,0 -10,4.48000004 -10,10.00000014 0,5.52 4.48,10 10,10 z"
     id="path5" /><path
     style="fill:#2196f3"
     inkscape:connector-curvature="0"
     d="m 11.949153,18.067797 c 4.417,0 8,-3.583 8,-8 0,-4.4140001 -3.583,-8.0000001 -8,-8.0000001 -4.414,0 -8,3.586 -8,8.0000001 0,4.417 3.586,8 8,8 z"
     id="path7-2" /><path
     style="fill:#cfd8dc"
     inkscape:connector-curvature="0"
     d="m 10.949153,5.0677969 h 2 v 2 h -2 v -2 z m 0,4 h 2 v 6.0000001 h -2 V 9.0677969 z"
     id="path9" /></svg>