<?xml version="1.0" encoding="UTF-8" standalone="no"?>
<!-- Generator: Adobe Illustrator 16.0.0, SVG Export Plug-In . SVG Version: 6.00 Build 0)  -->

<svg
   xmlns:dc="http://purl.org/dc/elements/1.1/"
   xmlns:cc="http://creativecommons.org/ns#"
   xmlns:rdf="http://www.w3.org/1999/02/22-rdf-syntax-ns#"
   xmlns:svg="http://www.w3.org/2000/svg"
   xmlns="http://www.w3.org/2000/svg"
   xmlns:sodipodi="http://sodipodi.sourceforge.net/DTD/sodipodi-0.dtd"
   xmlns:inkscape="http://www.inkscape.org/namespaces/inkscape"
   version="1.1"
   id="Capa_1"
   x="0px"
   y="0px"
   width="24px"
   height="24px"
   viewBox="0 0 24 24"
   enable-background="new 0 0 24 24"
   xml:space="preserve"
   inkscape:version="0.48.4 r9939"
   sodipodi:docname="mensajes.svg"><metadata
     id="metadata19"><rdf:RDF><cc:Work
         rdf:about=""><dc:format>image/svg+xml</dc:format><dc:type
           rdf:resource="http://purl.org/dc/dcmitype/StillImage" /><dc:title /></cc:Work></rdf:RDF></metadata><defs
     id="defs17" /><sodipodi:namedview
     pagecolor="#ffffff"
     bordercolor="#666666"
     borderopacity="1"
     objecttolerance="10"
     gridtolerance="10"
     guidetolerance="10"
     inkscape:pageopacity="0"
     inkscape:pageshadow="2"
     inkscape:window-width="1280"
     inkscape:window-height="776"
     id="namedview15"
     showgrid="false"
     inkscape:zoom="19.666667"
     inkscape:cx="20.720885"
     inkscape:cy="12.36389"
     inkscape:window-x="0"
     inkscape:window-y="24"
     inkscape:window-maximized="1"
     inkscape:current-layer="Capa_1" /><path
     d="M0,0h24v24H0V0z"
     id="path13"
     fill="none" /><text
     xml:space="preserve"
     style="font-size:5.56867552px;font-style:normal;font-variant:normal;font-weight:normal;font-stretch:normal;line-height:125%;letter-spacing:0px;word-spacing:0px;fill:#cccccc;fill-opacity:1;stroke:none;font-family:Courier 10 Pitch;-inkscape-font-specification:Courier 10 Pitch"
     x="4.7682018"
     y="21.763142"
     id="text3006"
     sodipodi:linespacing="125%"
     transform="scale(0.94423099,1.0590629)"><tspan
       sodipodi:role="line"
       id="tspan3008"
       x="4.7682018"
       y="21.763142"
       style="font-size:2.83269285999999987px;fill:#333333">MENSAJES</tspan></text>
<path
     style="fill:none"
     inkscape:connector-curvature="0"
     d="M 0.35593226,-2.3389831 H 24.355933 V 21.661017 H 0.35593226 V -2.3389831 z"
     id="path3" /><rect
     style="fill:#c5cae9"
     x="-8.2763052"
     y="-18.141392"
     transform="matrix(-0.70760661,0.7066066,-0.7066066,-0.70760661,0,0)"
     width="1.5129858"
     height="5.3029504"
     id="rect3" /><path
     style="fill:none"
     inkscape:connector-curvature="0"
     d="M -0.20338982,-1.8813559 H 23.79661 V 22.118644 H -0.20338982 V -1.8813559 z"
     id="path7" /><path
     style="fill:#cfd8dc"
     inkscape:connector-curvature="0"
     d="M 12.711865,9.1186436 3.0268648,3.065644 c 0.352,-0.566 0.972,-0.947 1.685,-0.947 H 20.711865 c 0.712,0 1.335,0.38 1.69,0.944 l -9.69,6.0559996 z m 0,2.0000004 -9.9910002,-6.2440004 -0.009,11.2440004 c 0,1.1 0.9,2 2,2 H 20.711865 c 1.1,0 2,-0.9 2,-2 V 4.8686436 l -10,6.2500004 z"
     id="path3-7" /><path
     style="fill:#90a4ae"
     inkscape:connector-curvature="0"
     d="m 22.711865,4.8686436 v -0.75 c 0,-0.3879996 -0.116,-0.7489996 -0.31,-1.0559996 l -9.69,6.0559996 L 3.0268648,3.065644 c -0.19,0.307 -0.305,0.666 -0.305,1.0529996 l 0,0.756 9.9900002,6.2440004 10,-6.2500004 z"
     id="path5-5" /><path
     style="fill:none"
     inkscape:connector-curvature="0"
     d="M 0.71186441,-1.881356 H 24.711865 v 24 H 0.71186441 v -24 z"
     id="path7-7" /></svg>