<?xml version="1.0" encoding="UTF-8" standalone="no"?>
<!-- Generator: Adobe Illustrator 16.0.0, SVG Export Plug-In . SVG Version: 6.00 Build 0)  -->

<svg
   xmlns:dc="http://purl.org/dc/elements/1.1/"
   xmlns:cc="http://creativecommons.org/ns#"
   xmlns:rdf="http://www.w3.org/1999/02/22-rdf-syntax-ns#"
   xmlns:svg="http://www.w3.org/2000/svg"
   xmlns="http://www.w3.org/2000/svg"
   xmlns:sodipodi="http://sodipodi.sourceforge.net/DTD/sodipodi-0.dtd"
   xmlns:inkscape="http://www.inkscape.org/namespaces/inkscape"
   version="1.1"
   id="Capa_1"
   x="0px"
   y="0px"
   width="24px"
   height="24px"
   viewBox="0 0 24 24"
   enable-background="new 0 0 24 24"
   xml:space="preserve"
   inkscape:version="0.48.4 r9939"
   sodipodi:docname="materias.svg"><metadata
     id="metadata19"><rdf:RDF><cc:Work
         rdf:about=""><dc:format>image/svg+xml</dc:format><dc:type
           rdf:resource="http://purl.org/dc/dcmitype/StillImage" /><dc:title></dc:title></cc:Work></rdf:RDF></metadata><defs
     id="defs17" /><sodipodi:namedview
     pagecolor="#ffffff"
     bordercolor="#666666"
     borderopacity="1"
     objecttolerance="10"
     gridtolerance="10"
     guidetolerance="10"
     inkscape:pageopacity="0"
     inkscape:pageshadow="2"
     inkscape:window-width="1280"
     inkscape:window-height="776"
     id="namedview15"
     showgrid="false"
     inkscape:zoom="13.906433"
     inkscape:cx="4.5085065"
     inkscape:cy="8.3320278"
     inkscape:window-x="0"
     inkscape:window-y="24"
     inkscape:window-maximized="1"
     inkscape:current-layer="Capa_1" /><path
     d="M0,0h24v24H0V0z"
     id="path13"
     fill="none" /><text
     xml:space="preserve"
     style="font-size:5.56867552px;font-style:normal;font-variant:normal;font-weight:normal;font-stretch:normal;line-height:125%;letter-spacing:0px;word-spacing:0px;fill:#cccccc;fill-opacity:1;stroke:none;font-family:Courier 10 Pitch;-inkscape-font-specification:Courier 10 Pitch"
     x="5.6496038"
     y="22.195248"
     id="text3006"
     sodipodi:linespacing="125%"
     transform="scale(0.94423099,1.0590629)"><tspan
       sodipodi:role="line"
       id="tspan3008"
       x="5.6496038"
       y="22.195248"
       style="font-size:2.83269286px">NOTICIAS</tspan></text>
<path
     style="fill:none"
     inkscape:connector-curvature="0"
     d="M 0.35593226,-2.3389831 H 24.355933 V 21.661017 H 0.35593226 V -2.3389831 z"
     id="path3" /><path
     style="fill:none"
     inkscape:connector-curvature="0"
     d="M -0.20338982,-1.8813559 H 23.79661 V 22.118644 H -0.20338982 V -1.8813559 z"
     id="path7" /><path
     style="fill:none"
     inkscape:connector-curvature="0"
     d="M 0.71186441,-1.881356 H 24.711865 v 24 H 0.71186441 v -24 z"
     id="path7-7" /><path
     style="fill:none"
     inkscape:connector-curvature="0"
     d="M 0.2033898,-1.9830509 H 24.20339 V 22.01695 H 0.2033898 V -1.9830509 z"
     id="path3-8" /><path
     style="fill:none"
     inkscape:connector-curvature="0"
     d="m 11.949153,1.1277966 v 0.94 c 3.641,0 6.67,2.59 7.359,6.0400004 2.591,0.18 4.641,2.32 4.641,4.96 0,2.76 -2.24,5 -5,5 h -7 v 3.061 h 12 v 0.939 H -0.05084726 V -1.9322034 H 23.949153 v 3.06 h -12 z"
     id="path3-7" /><g
     transform="translate(0.72455787,-1.8784687)"
     id="g3"><path
       style="fill:#dce775"
       inkscape:connector-curvature="0"
       d="m 20,18 v 1 H 3 V 18 L 5,16 V 10.5 C 5,7.43 7.13,4.86 10,4.18 V 3.5 C 10,2.67 10.67,2 11.5,2 12.33,2 13,2.67 13,3.5 V 4.18 C 13.24,4.24 13.47,4.3 13.69,4.39 16.21,5.29 18,7.68 18,10.5 V 16 l 2,2 z"
       id="path5" /><path
       style="fill:#dce775"
       inkscape:connector-curvature="0"
       d="m 11.5,22 c 0.141,0 0.27,-0.01 0.4,-0.04 0.649,-0.13 1.189,-0.58 1.439,-1.18 0.1,-0.24 0.16,-0.5 0.16,-0.78 h -4 C 9.5,21.1 10.4,22 11.5,22 z"
       id="path7-6" /><polygon
       style="fill:#fdd835"
       points="20,18 20,19 3,19 3,18 4.96,16.04 18.04,16.04 "
       id="polygon9" /><path
       style="fill:#fdd835"
       inkscape:connector-curvature="0"
       d="M 13.69,4.39 C 13.62,4.38 13.54,4.36 13.45,4.33 11.85,3.83 10.52,4.05 10,4.17 V 3.5 C 10,2.67 10.67,2 11.5,2 12.33,2 13,2.67 13,3.5 v 0.68 c 0.24,0.06 0.47,0.12 0.69,0.21 z"
       id="path11" /></g></svg>