<?xml version="1.0" encoding="UTF-8" standalone="no"?>
<!-- Created with Inkscape (http://www.inkscape.org/) -->

<svg
   xmlns:dc="http://purl.org/dc/elements/1.1/"
   xmlns:cc="http://creativecommons.org/ns#"
   xmlns:rdf="http://www.w3.org/1999/02/22-rdf-syntax-ns#"
   xmlns:svg="http://www.w3.org/2000/svg"
   xmlns="http://www.w3.org/2000/svg"
   xmlns:sodipodi="http://sodipodi.sourceforge.net/DTD/sodipodi-0.dtd"
   xmlns:inkscape="http://www.inkscape.org/namespaces/inkscape"
   version="1.1"
   width="120"
   height="40"
   id="svg3145"
   inkscape:version="0.48.4 r9939"
   sodipodi:docname="cantera.svg">
  <sodipodi:namedview
     pagecolor="#ffffff"
     bordercolor="#666666"
     borderopacity="1"
     objecttolerance="10"
     gridtolerance="10"
     guidetolerance="10"
     inkscape:pageopacity="0"
     inkscape:pageshadow="2"
     inkscape:window-width="1280"
     inkscape:window-height="776"
     id="namedview143"
     showgrid="false"
     inkscape:zoom="2.3051681"
     inkscape:cx="127.74912"
     inkscape:cy="66.485872"
     inkscape:window-x="0"
     inkscape:window-y="24"
     inkscape:window-maximized="1"
     inkscape:current-layer="svg3145" />
  <metadata
     id="metadata3151">
    <rdf:RDF>
      <cc:Work
         rdf:about="">
        <dc:format>image/svg+xml</dc:format>
        <dc:type
           rdf:resource="http://purl.org/dc/dcmitype/StillImage" />
        <dc:title></dc:title>
      </cc:Work>
    </rdf:RDF>
  </metadata>
  <defs
     id="defs3149" />
  <path
     d="m 15.900141,38.082904 13.81258,-8.243 c 0,0 2.22784,-1.2253 2.45063,-4.78984 0.22278,-3.56454 0.11139,-13.58979 0.11139,-13.58979 0,0 -0.44557,-2.1164405 -2.33924,-1.00252 -1.89366,1.11391 -14.59232,8.79994 -14.59232,8.79994 0,0 -1.67088,1.2253 -1.67088,2.6734 0,1.44811 -0.11139,14.25815 -0.11139,14.25815 0,0 -0.22277,2.78479 2.33923,1.89366 z"
     id="path3461"
     style="fill:#00ccff;fill-opacity:0.80000072;stroke:none"
     inkscape:connector-curvature="0" />
  <path
     d="m 15.139721,29.548764 13.23267,-7.79783 c 0,0 2.44174,-1.41778 2.52051,-3.46569 0.0788,-2.04791 -0.0788,-15.0442805 -0.0788,-15.0442805 0,0 -0.4726,-1.969149 -2.52052,-1.33902 -2.04791,0.63013 -14.3489,9.0119305 -14.3489,9.0119305 0,0 -0.93689,0.71432 -1.22604,1.21053 -0.31789,0.54549 -0.43112,1.26916 -0.4933,1.82872 -0.15753,1.41779 0.0788,14.02032 0.0788,14.02032 0,0 0.70889,2.75682 2.83556,1.57532 z"
     id="path3471"
     style="fill:#ff0067;fill-opacity:0.8;stroke:none"
     inkscape:connector-curvature="0" />
  <path
     d="m 9.3898105,38.134244 13.3902005,-8.03411 c 0,0 2.04791,-1.57533 2.04791,-2.99312 0,-1.41778 -0.0788,-14.88674 -0.0788,-14.88674 0,0 -0.31507,-2.12668 -2.20545,-1.49655 -1.89038,0.63012 -14.5716905,8.66425 -14.5716905,8.66425 0,0 -0.77303,0.43941 -1.32975,1.3099 -0.38431,0.60092 -0.60723,1.49471 -0.6394,2.23456 -0.0788,1.8116 0,13.94156 0,13.94156 0,0 0.55137,3.07188 3.38694,1.26025 z"
     id="path3465"
     style="fill:#ef9330;fill-opacity:0.8;stroke:none"
     inkscape:connector-curvature="0" />
  <path
     d="m 68.070381,34.314104 a 2.362977,3.4263167 0 0 1 -4.72595,0 2.362977,3.4263167 0 1 1 4.72595,0 z"
     id="path3475"
     style="opacity:0.42803034;fill:#000000;fill-opacity:0;stroke:none"
     inkscape:connector-curvature="0" />
  <path
     d="m 25.064221,23.838234 a 4.7653358,4.7653358 0 1 1 -9.53067,0 4.7653358,4.7653358 0 1 1 9.53067,0 z"
     id="path4271"
     style="fill:#ffffff;fill-opacity:1;stroke:none"
     inkscape:connector-curvature="0" />
  <path
     d="m 21.299451,31.793594 a 2.1032964,2.1032964 0 1 1 -4.20659,0 2.1032964,2.1032964 0 1 1 4.20659,0 z"
     id="path4271-5"
     style="fill:#ffffff;fill-opacity:1;stroke:none"
     inkscape:connector-curvature="0" />
  <path
     d="m 29.924321,24.586514 a 2.1032964,2.1032964 0 1 1 -4.20659,0 2.1032964,2.1032964 0 1 1 4.20659,0 z"
     id="path4271-5-4"
     style="fill:#ffffff;fill-opacity:1;stroke:none"
     inkscape:connector-curvature="0" />
  <path
     d="m 11.201431,21.120814 8.74301,0.15753 7.95536,-4.17458 -10.47587,-0.4726 z"
     id="path4311"
     style="fill:#ffffff;fill-opacity:1;stroke:none"
     inkscape:connector-curvature="0" />
  <path
     d="m 13.013051,21.120814 0.86642,-0.15753 2.67803,8.90055 -2.52051,-1.02396 z"
     id="path4313"
     style="fill:#ffffff;fill-opacity:1;stroke:none"
     inkscape:connector-curvature="0" />
  <text
     x="34.752441"
     y="25.059107"
     id="text4317"
     xml:space="preserve"
     style="font-size:19.82845497px;font-style:normal;font-weight:normal;line-height:125%;letter-spacing:0px;word-spacing:0px;fill:#000000;fill-opacity:1;stroke:none;font-family:Sans"
     sodipodi:linespacing="125%"><tspan
       x="34.752441"
       y="25.059107"
       id="tspan4319">prep@</tspan><tspan
       x="34.752441"
       y="37.986298"
       id="tspan4321"
       style="font-size:7.9313817px">En linea. La Cantera</tspan></text>
</svg>
